{
.appVersion = "939";
copyright = "Copyright (C) 2017 by Websima.com, All rights reserved.";
customParameters = (
{
name = license;
value = "http://websima.com";
},
{
name = licenseURL;
value = "http://websima.com";
},
{
name = vendorID;
value = "BVA ";
},
{
name = panose;
value = (
2,
4,
5,
3,
5,
2,
1,
2,
2,
3
);
},
{
name = unicodeRanges;
value = (
0,
1,
2,
3,
5,
13,
31,
33,
35,
38,
45,
47,
63,
67
);
},
{
name = codePageRanges;
value = (
1252,
1256
);
},
{
name = glyphOrder;
value = (
.notdef,
space,
uni0621,
uni0622,
uniFE82,
uni0623,
uniFE84,
uni0624,
uniFE86,
uni0625,
uniFE88,
uni0626,
uniFE8B,
uniFE8C,
uniFE8A,
uni0627,
uniFE8E,
uni0628,
uniFE91,
uniFE92,
uniFE90,
uni0629,
uniFE94,
uni062A,
uniFE97,
uniFE98,
uniFE96,
uni062B,
uniFE9B,
uniFE9C,
uniFE9A,
uni062C,
uniFE9F,
uniFEA0,
uniFE9E,
uni062D,
uniFEA3,
uniFEA4,
uniFEA2,
uni062E,
uniFEA7,
uniFEA8,
uniFEA6,
uni062F,
uniFEAA,
uni0630,
uniFEAC,
uni0631,
uniFEAE,
uni0632,
uniFEB0,
uni0633,
uniFEB3,
uniFEB4,
uniFEB2,
uni0634,
uniFEB7,
uniFEB8,
uniFEB6,
uni0635,
uniFEBB,
uniFEBC,
uniFEBA,
uni0636,
uniFEBF,
uniFEC0,
uniFEBE,
uni0637,
uniFEC3,
uniFEC4,
uniFEC2,
uni0638,
uniFEC7,
uniFEC8,
uniFEC6,
uni0639,
uniFECB,
uniFECC,
uniFECA,
uni063A,
uniFECF,
uniFED0,
uniFECE,
uni0641,
uniFED3,
uniFED4,
uniFED2,
uni0642,
uniFED7,
uniFED8,
uniFED6,
uni0643,
uniFEDB,
uniFEDC,
uniFEDA,
uni0644,
uniFEDF,
uniFEE0,
uniFEDE,
uni0645,
g100,
uniFEE3,
uniFEE4,
uniFEE2,
g104,
uni0646,
uniFEE7,
uniFEE8,
uniFEE6,
uni0647,
uniFEE9,
uniFEEB,
uniFEEC,
uniFEEA,
uni0648,
uniFEEE,
uni0649,
uniFBE8,
uniFBE9,
uniFEF0,
uni064A,
uniFEF3,
uniFEF4,
uniFEF2,
uni0671,
uniFB51,
uni0672,
g127,
uni0673,
g129,
uni0674,
uni0675,
g132,
uni0676,
g134,
uni0677,
g136,
uni0678,
g138,
g139,
g140,
uni0679,
uniFB68,
uniFB69,
uniFB67,
uni067A,
uniFB60,
uniFB61,
uniFB5F,
uni067B,
uniFB54,
uniFB55,
uniFB53,
uni067C,
g154,
g155,
g156,
uni067D,
g158,
g159,
g160,
uni067E,
uniFB58,
uniFB59,
uniFB57,
uni067F,
uniFB64,
uniFB65,
uniFB63,
uni0680,
uniFB5C,
uniFB5D,
uniFB5B,

glyphs = (
{
glyphname = .notdef;
lastChange = "2017-05-01 10:57:08 +0000";
layers = (
{
layerId = "9BAC860F-5151-470B-96DF-6D043347F519";
paths = (
{
closed = 1;
nodes = (
"0 1020 LINE",
"0 0 LINE",
"728 0 LINE",
"728 1020 LINE"
);
},
{
closed = 1;
nodes = (
"117 947 LINE",
"612 947 LINE",
"364 575 LINE"
);
},
{
closed = 1;
nodes = (
"655 881 LINE",
"655 138 LINE",
"408 510 LINE"
);
},
{
closed = 1;
nodes = (
"612 73 LINE",
"117 73 LINE",
"364 444 LINE"
);
},
{
closed = 1;
nodes = (
"73 138 LINE",
"73 881 LINE",
"320 510 LINE"
);
}
);
width = 728;
}
);
note = .notdef;
},
{
glyphname = uni0621;
lastChange = "2017-05-01 10:57:08 +0000";
layers = (
{
layerId = "9BAC860F-5151-470B-96DF-6D043347F519";
paths = (
{
closed = 1;
nodes = (
"591 244 OFFCURVE",
"585 262 OFFCURVE",
"573 262 CURVE SMOOTH",
"567 262 OFFCURVE",
"563 261 OFFCURVE",
"560 258 CURVE",
"556 256 OFFCURVE",
"553 254 OFFCURVE",
"550 253 CURVE",
"547 251 OFFCURVE",
"544 249 OFFCURVE",
"541 248 CURVE",
"480 215 OFFCURVE",
"442 199 OFFCURVE",
"379 199 CURVE SMOOTH",
"303 199 OFFCURVE",
"247 233 OFFCURVE",
"247 294 CURVE SMOOTH",
"247 330 OFFCURVE",
"267 365 OFFCURVE",
"296 388 CURVE SMOOTH",
"323 409 OFFCURVE",
"359 421 OFFCURVE",
"392 421 CURVE SMOOTH",
"425 421 OFFCURVE",
"449 417 OFFCURVE",
"464 408 CURVE",
"481 399 OFFCURVE",
"493 394 OFFCURVE",
"501 394 CURVE SMOOTH",
"513 394 OFFCURVE",
"527 435 OFFCURVE",
"527 463 CURVE SMOOTH",
"527 508 OFFCURVE",
"496 531 OFFCURVE",
"435 531 CURVE SMOOTH",
"362 531 OFFCURVE",
"288 501 OFFCURVE",
"231 450 CURVE SMOOTH",
"174 399 OFFCURVE",
"139 329 OFFCURVE",
"139 257 CURVE SMOOTH",
"139 185 OFFCURVE",
"175 139 OFFCURVE",
"226 118 CURVE",
"201 104 OFFCURVE",
"184 95 OFFCURVE",
"175 92 CURVE",
"163 87 OFFCURVE",
"149 78 OFFCURVE",
"134 65 CURVE SMOOTH",
"111 46 OFFCURVE",
"97 0 OFFCURVE",
"97 -33 CURVE SMOOTH",
"97 -49 OFFCURVE",
"101 -57 OFFCURVE",
"108 -57 CURVE SMOOTH",
"112 -57 OFFCURVE",
"122 -52 OFFCURVE",
"139 -42 CURVE",
"210 -6 LINE SMOOTH",
"313 45 OFFCURVE",
"365 70 OFFCURVE",
"456 102 CURVE SMOOTH",
"509 119 OFFCURVE",
"545 133 OFFCURVE",
"563 146 CURVE SMOOTH",
"583 161 OFFCURVE",
"591 179 OFFCURVE",
"591 208 CURVE SMOOTH"
);
}
);
width = 691;
}
);
note = uni0621;
unicode = 0621;
},
{
glyphname = uni0622;
lastChange = "2017-05-01 10:57:08 +0000";
layers = (
{
layerId = "9BAC860F-5151-470B-96DF-6D043347F519";
paths = (
{
closed = 1;
nodes = (
"175 1244 OFFCURVE",
"162 1223 OFFCURVE",
"162 1175 CURVE SMOOTH",
"162 1159 OFFCURVE",
"164 1135 OFFCURVE",
"167 1103 CURVE SMOOTH",
"188 927 OFFCURVE",
"206 614 OFFCURVE",
"206 382 CURVE SMOOTH",
"206 249 OFFCURVE",
"199 78 OFFCURVE",
"192 29 CURVE SMOOTH",
"190 12 OFFCURVE",
"189 0 OFFCURVE",
"189 -7 CURVE SMOOTH",
"189 -18 OFFCURVE",
"195 -24 OFFCURVE",
"207 -24 CURVE SMOOTH",
"238 -24 OFFCURVE",
"262 -12 OFFCURVE",
"280 11 CURVE",
"307 52 OFFCURVE",
"325 166 OFFCURVE",
"325 313 CURVE SMOOTH",
"325 346 OFFCURVE",
"324 404 OFFCURVE",
"323 488 CURVE SMOOTH",
"320 571 OFFCURVE",
"319 633 OFFCURVE",
"318 675 CURVE SMOOTH",
"314 804 OFFCURVE",
"308 918 OFFCURVE",
"301 1017 CURVE SMOOTH",
"293 1139 LINE",
"289 1206 LINE",
"287 1216 OFFCURVE",
"285 1230 OFFCURVE",
"284 1249 CURVE SMOOTH",
"283 1261 OFFCURVE",
"274 1267 OFFCURVE",
"257 1267 CURVE SMOOTH",
"245 1267 OFFCURVE",
"232 1265 OFFCURVE",
"218 1260 CURVE SMOOTH"
);
},
{
closed = 1;
nodes = (
"-60 1464 OFFCURVE",
"-55 1466 OFFCURVE",
"-48 1471 CURVE",
"-40 1476 OFFCURVE",
"-32 1481 OFFCURVE",
"-23 1485 CURVE SMOOTH",
"4 1498 OFFCURVE",
"36 1505 OFFCURVE",
"75 1505 CURVE SMOOTH",
"114 1505 OFFCURVE",
"145 1498 OFFCURVE",
"198 1482 CURVE SMOOTH",
"245 1468 OFFCURVE",
"288 1461 OFFCURVE",
"329 1461 CURVE SMOOTH",
"390 1461 OFFCURVE",
"445 1482 OFFCURVE",
"486 1514 CURVE SMOOTH",
"523 1541 OFFCURVE",
"545 1574 OFFCURVE",
"545 1598 CURVE SMOOTH",
"545 1605 OFFCURVE",
"541 1608 OFFCURVE",
"534 1608 CURVE SMOOTH",
"529 1608 OFFCURVE",
"523 1606 OFFCURVE",
"514 1602 CURVE SMOOTH",
"482 1589 LINE",
"445 1576 OFFCURVE",
"405 1570 OFFCURVE",
"362 1570 CURVE SMOOTH",
"309 1570 OFFCURVE",
"266 1580 OFFCURVE",
"215 1596 CURVE",
"193 1602 LINE",
"152 1615 OFFCURVE",
"130 1621 OFFCURVE",
"107 1621 CURVE SMOOTH",
"67 1621 OFFCURVE",
"24 1596 OFFCURVE",
"-12 1560 CURVE SMOOTH",
"-44 1529 OFFCURVE",
"-69 1489 OFFCURVE",
"-69 1472 CURVE SMOOTH",
"-69 1467 OFFCURVE",
"-67 1464 OFFCURVE",
"-64 1464 CURVE SMOOTH"
);
}
);
width = 505;
}
);
note = uni0622;
unicode = 0622;
},
{
glyphname = uniFE82;
lastChange = "2017-05-01 10:57:08 +0000";
layers = (
{
layerId = "9BAC860F-5151-470B-96DF-6D043347F519";
paths = (
{
closed = 1;
nodes = (
"183 1053 LINE SMOOTH",
"186 1012 OFFCURVE",
"187 963 OFFCURVE",
"188 906 CURVE SMOOTH",
"189 863 OFFCURVE",
"189 770 OFFCURVE",
"189 629 CURVE SMOOTH",
"189 336 LINE SMOOTH",
"189 241 OFFCURVE",
"213 158 OFFCURVE",
"258 99 CURVE SMOOTH",
"308 33 OFFCURVE",
"383 0 OFFCURVE",
"482 0 CURVE SMOOTH",
"538 0 OFFCURVE",
"568 19 OFFCURVE",
"568 72 CURVE SMOOTH",
"568 81 LINE SMOOTH",
"568 134 OFFCURVE",
"555 155 OFFCURVE",
"519 155 CURVE SMOOTH",
"432 155 OFFCURVE",
"376 181 OFFCURVE",
"344 236 CURVE SMOOTH",
"313 288 OFFCURVE",
"302 363 OFFCURVE",
"302 470 CURVE SMOOTH",
"302 569 OFFCURVE",
"301 705 OFFCURVE",
"300 877 CURVE SMOOTH",
"298 1006 OFFCURVE",
"297 1139 OFFCURVE",
"297 1274 CURVE",
"294 1291 OFFCURVE",
"292 1306 OFFCURVE",
"291 1318 CURVE SMOOTH",
"290 1330 OFFCURVE",
"282 1336 OFFCURVE",
"265 1336 CURVE SMOOTH",
"255 1336 OFFCURVE",
"242 1333 OFFCURVE",
"226 1328 CURVE SMOOTH",
"183 1313 OFFCURVE",
"171 1292 OFFCURVE",
"171 1241 CURVE SMOOTH",
"171 1213 OFFCURVE",
"172 1190 OFFCURVE",
"174 1171 CURVE SMOOTH",
"178 1125 LINE"
);
},
{
closed = 1;
nodes = (
"-60 1464 OFFCURVE",
"-55 1466 OFFCURVE",
"-48 1471 CURVE",
"-40 1476 OFFCURVE",
"-32 1481 OFFCURVE",
"-23 1485 CURVE SMOOTH",
"4 1498 OFFCURVE",
"36 1505 OFFCURVE",
"75 1505 CURVE SMOOTH",
"114 1505 OFFCURVE",
"145 1498 OFFCURVE",
"198 1482 CURVE SMOOTH",
"245 1468 OFFCURVE",
"288 1461 OFFCURVE",
"329 1461 CURVE SMOOTH",
"390 1461 OFFCURVE",
"445 1482 OFFCURVE",
"486 1514 CURVE SMOOTH",
"523 1541 OFFCURVE",
"545 1574 OFFCURVE",
"545 1598 CURVE SMOOTH",
"545 1605 OFFCURVE",
"541 1608 OFFCURVE",
"534 1608 CURVE SMOOTH",
"529 1608 OFFCURVE",
"523 1606 OFFCURVE",
"514 1602 CURVE SMOOTH",
"482 1589 LINE",
"445 1576 OFFCURVE",
"405 1570 OFFCURVE",
"362 1570 CURVE SMOOTH",
"309 1570 OFFCURVE",
"266 1580 OFFCURVE",
"215 1596 CURVE",
"193 1602 LINE",
"152 1615 OFFCURVE",
"130 1621 OFFCURVE",
"107 1621 CURVE SMOOTH",
"67 1621 OFFCURVE",
"24 1596 OFFCURVE",
"-12 1560 CURVE SMOOTH",
"-44 1529 OFFCURVE",
"-69 1489 OFFCURVE",
"-69 1472 CURVE SMOOTH",
"-69 1467 OFFCURVE",
"-67 1464 OFFCURVE",
"-64 1464 CURVE SMOOTH"
);
}
);
width = 499;
}
);
note = uniFE82;
unicode = FE82;
},
{
glyphname = uni0623;
lastChange = "2017-05-01 10:57:08 +0000";
layers = (
{
layerId = "9BAC860F-5151-470B-96DF-6D043347F519";
paths = (
{
closed = 1;
nodes = (
"138 1244 OFFCURVE",
"125 1223 OFFCURVE",
"125 1175 CURVE SMOOTH",
"125 1159 OFFCURVE",
"127 1135 OFFCURVE",
"130 1103 CURVE SMOOTH",
"154 906 OFFCURVE",
"169 641 OFFCURVE",
"169 382 CURVE SMOOTH",
"169 279 OFFCURVE",
"164 109 OFFCURVE",
"156 29 CURVE SMOOTH",
"154 12 OFFCURVE",
"153 0 OFFCURVE",
"153 -7 CURVE SMOOTH",
"153 -18 OFFCURVE",
"159 -24 OFFCURVE",
"171 -24 CURVE SMOOTH",
"198 -24 OFFCURVE",
"224 -14 OFFCURVE",
"243 11 CURVE",
"271 51 OFFCURVE",
"289 162 OFFCURVE",
"289 313 CURVE SMOOTH",
"289 367 OFFCURVE",
"288 425 OFFCURVE",
"286 488 CURVE SMOOTH",
"283 571 OFFCURVE",
"282 633 OFFCURVE",
"281 675 CURVE SMOOTH",
"277 804 OFFCURVE",
"271 918 OFFCURVE",
"264 1017 CURVE SMOOTH",
"262 1045 LINE",
"257 1139 LINE SMOOTH",
"256 1162 OFFCURVE",
"254 1184 OFFCURVE",
"252 1206 CURVE",
"250 1216 OFFCURVE",
"248 1230 OFFCURVE",
"247 1249 CURVE SMOOTH",
"246 1261 OFFCURVE",
"237 1267 OFFCURVE",
"220 1267 CURVE SMOOTH",
"209 1267 OFFCURVE",
"196 1265 OFFCURVE",
"182 1260 CURVE SMOOTH"
);
},
{
closed = 1;
nodes = (
"394 1602 OFFCURVE",
"393 1611 OFFCURVE",
"392 1618 CURVE SMOOTH",
"391 1624 OFFCURVE",
"387 1627 OFFCURVE",
"382 1627 CURVE SMOOTH",
"377 1627 OFFCURVE",
"374 1626 OFFCURVE",
"373 1625 CURVE",
"367 1622 OFFCURVE",
"357 1618 OFFCURVE",
"344 1611 CURVE SMOOTH",
"317 1597 OFFCURVE",
"289 1584 OFFCURVE",
"246 1584 CURVE SMOOTH",
"195 1584 OFFCURVE",
"156 1609 OFFCURVE",
"156 1649 CURVE SMOOTH",
"156 1666 OFFCURVE",
"161 1682 OFFCURVE",
"172 1695 CURVE",
"192 1722 OFFCURVE",
"227 1737 OFFCURVE",
"255 1737 CURVE SMOOTH",
"278 1737 OFFCURVE",
"295 1734 OFFCURVE",
"307 1729 CURVE SMOOTH",
"318 1724 OFFCURVE",
"326 1721 OFFCURVE",
"331 1721 CURVE SMOOTH",
"340 1721 OFFCURVE",
"350 1747 OFFCURVE",
"350 1767 CURVE SMOOTH",
"350 1799 OFFCURVE",
"328 1815 OFFCURVE",
"285 1815 CURVE SMOOTH",
"234 1815 OFFCURVE",
"184 1793 OFFCURVE",
"145 1757 CURVE SMOOTH",
"102 1716 OFFCURVE",
"81 1672 OFFCURVE",
"81 1623 CURVE SMOOTH",
"81 1578 OFFCURVE",
"101 1546 OFFCURVE",
"141 1527 CURVE",
"130 1520 OFFCURVE",
"118 1515 OFFCURVE",
"106 1510 CURVE",
"99 1508 OFFCURVE",
"90 1502 OFFCURVE",
"77 1491 CURVE",
"61 1480 OFFCURVE",
"51 1445 OFFCURVE",
"51 1422 CURVE SMOOTH",
"51 1411 OFFCURVE",
"53 1406 OFFCURVE",
"58 1406 CURVE SMOOTH",
"64 1406 OFFCURVE",
"88 1418 OFFCURVE",
"129 1442 CURVE SMOOTH",
"171 1465 OFFCURVE",
"229 1490 OFFCURVE",
"302 1516 CURVE SMOOTH",
"331 1527 OFFCURVE",
"351 1536 OFFCURVE",
"362 1541 CURVE SMOOTH",
"383 1551 OFFCURVE",
"394 1563 OFFCURVE",
"394 1590 CURVE SMOOTH"
);
}
);
width = 440;
}
);
note = uni0623;
unicode = 0623;
},
{
glyphname = uniFE84;
lastChange = "2017-05-01 10:57:08 +0000";
layers = (
{
layerId = "9BAC860F-5151-470B-96DF-6D043347F519";
paths = (
{
closed = 1;
nodes = (
"150 1130 OFFCURVE",
"158 1021 OFFCURVE",
"159 906 CURVE SMOOTH",
"160 863 OFFCURVE",
"160 770 OFFCURVE",
"160 629 CURVE SMOOTH",
"160 336 LINE SMOOTH",
"160 241 OFFCURVE",
"182 158 OFFCURVE",
"229 99 CURVE SMOOTH",
"280 33 OFFCURVE",
"355 0 OFFCURVE",
"454 0 CURVE SMOOTH",
"510 0 OFFCURVE",
"539 19 OFFCURVE",
"539 72 CURVE SMOOTH",
"539 81 LINE SMOOTH",
"539 134 OFFCURVE",
"527 155 OFFCURVE",
"491 155 CURVE SMOOTH",
"403 155 OFFCURVE",
"347 181 OFFCURVE",
"316 236 CURVE SMOOTH",
"285 288 OFFCURVE",
"273 363 OFFCURVE",
"273 470 CURVE SMOOTH",
"273 613 OFFCURVE",
"272 748 OFFCURVE",
"270 877 CURVE SMOOTH",
"268 1006 OFFCURVE",
"267 1139 OFFCURVE",
"267 1274 CURVE",
"263 1318 LINE SMOOTH",
"262 1330 OFFCURVE",
"253 1336 OFFCURVE",
"236 1336 CURVE SMOOTH",
"226 1336 OFFCURVE",
"213 1333 OFFCURVE",
"197 1328 CURVE SMOOTH",
"154 1313 OFFCURVE",
"142 1292 OFFCURVE",
"142 1241 CURVE SMOOTH",
"142 1219 OFFCURVE",
"143 1196 OFFCURVE",
"146 1171 CURVE SMOOTH"
);
},
{
closed = 1;
nodes = (
"415 1602 OFFCURVE",
"414 1611 OFFCURVE",
"413 1618 CURVE SMOOTH",
"412 1624 OFFCURVE",
"408 1627 OFFCURVE",
"403 1627 CURVE SMOOTH",
"398 1627 OFFCURVE",
"395 1626 OFFCURVE",
"394 1625 CURVE",
"388 1622 OFFCURVE",
"378 1618 OFFCURVE",
"365 1611 CURVE SMOOTH",
"338 1597 OFFCURVE",
"310 1584 OFFCURVE",
"267 1584 CURVE SMOOTH",
"216 1584 OFFCURVE",
"177 1609 OFFCURVE",
"177 1649 CURVE SMOOTH",
"177 1666 OFFCURVE",
"182 1682 OFFCURVE",
"193 1695 CURVE",
"213 1722 OFFCURVE",
"248 1737 OFFCURVE",
"276 1737 CURVE SMOOTH",
"299 1737 OFFCURVE",
"316 1734 OFFCURVE",
"328 1729 CURVE SMOOTH",
"339 1724 OFFCURVE",
"347 1721 OFFCURVE",
"352 1721 CURVE SMOOTH",
"361 1721 OFFCURVE",
"371 1747 OFFCURVE",
"371 1767 CURVE SMOOTH",
"371 1799 OFFCURVE",
"349 1815 OFFCURVE",
"306 1815 CURVE SMOOTH",
"255 1815 OFFCURVE",
"205 1793 OFFCURVE",
"166 1757 CURVE SMOOTH",
"123 1716 OFFCURVE",
"102 1672 OFFCURVE",
"102 1623 CURVE SMOOTH",
"102 1578 OFFCURVE",
"122 1546 OFFCURVE",
"162 1527 CURVE",
"151 1520 OFFCURVE",
"139 1515 OFFCURVE",
"127 1510 CURVE",
"120 1508 OFFCURVE",
"111 1502 OFFCURVE",
"98 1491 CURVE",
"82 1480 OFFCURVE",
"72 1445 OFFCURVE",
"72 1422 CURVE SMOOTH",
"72 1411 OFFCURVE",
"74 1406 OFFCURVE",
"79 1406 CURVE SMOOTH",
"85 1406 OFFCURVE",
"109 1418 OFFCURVE",
"150 1442 CURVE SMOOTH",
"192 1465 OFFCURVE",
"250 1490 OFFCURVE",
"323 1516 CURVE SMOOTH",
"352 1527 OFFCURVE",
"372 1536 OFFCURVE",
"383 1541 CURVE SMOOTH",
"404 1551 OFFCURVE",
"415 1563 OFFCURVE",
"415 1590 CURVE SMOOTH"
);
}
);
width = 471;
}
);
note = uniFE84;
unicode = FE84;
},
{
glyphname = uni0624;
lastChange = "2017-05-01 10:57:08 +0000";
layers = (
{
layerId = "9BAC860F-5151-470B-96DF-6D043347F519";
paths = (
{
closed = 1;
nodes = (
"410 498 OFFCURVE",
"450 471 OFFCURVE",
"481 426 CURVE SMOOTH",
"512 382 OFFCURVE",
"529 318 OFFCURVE",
"530 247 CURVE",
"475 231 OFFCURVE",
"424 223 OFFCURVE",
"375 223 CURVE SMOOTH",
"290 223 OFFCURVE",
"236 262 OFFCURVE",
"236 345 CURVE SMOOTH",
"236 422 OFFCURVE",
"286 498 OFFCURVE",
"366 498 CURVE SMOOTH"
);
},
{
closed = 1;
nodes = (
"529 37 OFFCURVE",
"504 -41 OFFCURVE",
"451 -105 CURVE SMOOTH",
"391 -177 OFFCURVE",
"295 -228 OFFCURVE",
"166 -243 CURVE",
"135 -248 OFFCURVE",
"117 -250 OFFCURVE",
"114 -251 CURVE",
"104 -252 OFFCURVE",
"99 -257 OFFCURVE",
"99 -267 CURVE SMOOTH",
"99 -275 OFFCURVE",
"104 -284 OFFCURVE",
"115 -295 CURVE SMOOTH",
"152 -332 OFFCURVE",
"203 -356 OFFCURVE",
"259 -356 CURVE SMOOTH",
"359 -356 OFFCURVE",
"455 -306 OFFCURVE",
"527 -214 CURVE SMOOTH",
"602 -118 OFFCURVE",
"645 27 OFFCURVE",
"645 203 CURVE SMOOTH",
"645 336 OFFCURVE",
"615 452 OFFCURVE",
"566 533 CURVE SMOOTH",
"518 613 OFFCURVE",
"451 657 OFFCURVE",
"375 657 CURVE SMOOTH",
"303 657 OFFCURVE",
"238 613 OFFCURVE",
"193 544 CURVE SMOOTH",
"149 477 OFFCURVE",
"123 394 OFFCURVE",
"123 319 CURVE SMOOTH",
"123 160 OFFCURVE",
"214 83 OFFCURVE",
"366 83 CURVE SMOOTH",
"422 83 OFFCURVE",
"477 93 OFFCURVE",
"530 114 CURVE"
);
},
{
closed = 1;
nodes = (
"479 945 OFFCURVE",
"478 954 OFFCURVE",
"477 961 CURVE",
"475 967 OFFCURVE",
"471 970 OFFCURVE",
"466 970 CURVE SMOOTH",
"462 970 OFFCURVE",
"459 969 OFFCURVE",
"458 968 CURVE",
"401 941 LINE",
"384 932 OFFCURVE",
"360 928 OFFCURVE",
"331 928 CURVE SMOOTH",
"280 928 OFFCURVE",
"241 952 OFFCURVE",
"241 992 CURVE SMOOTH",
"241 1010 OFFCURVE",
"246 1026 OFFCURVE",
"257 1039 CURVE",
"277 1066 OFFCURVE",
"311 1081 OFFCURVE",
"340 1081 CURVE SMOOTH",
"362 1081 OFFCURVE",
"379 1078 OFFCURVE",
"391 1073 CURVE SMOOTH",
"403 1068 OFFCURVE",
"411 1065 OFFCURVE",
"416 1065 CURVE SMOOTH",
"425 1065 OFFCURVE",
"435 1090 OFFCURVE",
"435 1110 CURVE SMOOTH",
"435 1142 OFFCURVE",
"413 1158 OFFCURVE",
"370 1158 CURVE SMOOTH",
"319 1158 OFFCURVE",
"269 1137 OFFCURVE",
"230 1101 CURVE SMOOTH",
"190 1064 OFFCURVE",
"166 1017 OFFCURVE",
"166 966 CURVE SMOOTH",
"166 919 OFFCURVE",
"191 888 OFFCURVE",
"226 871 CURVE",
"211 862 OFFCURVE",
"200 856 OFFCURVE",
"191 853 CURVE",
"184 851 OFFCURVE",
"175 845 OFFCURVE",
"162 834 CURVE",
"146 822 OFFCURVE",
"136 789 OFFCURVE",
"136 766 CURVE SMOOTH",
"136 754 OFFCURVE",
"138 748 OFFCURVE",
"143 748 CURVE SMOOTH",
"149 748 OFFCURVE",
"173 760 OFFCURVE",
"214 784 CURVE SMOOTH",
"254 807 OFFCURVE",
"311 832 OFFCURVE",
"386 859 CURVE SMOOTH",
"417 871 OFFCURVE",
"438 879 OFFCURVE",
"448 884 CURVE",
"468 893 OFFCURVE",
"479 906 OFFCURVE",
"479 933 CURVE SMOOTH"
);
}
);
width = 787;
}
);
note = uni0624;
unicode = 0624;
},
{
glyphname = uniFE86;
lastChange = "2017-05-01 10:57:08 +0000";
layers = (
{
layerId = "9BAC860F-5151-470B-96DF-6D043347F519";
paths = (
{
closed = 1;
nodes = (
"360 155 OFFCURVE",
"327 159 OFFCURVE",
"304 167 CURVE SMOOTH",
"257 182 OFFCURVE",
"243 210 OFFCURVE",
"243 258 CURVE SMOOTH",
"243 291 OFFCURVE",
"256 331 OFFCURVE",
"279 362 CURVE SMOOTH",
"304 395 OFFCURVE",
"340 419 OFFCURVE",
"379 419 CURVE SMOOTH",
"422 419 OFFCURVE",
"459 389 OFFCURVE",
"484 340 CURVE SMOOTH",
"509 291 OFFCURVE",
"526 224 OFFCURVE",
"529 155 CURVE",
"403 155 LINE SMOOTH"
);
},
{
closed = 1;
nodes = (
"795 0 OFFCURVE",
"824 19 OFFCURVE",
"824 72 CURVE SMOOTH",
"824 81 LINE SMOOTH",
"824 134 OFFCURVE",
"812 155 OFFCURVE",
"776 155 CURVE SMOOTH",
"652 155 LINE",
"647 241 OFFCURVE",
"632 315 OFFCURVE",
"609 378 CURVE SMOOTH",
"562 502 OFFCURVE",
"485 570 OFFCURVE",
"386 570 CURVE SMOOTH",
"323 570 OFFCURVE",
"256 526 OFFCURVE",
"207 458 CURVE SMOOTH",
"159 391 OFFCURVE",
"129 304 OFFCURVE",
"129 227 CURVE SMOOTH",
"129 76 OFFCURVE",
"228 0 OFFCURVE",
"420 0 CURVE SMOOTH",
"527 0 LINE",
"524 -87 OFFCURVE",
"498 -160 OFFCURVE",
"449 -219 CURVE SMOOTH",
"389 -291 OFFCURVE",
"295 -342 OFFCURVE",
"166 -358 CURVE SMOOTH",
"114 -365 LINE SMOOTH",
"104 -366 OFFCURVE",
"99 -372 OFFCURVE",
"99 -382 CURVE SMOOTH",
"99 -390 OFFCURVE",
"104 -399 OFFCURVE",
"115 -410 CURVE",
"154 -446 OFFCURVE",
"203 -470 OFFCURVE",
"259 -470 CURVE SMOOTH",
"354 -470 OFFCURVE",
"442 -431 OFFCURVE",
"510 -352 CURVE SMOOTH",
"584 -267 OFFCURVE",
"628 -150 OFFCURVE",
"643 0 CURVE",
"739 0 LINE SMOOTH"
);
},
{
closed = 1;
nodes = (
"553 945 OFFCURVE",
"552 954 OFFCURVE",
"551 961 CURVE",
"549 967 OFFCURVE",
"545 970 OFFCURVE",
"539 970 CURVE SMOOTH",
"536 970 OFFCURVE",
"533 969 OFFCURVE",
"532 968 CURVE",
"511 959 OFFCURVE",
"492 950 OFFCURVE",
"475 941 CURVE SMOOTH",
"458 932 OFFCURVE",
"434 928 OFFCURVE",
"405 928 CURVE SMOOTH",
"354 928 OFFCURVE",
"315 952 OFFCURVE",
"315 992 CURVE SMOOTH",
"315 1010 OFFCURVE",
"320 1026 OFFCURVE",
"331 1039 CURVE",
"351 1066 OFFCURVE",
"385 1081 OFFCURVE",
"414 1081 CURVE SMOOTH",
"436 1081 OFFCURVE",
"453 1078 OFFCURVE",
"465 1073 CURVE SMOOTH",
"477 1068 OFFCURVE",
"485 1065 OFFCURVE",
"490 1065 CURVE SMOOTH",
"499 1065 OFFCURVE",
"509 1090 OFFCURVE",
"509 1110 CURVE SMOOTH",
"509 1142 OFFCURVE",
"487 1158 OFFCURVE",
"444 1158 CURVE SMOOTH",
"392 1158 OFFCURVE",
"340 1137 OFFCURVE",
"303 1101 CURVE SMOOTH",
"264 1062 OFFCURVE",
"239 1015 OFFCURVE",
"239 966 CURVE SMOOTH",
"239 918 OFFCURVE",
"264 888 OFFCURVE",
"300 871 CURVE",
"284 862 OFFCURVE",
"272 856 OFFCURVE",
"264 853 CURVE",
"258 851 OFFCURVE",
"249 845 OFFCURVE",
"236 834 CURVE",
"219 822 OFFCURVE",
"210 790 OFFCURVE",
"210 766 CURVE SMOOTH",
"210 754 OFFCURVE",
"212 748 OFFCURVE",
"217 748 CURVE SMOOTH",
"223 748 OFFCURVE",
"247 760 OFFCURVE",
"288 784 CURVE SMOOTH",
"328 807 OFFCURVE",
"385 832 OFFCURVE",
"460 859 CURVE SMOOTH",
"491 871 OFFCURVE",
"512 879 OFFCURVE",
"522 884 CURVE",
"542 893 OFFCURVE",
"553 906 OFFCURVE",
"553 933 CURVE SMOOTH"
);
}
);
width = 757;
}
);
note = uniFE86;
unicode = FE86;
},
{
glyphname = uni0625;
lastChange = "2017-05-01 10:57:08 +0000";
layers = (
{
layerId = "9BAC860F-5151-470B-96DF-6D043347F519";
paths = (
{
closed = 1;
nodes = (
"137 1244 OFFCURVE",
"124 1223 OFFCURVE",
"124 1175 CURVE SMOOTH",
"124 1156 OFFCURVE",
"126 1132 OFFCURVE",
"130 1103 CURVE SMOOTH",
"151 927 OFFCURVE",
"168 641 OFFCURVE",
"168 382 CURVE SMOOTH",
"168 331 OFFCURVE",
"167 274 OFFCURVE",
"166 213 CURVE SMOOTH",
"162 115 OFFCURVE",
"158 54 OFFCURVE",
"155 29 CURVE SMOOTH",
"153 12 OFFCURVE",
"152 0 OFFCURVE",
"152 -7 CURVE SMOOTH",
"152 -18 OFFCURVE",
"158 -24 OFFCURVE",
"170 -24 CURVE SMOOTH",
"195 -24 OFFCURVE",
"225 -13 OFFCURVE",
"242 11 CURVE SMOOTH",
"270 52 OFFCURVE",
"288 165 OFFCURVE",
"288 313 CURVE SMOOTH",
"288 462 OFFCURVE",
"278 820 OFFCURVE",
"263 1017 CURVE SMOOTH",
"261 1045 LINE",
"256 1139 LINE SMOOTH",
"255 1162 OFFCURVE",
"253 1184 OFFCURVE",
"251 1206 CURVE SMOOTH",
"250 1215 OFFCURVE",
"248 1230 OFFCURVE",
"247 1249 CURVE SMOOTH",
"246 1261 OFFCURVE",
"237 1267 OFFCURVE",
"220 1267 CURVE SMOOTH",
"208 1267 OFFCURVE",
"195 1265 OFFCURVE",
"181 1260 CURVE SMOOTH"
);
},
{
closed = 1;
nodes = (
"397 -392 OFFCURVE",
"396 -383 OFFCURVE",
"395 -376 CURVE SMOOTH",
"394 -370 OFFCURVE",
"390 -367 OFFCURVE",
"385 -367 CURVE SMOOTH",
"380 -367 OFFCURVE",
"377 -368 OFFCURVE",
"376 -369 CURVE",
"370 -372 OFFCURVE",
"360 -376 OFFCURVE",
"347 -383 CURVE SMOOTH",
"320 -397 OFFCURVE",
"292 -410 OFFCURVE",
"249 -410 CURVE SMOOTH",
"198 -410 OFFCURVE",
"159 -385 OFFCURVE",
"159 -345 CURVE SMOOTH",
"159 -328 OFFCURVE",
"164 -312 OFFCURVE",
"175 -299 CURVE",
"195 -272 OFFCURVE",
"230 -257 OFFCURVE",
"258 -257 CURVE SMOOTH",
"281 -257 OFFCURVE",
"298 -260 OFFCURVE",
"310 -265 CURVE SMOOTH",
"321 -270 OFFCURVE",
"329 -273 OFFCURVE",
"334 -273 CURVE SMOOTH",
"343 -273 OFFCURVE",
"353 -247 OFFCURVE",
"353 -227 CURVE SMOOTH",
"353 -195 OFFCURVE",
"331 -179 OFFCURVE",
"288 -179 CURVE SMOOTH",
"237 -179 OFFCURVE",
"187 -201 OFFCURVE",
"148 -237 CURVE SMOOTH",
"105 -278 OFFCURVE",
"84 -322 OFFCURVE",
"84 -371 CURVE SMOOTH",
"84 -416 OFFCURVE",
"104 -448 OFFCURVE",
"144 -467 CURVE",
"128 -476 OFFCURVE",
"116 -481 OFFCURVE",
"109 -484 CURVE",
"102 -486 OFFCURVE",
"93 -492 OFFCURVE",
"80 -503 CURVE",
"64 -514 OFFCURVE",
"54 -549 OFFCURVE",
"54 -572 CURVE SMOOTH",
"54 -583 OFFCURVE",
"56 -588 OFFCURVE",
"61 -588 CURVE SMOOTH",
"67 -588 OFFCURVE",
"91 -576 OFFCURVE",
"132 -552 CURVE SMOOTH",
"173 -528 OFFCURVE",
"230 -503 OFFCURVE",
"305 -477 CURVE SMOOTH",
"333 -467 OFFCURVE",
"353 -459 OFFCURVE",
"364 -454 CURVE SMOOTH",
"387 -444 OFFCURVE",
"397 -431 OFFCURVE",
"397 -404 CURVE SMOOTH"
);
}
);
width = 440;
}
);
note = uni0625;
unicode = 0625;
},
{
glyphname = uniFE88;
lastChange = "2017-05-01 10:57:08 +0000";
layers = (
{
layerId = "9BAC860F-5151-470B-96DF-6D043347F519";
paths = (
{
closed = 1;
nodes = (
"150 1125 LINE",
"155 1053 LINE SMOOTH",
"158 1012 OFFCURVE",
"159 963 OFFCURVE",
"160 906 CURVE SMOOTH",
"161 819 OFFCURVE",
"162 727 OFFCURVE",
"162 629 CURVE SMOOTH",
"162 336 LINE SMOOTH",
"162 241 OFFCURVE",
"185 158 OFFCURVE",
"230 99 CURVE SMOOTH",
"280 33 OFFCURVE",
"355 0 OFFCURVE",
"454 0 CURVE SMOOTH",
"510 0 OFFCURVE",
"540 19 OFFCURVE",
"540 72 CURVE SMOOTH",
"540 81 LINE SMOOTH",
"540 134 OFFCURVE",
"527 155 OFFCURVE",
"491 155 CURVE SMOOTH",
"404 155 OFFCURVE",
"348 181 OFFCURVE",
"316 236 CURVE SMOOTH",
"285 288 OFFCURVE",
"274 363 OFFCURVE",
"274 470 CURVE SMOOTH",
"274 569 OFFCURVE",
"273 705 OFFCURVE",
"272 877 CURVE SMOOTH",
"270 1006 OFFCURVE",
"269 1139 OFFCURVE",
"269 1274 CURVE",
"266 1293 OFFCURVE",
"264 1307 OFFCURVE",
"264 1318 CURVE",
"263 1330 OFFCURVE",
"254 1336 OFFCURVE",
"237 1336 CURVE SMOOTH",
"226 1336 OFFCURVE",
"214 1333 OFFCURVE",
"199 1328 CURVE SMOOTH",
"155 1313 OFFCURVE",
"143 1292 OFFCURVE",
"143 1241 CURVE SMOOTH",
"143 1228 OFFCURVE",
"143 1217 OFFCURVE",
"144 1210 CURVE",
"146 1171 LINE"
);
},
{
closed = 1;
nodes = (
"438 -392 OFFCURVE",
"437 -383 OFFCURVE",
"436 -376 CURVE SMOOTH",
"435 -370 OFFCURVE",
"431 -367 OFFCURVE",
"426 -367 CURVE SMOOTH",
"421 -367 OFFCURVE",
"418 -368 OFFCURVE",
"417 -369 CURVE",
"411 -372 OFFCURVE",
"401 -376 OFFCURVE",
"388 -383 CURVE SMOOTH",
"361 -397 OFFCURVE",
"333 -410 OFFCURVE",
"290 -410 CURVE SMOOTH",
"239 -410 OFFCURVE",
"200 -385 OFFCURVE",
"200 -345 CURVE SMOOTH",
"200 -328 OFFCURVE",
"205 -312 OFFCURVE",
"216 -299 CURVE",
"236 -272 OFFCURVE",
"271 -257 OFFCURVE",
"299 -257 CURVE SMOOTH",
"322 -257 OFFCURVE",
"339 -260 OFFCURVE",
"351 -265 CURVE SMOOTH",
"362 -270 OFFCURVE",
"370 -273 OFFCURVE",
"375 -273 CURVE SMOOTH",
"384 -273 OFFCURVE",
"394 -247 OFFCURVE",
"394 -227 CURVE SMOOTH",
"394 -195 OFFCURVE",
"372 -179 OFFCURVE",
"329 -179 CURVE SMOOTH",
"278 -179 OFFCURVE",
"228 -201 OFFCURVE",
"189 -237 CURVE SMOOTH",
"146 -278 OFFCURVE",
"125 -322 OFFCURVE",
"125 -371 CURVE SMOOTH",
"125 -416 OFFCURVE",
"145 -448 OFFCURVE",
"185 -467 CURVE",
"169 -476 OFFCURVE",
"157 -481 OFFCURVE",
"150 -484 CURVE",
"143 -486 OFFCURVE",
"134 -492 OFFCURVE",
"121 -503 CURVE",
"105 -514 OFFCURVE",
"95 -549 OFFCURVE",
"95 -572 CURVE SMOOTH",
"95 -583 OFFCURVE",
"97 -588 OFFCURVE",
"102 -588 CURVE SMOOTH",
"108 -588 OFFCURVE",
"132 -576 OFFCURVE",
"173 -552 CURVE SMOOTH",
"214 -528 OFFCURVE",
"271 -503 OFFCURVE",
"346 -477 CURVE SMOOTH",
"374 -467 OFFCURVE",
"394 -459 OFFCURVE",
"405 -454 CURVE SMOOTH",
"428 -444 OFFCURVE",
"438 -431 OFFCURVE",
"438 -404 CURVE SMOOTH"
);
}
);
width = 472;
}
);
note = uniFE88;
unicode = FE88;
},
{
glyphname = uni0626;
lastChange = "2017-05-01 10:57:08 +0000";
layers = (
{
layerId = "9BAC860F-5151-470B-96DF-6D043347F519";
paths = (
{
closed = 1;
nodes = (
"946 824 OFFCURVE",
"849 778 OFFCURVE",
"776 702 CURVE SMOOTH",
"700 625 OFFCURVE",
"653 521 OFFCURVE",
"653 413 CURVE SMOOTH",
"653 374 OFFCURVE",
"663 340 OFFCURVE",
"683 313 CURVE SMOOTH",
"718 264 OFFCURVE",
"775 221 OFFCURVE",
"854 185 CURVE SMOOTH",
"887 171 OFFCURVE",
"919 156 OFFCURVE",
"951 140 CURVE SMOOTH",
"1019 108 OFFCURVE",
"1055 77 OFFCURVE",
"1055 33 CURVE SMOOTH",
"1055 -10 OFFCURVE",
"1008 -70 OFFCURVE",
"927 -115 CURVE SMOOTH",
"834 -168 OFFCURVE",
"705 -203 OFFCURVE",
"548 -203 CURVE SMOOTH",
"237 -203 OFFCURVE",
"146 -77 OFFCURVE",
"146 92 CURVE SMOOTH",
"146 161 OFFCURVE",
"156 207 OFFCURVE",
"171 251 CURVE SMOOTH",
"180 275 OFFCURVE",
"185 290 OFFCURVE",
"185 295 CURVE SMOOTH",
"185 304 OFFCURVE",
"177 308 OFFCURVE",
"162 308 CURVE SMOOTH",
"131 307 OFFCURVE",
"108 297 OFFCURVE",
"95 278 CURVE",
"64 238 OFFCURVE",
"28 131 OFFCURVE",
"28 42 CURVE SMOOTH",
"28 -23 OFFCURVE",
"37 -77 OFFCURVE",
"55 -121 CURVE SMOOTH",
"112 -269 OFFCURVE",
"245 -363 OFFCURVE",
"512 -363 CURVE SMOOTH",
"721 -363 OFFCURVE",
"894 -301 OFFCURVE",
"1019 -201 CURVE SMOOTH",
"1132 -112 OFFCURVE",
"1197 3 OFFCURVE",
"1197 95 CURVE SMOOTH",
"1197 130 OFFCURVE",
"1187 160 OFFCURVE",
"1167 184 CURVE SMOOTH",
"1130 228 OFFCURVE",
"1070 262 OFFCURVE",
"989 295 CURVE SMOOTH",
"946 313 OFFCURVE",
"913 329 OFFCURVE",
"888 342 CURVE SMOOTH",
"819 378 OFFCURVE",
"780 418 OFFCURVE",
"780 470 CURVE SMOOTH",
"780 507 OFFCURVE",
"799 558 OFFCURVE",
"834 598 CURVE SMOOTH",
"873 643 OFFCURVE",
"932 674 OFFCURVE",
"1005 674 CURVE SMOOTH",
"1052 674 OFFCURVE",
"1109 658 OFFCURVE",
"1140 646 CURVE",
"1149 642 OFFCURVE",
"1156 640 OFFCURVE",
"1162 640 CURVE SMOOTH",
"1177 640 OFFCURVE",
"1186 645 OFFCURVE",
"1186 669 CURVE SMOOTH",
"1186 685 LINE SMOOTH",
"1186 690 OFFCURVE",
"1185 695 OFFCURVE",
"1183 702 CURVE",
"1162 790 OFFCURVE",
"1122 824 OFFCURVE",
"1038 824 CURVE SMOOTH"
);
},
{
closed = 1;
nodes = (
"343 670 OFFCURVE",
"342 679 OFFCURVE",
"341 686 CURVE SMOOTH",
"340 692 OFFCURVE",
"336 695 OFFCURVE",
"331 695 CURVE SMOOTH",
"326 695 OFFCURVE",
"323 694 OFFCURVE",
"322 693 CURVE",
"265 666 LINE",
"248 657 OFFCURVE",
"224 653 OFFCURVE",
"195 653 CURVE SMOOTH",
"144 653 OFFCURVE",
"105 677 OFFCURVE",
"105 718 CURVE SMOOTH",
"105 735 OFFCURVE",
"110 751 OFFCURVE",
"121 764 CURVE",
"141 791 OFFCURVE",
"176 806 OFFCURVE",
"204 806 CURVE SMOOTH",
"227 806 OFFCURVE",
"244 803 OFFCURVE",
"256 798 CURVE SMOOTH",
"267 793 OFFCURVE",
"275 790 OFFCURVE",
"280 790 CURVE SMOOTH",
"289 790 OFFCURVE",
"299 815 OFFCURVE",
"299 836 CURVE SMOOTH",
"299 868 OFFCURVE",
"277 884 OFFCURVE",
"234 884 CURVE SMOOTH",
"183 884 OFFCURVE",
"133 862 OFFCURVE",
"94 826 CURVE SMOOTH",
"54 789 OFFCURVE",
"30 741 OFFCURVE",
"30 692 CURVE SMOOTH",
"30 647 OFFCURVE",
"50 615 OFFCURVE",
"90 596 CURVE",
"79 589 OFFCURVE",
"67 584 OFFCURVE",
"55 579 CURVE SMOOTH",
"48 576 OFFCURVE",
"38 570 OFFCURVE",
"26 559 CURVE",
"10 547 OFFCURVE",
"0 514 OFFCURVE",
"0 491 CURVE SMOOTH",
"0 480 OFFCURVE",
"2 474 OFFCURVE",
"7 474 CURVE SMOOTH",
"13 474 OFFCURVE",
"37 486 OFFCURVE",
"78 510 CURVE SMOOTH",
"120 535 OFFCURVE",
"178 559 OFFCURVE",
"251 584 CURVE",
"282 596 OFFCURVE",
"303 604 OFFCURVE",
"313 609 CURVE SMOOTH",
"332 618 OFFCURVE",
"343 631 OFFCURVE",
"343 658 CURVE SMOOTH"
);
}
);
width = 1338;
}
);
note = uni0626;
unicode = 0626;
},
{
glyphname = uniFE8B;
lastChange = "2017-05-01 10:57:08 +0000";
layers = (
{
layerId = "9BAC860F-5151-470B-96DF-6D043347F519";
paths = (
{
closed = 1;
nodes = (
"191 406 OFFCURVE",
"220 326 OFFCURVE",
"220 282 CURVE SMOOTH",
"220 247 OFFCURVE",
"207 219 OFFCURVE",
"180 198 CURVE SMOOTH",
"145 169 OFFCURVE",
"92 155 OFFCURVE",
"20 155 CURVE SMOOTH",
"-32 155 OFFCURVE",
"-65 130 OFFCURVE",
"-65 81 CURVE SMOOTH",
"-65 70 LINE SMOOTH",
"-65 25 OFFCURVE",
"-44 0 OFFCURVE",
"-17 0 CURVE SMOOTH",
"56 0 OFFCURVE",
"119 13 OFFCURVE",
"172 40 CURVE SMOOTH",
"276 92 OFFCURVE",
"331 193 OFFCURVE",
"331 326 CURVE SMOOTH",
"331 427 OFFCURVE",
"287 642 OFFCURVE",
"236 642 CURVE SMOOTH",
"227 642 OFFCURVE",
"215 632 OFFCURVE",
"201 613 CURVE SMOOTH",
"173 573 OFFCURVE",
"148 516 OFFCURVE",
"148 493 CURVE SMOOTH",
"148 483 OFFCURVE",
"150 474 OFFCURVE",
"155 467 CURVE"
);
},
{
closed = 1;
nodes = (
"402 994 OFFCURVE",
"401 1003 OFFCURVE",
"400 1010 CURVE",
"398 1017 OFFCURVE",
"394 1020 OFFCURVE",
"389 1020 CURVE SMOOTH",
"386 1020 OFFCURVE",
"383 1019 OFFCURVE",
"382 1018 CURVE",
"323 990 LINE",
"306 981 OFFCURVE",
"283 977 OFFCURVE",
"254 977 CURVE SMOOTH",
"202 977 OFFCURVE",
"164 1001 OFFCURVE",
"164 1042 CURVE SMOOTH",
"164 1059 OFFCURVE",
"169 1075 OFFCURVE",
"180 1089 CURVE SMOOTH",
"200 1116 OFFCURVE",
"235 1130 OFFCURVE",
"264 1130 CURVE SMOOTH",
"285 1130 OFFCURVE",
"302 1127 OFFCURVE",
"314 1122 CURVE SMOOTH",
"325 1117 OFFCURVE",
"333 1114 OFFCURVE",
"339 1114 CURVE SMOOTH",
"350 1114 OFFCURVE",
"357 1139 OFFCURVE",
"357 1160 CURVE SMOOTH",
"357 1192 OFFCURVE",
"336 1208 OFFCURVE",
"293 1208 CURVE SMOOTH",
"241 1208 OFFCURVE",
"191 1186 OFFCURVE",
"152 1150 CURVE SMOOTH",
"109 1109 OFFCURVE",
"88 1065 OFFCURVE",
"88 1016 CURVE SMOOTH",
"88 971 OFFCURVE",
"108 939 OFFCURVE",
"149 920 CURVE",
"130 911 OFFCURVE",
"118 905 OFFCURVE",
"113 903 CURVE",
"107 901 OFFCURVE",
"98 895 OFFCURVE",
"85 884 CURVE",
"69 872 OFFCURVE",
"58 838 OFFCURVE",
"58 815 CURVE SMOOTH",
"58 804 OFFCURVE",
"61 799 OFFCURVE",
"66 799 CURVE SMOOTH",
"73 799 OFFCURVE",
"96 811 OFFCURVE",
"137 835 CURVE SMOOTH",
"178 859 OFFCURVE",
"235 884 OFFCURVE",
"310 910 CURVE SMOOTH",
"338 920 OFFCURVE",
"358 928 OFFCURVE",
"369 933 CURVE SMOOTH",
"392 943 OFFCURVE",
"402 956 OFFCURVE",
"402 983 CURVE SMOOTH"
);
}
);
width = 471;
}
);
note = uniFE8B;
unicode = FE8B;
},
{
glyphname = uniFE8C;
lastChange = "2017-05-01 10:57:08 +0000";
layers = (
{
layerId = "9BAC860F-5151-470B-96DF-6D043347F519";
paths = (
{
closed = 1;
nodes = (
"616 134 OFFCURVE",
"603 155 OFFCURVE",
"567 155 CURVE SMOOTH",
"412 155 OFFCURVE",
"354 196 OFFCURVE",
"354 284 CURVE SMOOTH",
"354 319 OFFCURVE",
"365 358 OFFCURVE",
"380 385 CURVE",
"385 393 OFFCURVE",
"387 401 OFFCURVE",
"387 410 CURVE SMOOTH",
"387 421 OFFCURVE",
"384 424 OFFCURVE",
"365 424 CURVE SMOOTH",
"357 424 OFFCURVE",
"344 422 OFFCURVE",
"326 419 CURVE",
"295 412 OFFCURVE",
"270 390 OFFCURVE",
"250 354 CURVE",
"235 315 OFFCURVE",
"224 286 OFFCURVE",
"219 267 CURVE",
"212 244 OFFCURVE",
"202 223 OFFCURVE",
"188 204 CURVE",
"159 169 OFFCURVE",
"113 155 OFFCURVE",
"20 155 CURVE SMOOTH",
"-32 155 OFFCURVE",
"-65 130 OFFCURVE",
"-65 81 CURVE SMOOTH",
"-65 70 LINE SMOOTH",
"-65 25 OFFCURVE",
"-44 0 OFFCURVE",
"-17 0 CURVE SMOOTH",
"87 0 OFFCURVE",
"154 10 OFFCURVE",
"198 34 CURVE",
"241 55 OFFCURVE",
"269 88 OFFCURVE",
"298 140 CURVE",
"306 83 OFFCURVE",
"334 48 OFFCURVE",
"379 27 CURVE SMOOTH",
"416 9 OFFCURVE",
"466 0 OFFCURVE",
"531 0 CURVE SMOOTH",
"587 0 OFFCURVE",
"616 19 OFFCURVE",
"616 72 CURVE SMOOTH",
"616 81 LINE SMOOTH"
);
},
{
closed = 1;
nodes = (
"488 725 OFFCURVE",
"487 734 OFFCURVE",
"486 741 CURVE",
"484 748 OFFCURVE",
"480 751 OFFCURVE",
"475 751 CURVE SMOOTH",
"472 751 OFFCURVE",
"469 750 OFFCURVE",
"468 748 CURVE",
"447 739 OFFCURVE",
"428 730 OFFCURVE",
"411 721 CURVE SMOOTH",
"394 712 OFFCURVE",
"370 708 OFFCURVE",
"341 708 CURVE SMOOTH",
"289 708 OFFCURVE",
"250 732 OFFCURVE",
"250 773 CURVE SMOOTH",
"250 790 OFFCURVE",
"255 806 OFFCURVE",
"266 819 CURVE",
"287 846 OFFCURVE",
"321 861 OFFCURVE",
"350 861 CURVE SMOOTH",
"372 861 OFFCURVE",
"389 858 OFFCURVE",
"401 853 CURVE SMOOTH",
"413 848 OFFCURVE",
"421 845 OFFCURVE",
"426 845 CURVE SMOOTH",
"435 845 OFFCURVE",
"444 871 OFFCURVE",
"444 891 CURVE SMOOTH",
"444 922 OFFCURVE",
"423 938 OFFCURVE",
"380 938 CURVE SMOOTH",
"328 938 OFFCURVE",
"278 917 OFFCURVE",
"239 881 CURVE SMOOTH",
"199 844 OFFCURVE",
"175 796 OFFCURVE",
"175 747 CURVE SMOOTH",
"175 702 OFFCURVE",
"195 670 OFFCURVE",
"236 651 CURVE",
"200 634 LINE",
"192 631 OFFCURVE",
"182 625 OFFCURVE",
"171 614 CURVE",
"155 603 OFFCURVE",
"145 569 OFFCURVE",
"145 546 CURVE SMOOTH",
"145 535 OFFCURVE",
"148 530 OFFCURVE",
"153 530 CURVE SMOOTH",
"160 530 OFFCURVE",
"183 542 OFFCURVE",
"224 566 CURVE SMOOTH",
"267 591 OFFCURVE",
"324 616 OFFCURVE",
"396 640 CURVE",
"425 651 OFFCURVE",
"445 660 OFFCURVE",
"456 665 CURVE SMOOTH",
"477 675 OFFCURVE",
"488 687 OFFCURVE",
"488 714 CURVE SMOOTH"
);
}
);
width = 547;
}
);
note = uniFE8C;
unicode = FE8C;
},
{
glyphname = uniFE8A;
lastChange = "2017-05-01 10:57:08 +0000";
layers = (
{
layerId = "9BAC860F-5151-470B-96DF-6D043347F519";
paths = (
{
closed = 1;
nodes = (
"155 -30 OFFCURVE",
"164 23 OFFCURVE",
"181 70 CURVE",
"190 92 OFFCURVE",
"194 107 OFFCURVE",
"194 114 CURVE SMOOTH",
"194 123 OFFCURVE",
"186 127 OFFCURVE",
"171 127 CURVE SMOOTH",
"139 126 OFFCURVE",
"117 117 OFFCURVE",
"105 98 CURVE",
"70 51 OFFCURVE",
"37 -51 OFFCURVE",
"37 -139 CURVE SMOOTH",
"37 -201 OFFCURVE",
"45 -255 OFFCURVE",
"62 -302 CURVE SMOOTH",
"110 -445 OFFCURVE",
"247 -544 OFFCURVE",
"514 -544 CURVE SMOOTH",
"738 -544 OFFCURVE",
"914 -481 OFFCURVE",
"1038 -384 CURVE SMOOTH",
"1147 -297 OFFCURVE",
"1206 -187 OFFCURVE",
"1206 -98 CURVE SMOOTH",
"1206 -59 OFFCURVE",
"1179 -17 OFFCURVE",
"1146 0 CURVE",
"1236 0 LINE SMOOTH",
"1291 0 OFFCURVE",
"1320 19 OFFCURVE",
"1320 72 CURVE SMOOTH",
"1320 81 LINE SMOOTH",
"1320 134 OFFCURVE",
"1308 155 OFFCURVE",
"1273 155 CURVE SMOOTH",
"957 155 LINE SMOOTH",
"914 155 OFFCURVE",
"888 124 OFFCURVE",
"871 77 CURVE",
"860 56 OFFCURVE",
"854 38 OFFCURVE",
"854 23 CURVE SMOOTH",
"854 7 OFFCURVE",
"865 -4 OFFCURVE",
"887 -11 CURVE SMOOTH",
"976 -40 OFFCURVE",
"1025 -62 OFFCURVE",
"1050 -85 CURVE",
"1071 -106 OFFCURVE",
"1077 -124 OFFCURVE",
"1077 -148 CURVE SMOOTH",
"1077 -199 OFFCURVE",
"1029 -259 OFFCURVE",
"944 -304 CURVE SMOOTH",
"852 -355 OFFCURVE",
"725 -385 OFFCURVE",
"574 -385 CURVE SMOOTH",
"412 -385 OFFCURVE",
"298 -355 OFFCURVE",
"231 -295 CURVE SMOOTH",
"175 -244 OFFCURVE",
"155 -175 OFFCURVE",
"155 -90 CURVE SMOOTH"
);
},
{
closed = 1;
nodes = (
"343 429 OFFCURVE",
"342 438 OFFCURVE",
"341 445 CURVE SMOOTH",
"340 451 OFFCURVE",
"336 454 OFFCURVE",
"331 454 CURVE SMOOTH",
"326 454 OFFCURVE",
"323 453 OFFCURVE",
"322 452 CURVE",
"317 449 OFFCURVE",
"308 445 OFFCURVE",
"295 438 CURVE SMOOTH",
"269 425 OFFCURVE",
"239 412 OFFCURVE",
"195 412 CURVE SMOOTH",
"144 412 OFFCURVE",
"105 436 OFFCURVE",
"105 476 CURVE SMOOTH",
"105 493 OFFCURVE",
"110 509 OFFCURVE",
"121 523 CURVE SMOOTH",
"141 550 OFFCURVE",
"176 565 OFFCURVE",
"204 565 CURVE SMOOTH",
"227 565 OFFCURVE",
"244 562 OFFCURVE",
"256 557 CURVE",
"266 551 OFFCURVE",
"274 548 OFFCURVE",
"280 548 CURVE SMOOTH",
"289 548 OFFCURVE",
"299 574 OFFCURVE",
"299 594 CURVE SMOOTH",
"299 626 OFFCURVE",
"277 642 OFFCURVE",
"234 642 CURVE SMOOTH",
"183 642 OFFCURVE",
"133 620 OFFCURVE",
"94 584 CURVE SMOOTH",
"51 543 OFFCURVE",
"30 499 OFFCURVE",
"30 450 CURVE SMOOTH",
"30 407 OFFCURVE",
"50 375 OFFCURVE",
"90 354 CURVE",
"79 347 OFFCURVE",
"67 342 OFFCURVE",
"55 337 CURVE SMOOTH",
"48 334 OFFCURVE",
"38 328 OFFCURVE",
"26 317 CURVE",
"10 306 OFFCURVE",
"0 272 OFFCURVE",
"0 249 CURVE SMOOTH",
"0 238 OFFCURVE",
"2 232 OFFCURVE",
"7 232 CURVE SMOOTH",
"13 232 OFFCURVE",
"37 244 OFFCURVE",
"78 268 CURVE SMOOTH",
"119 292 OFFCURVE",
"176 317 OFFCURVE",
"251 343 CURVE SMOOTH",
"283 355 OFFCURVE",
"304 363 OFFCURVE",
"313 368 CURVE",
"332 376 OFFCURVE",
"343 389 OFFCURVE",
"343 417 CURVE SMOOTH"
);
}
);
width = 1252;
}
);
note = uniFE8A;
unicode = FE8A;
},
{
glyphname = uni0627;
lastChange = "2017-05-01 10:57:08 +0000";
layers = (
{
layerId = "9BAC860F-5151-470B-96DF-6D043347F519";
paths = (
{
closed = 1;
nodes = (
"138 1244 OFFCURVE",
"125 1223 OFFCURVE",
"125 1175 CURVE SMOOTH",
"125 1159 OFFCURVE",
"127 1135 OFFCURVE",
"130 1103 CURVE",
"150 966 OFFCURVE",
"169 641 OFFCURVE",
"169 382 CURVE SMOOTH",
"169 279 OFFCURVE",
"164 109 OFFCURVE",
"156 29 CURVE SMOOTH",
"154 12 OFFCURVE",
"153 0 OFFCURVE",
"153 -7 CURVE SMOOTH",
"153 -18 OFFCURVE",
"159 -24 OFFCURVE",
"171 -24 CURVE SMOOTH",
"198 -24 OFFCURVE",
"226 -14 OFFCURVE",
"243 11 CURVE SMOOTH",
"271 51 OFFCURVE",
"289 162 OFFCURVE",
"289 313 CURVE SMOOTH",
"289 462 OFFCURVE",
"278 796 OFFCURVE",
"265 1017 CURVE SMOOTH",
"257 1139 LINE SMOOTH",
"256 1162 OFFCURVE",
"254 1184 OFFCURVE",
"252 1206 CURVE",
"249 1220 OFFCURVE",
"248 1234 OFFCURVE",
"248 1249 CURVE",
"247 1261 OFFCURVE",
"238 1267 OFFCURVE",
"220 1267 CURVE SMOOTH",
"209 1267 OFFCURVE",
"196 1265 OFFCURVE",
"182 1260 CURVE SMOOTH"
);
}
);
width = 444;
}
);
note = uni0627;
unicode = 0627;
},
{
glyphname = uniFE8E;
lastChange = "2017-05-01 10:57:08 +0000";
layers = (
{
layerId = "9BAC860F-5151-470B-96DF-6D043347F519";
paths = (
{
closed = 1;
nodes = (
"155 1053 LINE",
"156 1028 LINE",
"159 906 LINE SMOOTH",
"160 819 OFFCURVE",
"161 727 OFFCURVE",
"161 629 CURVE SMOOTH",
"161 336 LINE SMOOTH",
"161 235 OFFCURVE",
"184 156 OFFCURVE",
"230 99 CURVE SMOOTH",
"281 33 OFFCURVE",
"356 0 OFFCURVE",
"455 0 CURVE SMOOTH",
"510 0 OFFCURVE",
"539 19 OFFCURVE",
"539 72 CURVE SMOOTH",
"539 81 LINE SMOOTH",
"539 134 OFFCURVE",
"527 155 OFFCURVE",
"492 155 CURVE SMOOTH",
"404 155 OFFCURVE",
"348 181 OFFCURVE",
"317 236 CURVE SMOOTH",
"286 288 OFFCURVE",
"274 363 OFFCURVE",
"274 470 CURVE SMOOTH",
"274 613 OFFCURVE",
"273 748 OFFCURVE",
"271 877 CURVE SMOOTH",
"269 1006 OFFCURVE",
"268 1139 OFFCURVE",
"268 1274 CURVE",
"264 1318 LINE SMOOTH",
"263 1330 OFFCURVE",
"254 1336 OFFCURVE",
"237 1336 CURVE SMOOTH",
"227 1336 OFFCURVE",
"214 1333 OFFCURVE",
"198 1328 CURVE SMOOTH",
"155 1313 OFFCURVE",
"143 1292 OFFCURVE",
"143 1241 CURVE SMOOTH",
"143 1219 OFFCURVE",
"144 1196 OFFCURVE",
"147 1171 CURVE",
"150 1125 LINE"
);
}
);
width = 471;
}
);
note = uniFE8E;
unicode = FE8E;
},
{
glyphname = uni0628;
lastChange = "2017-05-01 10:57:08 +0000";
layers = (
{
layerId = "9BAC860F-5151-470B-96DF-6D043347F519";
paths = (
{
closed = 1;
nodes = (
"0 156 OFFCURVE",
"39 76 OFFCURVE",
"127 21 CURVE SMOOTH",
"219 -35 OFFCURVE",
"364 -63 OFFCURVE",
"581 -63 CURVE SMOOTH",
"829 -63 OFFCURVE",
"1020 -50 OFFCURVE",
"1173 -2 CURVE SMOOTH",
"1352 54 OFFCURVE",
"1455 155 OFFCURVE",
"1455 326 CURVE SMOOTH",
"1455 422 OFFCURVE",
"1411 616 OFFCURVE",
"1366 641 CURVE SMOOTH",
"1357 646 OFFCURVE",
"1347 640 OFFCURVE",
"1334 624 CURVE SMOOTH",
"1309 591 OFFCURVE",
"1281 535 OFFCURVE",
"1273 510 CURVE SMOOTH",
"1271 504 OFFCURVE",
"1270 498 OFFCURVE",
"1270 493 CURVE SMOOTH",
"1270 484 OFFCURVE",
"1273 476 OFFCURVE",
"1278 467 CURVE",
"1315 406 OFFCURVE",
"1345 326 OFFCURVE",
"1345 282 CURVE SMOOTH",
"1345 230 OFFCURVE",
"1301 184 OFFCURVE",
"1205 151 CURVE SMOOTH",
"1098 114 OFFCURVE",
"931 95 OFFCURVE",
"702 95 CURVE SMOOTH",
"483 95 OFFCURVE",
"339 112 OFFCURVE",
"248 148 CURVE SMOOTH",
"157 184 OFFCURVE",
"118 243 OFFCURVE",
"118 332 CURVE SMOOTH",
"118 378 OFFCURVE",
"127 425 OFFCURVE",
"144 472 CURVE",
"153 494 OFFCURVE",
"157 509 OFFCURVE",
"157 516 CURVE SMOOTH",
"157 525 OFFCURVE",
"150 530 OFFCURVE",
"135 530 CURVE SMOOTH",
"102 529 OFFCURVE",
"80 519 OFFCURVE",
"68 500 CURVE",
"43 469 OFFCURVE",
"0 356 OFFCURVE",
"0 264 CURVE SMOOTH"
);
},
{
closed = 1;
nodes = (
"728 -203 OFFCURVE",
"707 -217 OFFCURVE",
"679 -245 CURVE SMOOTH",
"658 -266 OFFCURVE",
"639 -295 OFFCURVE",
"639 -304 CURVE SMOOTH",
"639 -310 OFFCURVE",
"644 -317 OFFCURVE",
"655 -326 CURVE SMOOTH",
"676 -344 OFFCURVE",
"696 -364 OFFCURVE",
"715 -385 CURVE",
"723 -395 OFFCURVE",
"730 -400 OFFCURVE",
"736 -400 CURVE SMOOTH",
"743 -400 OFFCURVE",
"750 -397 OFFCURVE",
"756 -390 CURVE",
"759 -387 OFFCURVE",
"770 -376 OFFCURVE",
"790 -358 CURVE",
"796 -351 OFFCURVE",
"807 -340 OFFCURVE",
"822 -325 CURVE SMOOTH",
"833 -314 OFFCURVE",
"839 -305 OFFCURVE",
"839 -299 CURVE SMOOTH",
"839 -293 OFFCURVE",
"835 -284 OFFCURVE",
"828 -272 CURVE",
"813 -249 OFFCURVE",
"773 -203 OFFCURVE",
"741 -203 CURVE SMOOTH"
);
}
);
width = 1596;
}
);
note = uni0628;
unicode = 0628;
},
{
glyphname = uniFE91;
lastChange = "2017-05-01 10:57:08 +0000";
layers = (
{
layerId = "9BAC860F-5151-470B-96DF-6D043347F519";
paths = (
{
closed = 1;
nodes = (
"191 406 OFFCURVE",
"220 326 OFFCURVE",
"220 282 CURVE SMOOTH",
"220 247 OFFCURVE",
"207 219 OFFCURVE",
"180 198 CURVE SMOOTH",
"145 169 OFFCURVE",
"92 155 OFFCURVE",
"20 155 CURVE SMOOTH",
"-32 155 OFFCURVE",
"-65 130 OFFCURVE",
"-65 81 CURVE SMOOTH",
"-65 70 LINE SMOOTH",
"-65 25 OFFCURVE",
"-44 0 OFFCURVE",
"-17 0 CURVE SMOOTH",
"56 0 OFFCURVE",
"119 13 OFFCURVE",
"172 40 CURVE SMOOTH",
"276 92 OFFCURVE",
"331 193 OFFCURVE",
"331 326 CURVE SMOOTH",
"331 427 OFFCURVE",
"287 642 OFFCURVE",
"236 642 CURVE SMOOTH",
"227 642 OFFCURVE",
"215 632 OFFCURVE",
"201 613 CURVE SMOOTH",
"173 573 OFFCURVE",
"148 516 OFFCURVE",
"148 493 CURVE SMOOTH",
"148 483 OFFCURVE",
"150 474 OFFCURVE",
"155 467 CURVE"
);
},
{
closed = 1;
nodes = (
"202 -203 OFFCURVE",
"181 -217 OFFCURVE",
"153 -245 CURVE SMOOTH",
"132 -266 OFFCURVE",
"112 -295 OFFCURVE",
"112 -304 CURVE SMOOTH",
"112 -309 OFFCURVE",
"118 -317 OFFCURVE",
"129 -326 CURVE SMOOTH",
"147 -341 OFFCURVE",
"167 -360 OFFCURVE",
"189 -385 CURVE",
"197 -395 OFFCURVE",
"204 -400 OFFCURVE",
"210 -400 CURVE SMOOTH",
"217 -400 OFFCURVE",
"223 -397 OFFCURVE",
"229 -390 CURVE",
"232 -387 OFFCURVE",
"243 -376 OFFCURVE",
"264 -358 CURVE",
"270 -351 OFFCURVE",
"281 -340 OFFCURVE",
"296 -325 CURVE SMOOTH",
"307 -314 OFFCURVE",
"313 -305 OFFCURVE",
"313 -299 CURVE SMOOTH",
"313 -293 OFFCURVE",
"309 -284 OFFCURVE",
"302 -272 CURVE",
"287 -249 OFFCURVE",
"247 -203 OFFCURVE",
"215 -203 CURVE SMOOTH"
);
}
);
width = 471;
}
);
note = uniFE91;
unicode = FE91;
},
{
glyphname = uniFE92;
lastChange = "2017-05-01 10:57:08 +0000";
layers = (
{
layerId = "9BAC860F-5151-470B-96DF-6D043347F519";
paths = (
{
closed = 1;
nodes = (
"616 134 OFFCURVE",
"603 155 OFFCURVE",
"567 155 CURVE SMOOTH",
"412 155 OFFCURVE",
"354 196 OFFCURVE",
"354 284 CURVE SMOOTH",
"354 319 OFFCURVE",
"365 358 OFFCURVE",
"380 385 CURVE",
"385 393 OFFCURVE",
"387 401 OFFCURVE",
"387 410 CURVE SMOOTH",
"387 421 OFFCURVE",
"384 424 OFFCURVE",
"365 424 CURVE SMOOTH",
"357 424 OFFCURVE",
"344 422 OFFCURVE",
"326 419 CURVE",
"295 412 OFFCURVE",
"270 390 OFFCURVE",
"250 354 CURVE",
"235 315 OFFCURVE",
"224 286 OFFCURVE",
"219 267 CURVE",
"212 244 OFFCURVE",
"202 223 OFFCURVE",
"188 204 CURVE",
"159 169 OFFCURVE",
"113 155 OFFCURVE",
"20 155 CURVE SMOOTH",
"-32 155 OFFCURVE",
"-65 130 OFFCURVE",
"-65 81 CURVE SMOOTH",
"-65 70 LINE SMOOTH",
"-65 25 OFFCURVE",
"-44 0 OFFCURVE",
"-17 0 CURVE SMOOTH",
"87 0 OFFCURVE",
"154 10 OFFCURVE",
"198 34 CURVE",
"241 55 OFFCURVE",
"269 88 OFFCURVE",
"298 140 CURVE",
"306 83 OFFCURVE",
"334 48 OFFCURVE",
"379 27 CURVE SMOOTH",
"416 9 OFFCURVE",
"466 0 OFFCURVE",
"531 0 CURVE SMOOTH",
"587 0 OFFCURVE",
"616 19 OFFCURVE",
"616 72 CURVE SMOOTH",
"616 81 LINE SMOOTH"
);
},
{
closed = 1;
nodes = (
"273 -203 OFFCURVE",
"246 -222 OFFCURVE",
"223 -245 CURVE SMOOTH",
"202 -266 OFFCURVE",
"182 -295 OFFCURVE",
"182 -304 CURVE SMOOTH",
"182 -309 OFFCURVE",
"188 -317 OFFCURVE",
"199 -326 CURVE SMOOTH",
"221 -344 OFFCURVE",
"241 -364 OFFCURVE",
"259 -385 CURVE SMOOTH",
"267 -395 OFFCURVE",
"274 -400 OFFCURVE",
"280 -400 CURVE SMOOTH",
"287 -400 OFFCURVE",
"294 -397 OFFCURVE",
"300 -390 CURVE SMOOTH",
"304 -385 OFFCURVE",
"315 -374 OFFCURVE",
"333 -358 CURVE",
"366 -325 LINE",
"378 -314 OFFCURVE",
"384 -306 OFFCURVE",
"384 -299 CURVE SMOOTH",
"384 -293 OFFCURVE",
"380 -284 OFFCURVE",
"373 -273 CURVE SMOOTH",
"358 -250 OFFCURVE",
"316 -203 OFFCURVE",
"285 -203 CURVE SMOOTH"
);
}
);
width = 547;
}
);
note = uniFE92;
unicode = FE92;
},
{
glyphname = uniFE90;
lastChange = "2017-05-01 10:57:08 +0000";
layers = (
{
layerId = "9BAC860F-5151-470B-96DF-6D043347F519";
paths = (
{
closed = 1;
nodes = (
"1491 291 OFFCURVE",
"1382 231 OFFCURVE",
"1225 182 CURVE SMOOTH",
"1069 133 OFFCURVE",
"874 104 OFFCURVE",
"681 104 CURVE SMOOTH",
"460 104 OFFCURVE",
"306 128 OFFCURVE",
"219 177 CURVE SMOOTH",
"152 214 OFFCURVE",
"118 266 OFFCURVE",
"118 332 CURVE SMOOTH",
"118 378 OFFCURVE",
"127 425 OFFCURVE",
"144 472 CURVE",
"153 494 OFFCURVE",
"157 509 OFFCURVE",
"157 516 CURVE SMOOTH",
"157 525 OFFCURVE",
"150 530 OFFCURVE",
"135 530 CURVE SMOOTH",
"102 529 OFFCURVE",
"80 519 OFFCURVE",
"68 500 CURVE",
"43 469 OFFCURVE",
"0 356 OFFCURVE",
"0 264 CURVE SMOOTH",
"0 205 OFFCURVE",
"8 159 OFFCURVE",
"36 116 CURVE SMOOTH",
"72 61 OFFCURVE",
"132 20 OFFCURVE",
"216 -8 CURVE SMOOTH",
"317 -42 OFFCURVE",
"460 -59 OFFCURVE",
"646 -59 CURVE SMOOTH",
"966 -59 OFFCURVE",
"1263 6 OFFCURVE",
"1507 155 CURVE",
"1522 89 OFFCURVE",
"1562 45 OFFCURVE",
"1626 22 CURVE SMOOTH",
"1675 5 OFFCURVE",
"1731 0 OFFCURVE",
"1802 0 CURVE SMOOTH",
"1858 0 OFFCURVE",
"1887 19 OFFCURVE",
"1887 72 CURVE SMOOTH",
"1887 81 LINE SMOOTH",
"1887 134 OFFCURVE",
"1875 155 OFFCURVE",
"1839 155 CURVE SMOOTH",
"1684 155 OFFCURVE",
"1625 196 OFFCURVE",
"1625 284 CURVE SMOOTH",
"1625 317 OFFCURVE",
"1636 357 OFFCURVE",
"1651 385 CURVE",
"1656 393 OFFCURVE",
"1658 401 OFFCURVE",
"1658 410 CURVE SMOOTH",
"1658 421 OFFCURVE",
"1655 424 OFFCURVE",
"1636 424 CURVE SMOOTH",
"1627 424 OFFCURVE",
"1615 422 OFFCURVE",
"1598 419 CURVE",
"1567 412 OFFCURVE",
"1542 390 OFFCURVE",
"1522 354 CURVE"
);
},
{
closed = 1;
nodes = (
"830 -203 OFFCURVE",
"809 -217 OFFCURVE",
"781 -245 CURVE SMOOTH",
"758 -268 OFFCURVE",
"739 -295 OFFCURVE",
"739 -304 CURVE SMOOTH",
"739 -309 OFFCURVE",
"745 -317 OFFCURVE",
"756 -326 CURVE SMOOTH",
"774 -340 OFFCURVE",
"794 -360 OFFCURVE",
"817 -385 CURVE",
"825 -395 OFFCURVE",
"832 -400 OFFCURVE",
"838 -400 CURVE SMOOTH",
"845 -400 OFFCURVE",
"851 -397 OFFCURVE",
"857 -390 CURVE",
"860 -387 OFFCURVE",
"871 -376 OFFCURVE",
"891 -358 CURVE",
"894 -355 OFFCURVE",
"899 -350 OFFCURVE",
"907 -342 CURVE SMOOTH",
"922 -327 OFFCURVE",
"940 -308 OFFCURVE",
"940 -299 CURVE SMOOTH",
"940 -287 OFFCURVE",
"924 -260 OFFCURVE",
"904 -240 CURVE SMOOTH",
"881 -217 OFFCURVE",
"858 -203 OFFCURVE",
"843 -203 CURVE SMOOTH"
);
}
);
width = 1819;
}
);
note = uniFE90;
unicode = FE90;
},
{
glyphname = uni0629;
lastChange = "2017-05-01 10:57:08 +0000";
layers = (
{
layerId = "9BAC860F-5151-470B-96DF-6D043347F519";
paths = (
{
closed = 1;
nodes = (
"168 713 OFFCURVE",
"165 714 OFFCURVE",
"162 714 CURVE SMOOTH",
"155 714 OFFCURVE",
"150 710 OFFCURVE",
"147 703 CURVE",
"143 695 OFFCURVE",
"139 683 OFFCURVE",
"134 667 CURVE SMOOTH",
"128 646 OFFCURVE",
"125 623 OFFCURVE",
"125 600 CURVE SMOOTH",
"125 583 OFFCURVE",
"130 570 OFFCURVE",
"140 561 CURVE",
"48 453 OFFCURVE",
"0 339 OFFCURVE",
"0 234 CURVE SMOOTH",
"0 77 OFFCURVE",
"101 -11 OFFCURVE",
"253 -11 CURVE SMOOTH",
"348 -11 OFFCURVE",
"422 24 OFFCURVE",
"476 95 CURVE SMOOTH",
"523 156 OFFCURVE",
"548 237 OFFCURVE",
"548 312 CURVE SMOOTH",
"548 356 OFFCURVE",
"541 395 OFFCURVE",
"526 429 CURVE SMOOTH",
"471 558 OFFCURVE",
"329 638 OFFCURVE",
"226 683 CURVE",
"199 696 OFFCURVE",
"180 705 OFFCURVE",
"169 712 CURVE"
);
},
{
closed = 1;
nodes = (
"350 480 OFFCURVE",
"440 379 OFFCURVE",
"440 284 CURVE SMOOTH",
"440 259 OFFCURVE",
"434 236 OFFCURVE",
"421 215 CURVE",
"396 171 OFFCURVE",
"345 142 OFFCURVE",
"278 142 CURVE SMOOTH",
"170 142 OFFCURVE",
"122 205 OFFCURVE",
"122 284 CURVE SMOOTH",
"122 314 OFFCURVE",
"127 343 OFFCURVE",
"137 371 CURVE SMOOTH",
"156 424 OFFCURVE",
"184 469 OFFCURVE",
"212 494 CURVE SMOOTH",
"225 506 OFFCURVE",
"235 512 OFFCURVE",
"241 512 CURVE"
);
},
{
closed = 1;
nodes = (
"131 1077 OFFCURVE",
"110 1063 OFFCURVE",
"82 1035 CURVE SMOOTH",
"59 1012 OFFCURVE",
"41 986 OFFCURVE",
"41 975 CURVE SMOOTH",
"41 970 OFFCURVE",
"47 962 OFFCURVE",
"58 953 CURVE SMOOTH",
"80 936 OFFCURVE",
"100 916 OFFCURVE",
"117 895 CURVE SMOOTH",
"125 885 OFFCURVE",
"132 880 OFFCURVE",
"139 880 CURVE SMOOTH",
"147 880 OFFCURVE",
"153 883 OFFCURVE",
"158 890 CURVE",
"161 893 OFFCURVE",
"172 904 OFFCURVE",
"192 922 CURVE",
"198 929 OFFCURVE",
"209 940 OFFCURVE",
"224 955 CURVE SMOOTH",
"235 966 OFFCURVE",
"241 975 OFFCURVE",
"241 982 CURVE SMOOTH",
"241 988 OFFCURVE",
"237 997 OFFCURVE",
"230 1009 CURVE",
"215 1032 OFFCURVE",
"176 1077 OFFCURVE",
"144 1077 CURVE SMOOTH"
);
},
{
closed = 1;
nodes = (
"373 1077 OFFCURVE",
"352 1063 OFFCURVE",
"323 1035 CURVE SMOOTH",
"300 1014 OFFCURVE",
"282 986 OFFCURVE",
"282 975 CURVE SMOOTH",
"282 970 OFFCURVE",
"288 962 OFFCURVE",
"299 953 CURVE SMOOTH",
"323 934 OFFCURVE",
"343 915 OFFCURVE",
"359 895 CURVE SMOOTH",
"367 885 OFFCURVE",
"374 880 OFFCURVE",
"380 880 CURVE SMOOTH",
"387 880 OFFCURVE",
"394 883 OFFCURVE",
"400 890 CURVE SMOOTH",
"404 895 OFFCURVE",
"415 906 OFFCURVE",
"433 922 CURVE",
"450 939 OFFCURVE",
"463 952 OFFCURVE",
"472 961 CURVE",
"480 970 OFFCURVE",
"484 977 OFFCURVE",
"484 982 CURVE SMOOTH",
"484 994 OFFCURVE",
"467 1020 OFFCURVE",
"447 1040 CURVE SMOOTH",
"422 1065 OFFCURVE",
"402 1077 OFFCURVE",
"385 1077 CURVE SMOOTH"
);
}
);
width = 688;
}
);
note = uni0629;
unicode = 0629;
},
{
glyphname = uniFE94;
lastChange = "2017-05-01 10:57:08 +0000";
layers = (
{
layerId = "9BAC860F-5151-470B-96DF-6D043347F519";
paths = (
{
closed = 1;
nodes = (
"647 155 OFFCURVE",
"609 164 OFFCURVE",
"580 193 CURVE SMOOTH",
"549 224 OFFCURVE",
"528 280 OFFCURVE",
"511 377 CURVE SMOOTH",
"494 474 OFFCURVE",
"480 619 OFFCURVE",
"468 813 CURVE",
"468 833 OFFCURVE",
"461 843 OFFCURVE",
"447 843 CURVE SMOOTH",
"438 843 OFFCURVE",
"428 840 OFFCURVE",
"417 834 CURVE SMOOTH",
"394 821 OFFCURVE",
"374 809 OFFCURVE",
"357 796 CURVE SMOOTH",
"342 784 OFFCURVE",
"334 774 OFFCURVE",
"334 766 CURVE SMOOTH",
"334 758 OFFCURVE",
"336 746 OFFCURVE",
"340 731 CURVE",
"349 688 LINE",
"232 639 OFFCURVE",
"140 572 OFFCURVE",
"81 501 CURVE SMOOTH",
"26 434 OFFCURVE",
"0 367 OFFCURVE",
"0 304 CURVE SMOOTH",
"0 177 OFFCURVE",
"82 111 OFFCURVE",
"231 111 CURVE SMOOTH",
"306 111 OFFCURVE",
"364 124 OFFCURVE",
"428 155 CURVE",
"463 54 OFFCURVE",
"531 0 OFFCURVE",
"671 0 CURVE SMOOTH",
"727 0 OFFCURVE",
"757 19 OFFCURVE",
"757 72 CURVE SMOOTH",
"757 81 LINE SMOOTH",
"757 134 OFFCURVE",
"744 155 OFFCURVE",
"708 155 CURVE SMOOTH"
);
},
{
closed = 1;
nodes = (
"397 270 OFFCURVE",
"380 264 OFFCURVE",
"355 256 CURVE SMOOTH",
"331 249 OFFCURVE",
"299 245 OFFCURVE",
"258 245 CURVE SMOOTH",
"203 245 OFFCURVE",
"164 257 OFFCURVE",
"141 282 CURVE",
"128 295 OFFCURVE",
"122 314 OFFCURVE",
"122 338 CURVE SMOOTH",
"122 375 OFFCURVE",
"137 409 OFFCURVE",
"166 440 CURVE SMOOTH",
"210 485 OFFCURVE",
"276 523 OFFCURVE",
"363 553 CURVE",
"383 396 LINE SMOOTH",
"388 353 OFFCURVE",
"395 312 OFFCURVE",
"404 273 CURVE"
);
},
{
closed = 1;
nodes = (
"150 1262 OFFCURVE",
"129 1248 OFFCURVE",
"102 1219 CURVE",
"79 1196 OFFCURVE",
"61 1169 OFFCURVE",
"61 1160 CURVE SMOOTH",
"61 1155 OFFCURVE",
"67 1147 OFFCURVE",
"78 1138 CURVE SMOOTH",
"93 1126 OFFCURVE",
"104 1116 OFFCURVE",
"111 1109 CURVE SMOOTH",
"115 1105 OFFCURVE",
"120 1099 OFFCURVE",
"127 1092 CURVE",
"139 1076 OFFCURVE",
"151 1065 OFFCURVE",
"159 1065 CURVE SMOOTH",
"166 1065 OFFCURVE",
"172 1068 OFFCURVE",
"178 1075 CURVE SMOOTH",
"183 1081 OFFCURVE",
"195 1092 OFFCURVE",
"213 1107 CURVE",
"216 1110 OFFCURVE",
"222 1116 OFFCURVE",
"230 1124 CURVE SMOOTH",
"246 1139 OFFCURVE",
"262 1156 OFFCURVE",
"262 1165 CURVE SMOOTH",
"262 1171 OFFCURVE",
"258 1180 OFFCURVE",
"251 1193 CURVE",
"231 1224 OFFCURVE",
"192 1262 OFFCURVE",
"164 1262 CURVE SMOOTH"
);
},
{
closed = 1;
nodes = (
"391 1262 OFFCURVE",
"370 1248 OFFCURVE",
"343 1219 CURVE SMOOTH",
"322 1196 OFFCURVE",
"303 1169 OFFCURVE",
"303 1160 CURVE SMOOTH",
"303 1155 OFFCURVE",
"309 1147 OFFCURVE",
"320 1138 CURVE SMOOTH",
"338 1124 OFFCURVE",
"358 1104 OFFCURVE",
"379 1079 CURVE SMOOTH",
"387 1070 OFFCURVE",
"394 1065 OFFCURVE",
"400 1065 CURVE SMOOTH",
"409 1065 OFFCURVE",
"415 1068 OFFCURVE",
"420 1075 CURVE",
"424 1080 OFFCURVE",
"435 1091 OFFCURVE",
"454 1107 CURVE",
"457 1110 OFFCURVE",
"463 1116 OFFCURVE",
"471 1124 CURVE SMOOTH",
"487 1139 OFFCURVE",
"503 1156 OFFCURVE",
"503 1165 CURVE SMOOTH",
"503 1172 OFFCURVE",
"500 1182 OFFCURVE",
"493 1193 CURVE SMOOTH",
"474 1222 OFFCURVE",
"434 1262 OFFCURVE",
"406 1262 CURVE SMOOTH"
);
}
);
width = 688;
}
);
note = uniFE94;
unicode = FE94;
},
{
glyphname = uni062A;
lastChange = "2017-05-01 10:57:08 +0000";
layers = (
{
layerId = "9BAC860F-5151-470B-96DF-6D043347F519";
paths = (
{
closed = 1;
nodes = (
"0 156 OFFCURVE",
"39 76 OFFCURVE",
"127 21 CURVE SMOOTH",
"219 -35 OFFCURVE",
"364 -63 OFFCURVE",
"581 -63 CURVE SMOOTH",
"829 -63 OFFCURVE",
"1020 -50 OFFCURVE",
"1173 -2 CURVE SMOOTH",
"1352 54 OFFCURVE",
"1455 155 OFFCURVE",
"1455 326 CURVE SMOOTH",
"1455 422 OFFCURVE",
"1411 616 OFFCURVE",
"1366 641 CURVE SMOOTH",
"1357 646 OFFCURVE",
"1347 640 OFFCURVE",
"1334 624 CURVE SMOOTH",
"1309 591 OFFCURVE",
"1281 535 OFFCURVE",
"1273 510 CURVE SMOOTH",
"1271 504 OFFCURVE",
"1270 498 OFFCURVE",
"1270 493 CURVE SMOOTH",
"1270 484 OFFCURVE",
"1273 476 OFFCURVE",
"1278 467 CURVE",
"1315 406 OFFCURVE",
"1345 326 OFFCURVE",
"1345 282 CURVE SMOOTH",
"1345 230 OFFCURVE",
"1301 184 OFFCURVE",
"1205 151 CURVE SMOOTH",
"1098 114 OFFCURVE",
"931 95 OFFCURVE",
"702 95 CURVE SMOOTH",
"483 95 OFFCURVE",
"339 112 OFFCURVE",
"248 148 CURVE SMOOTH",
"157 184 OFFCURVE",
"118 243 OFFCURVE",
"118 332 CURVE SMOOTH",
"118 378 OFFCURVE",
"127 425 OFFCURVE",
"144 472 CURVE",
"153 494 OFFCURVE",
"157 509 OFFCURVE",
"157 516 CURVE SMOOTH",
"157 525 OFFCURVE",
"150 530 OFFCURVE",
"135 530 CURVE SMOOTH",
"102 529 OFFCURVE",
"80 519 OFFCURVE",
"68 500 CURVE",
"43 469 OFFCURVE",
"0 356 OFFCURVE",
"0 264 CURVE SMOOTH"
);
},
{
closed = 1;
nodes = (
"600 894 OFFCURVE",
"579 880 OFFCURVE",
"552 853 CURVE SMOOTH",
"529 830 OFFCURVE",
"511 804 OFFCURVE",
"511 793 CURVE SMOOTH",
"511 788 OFFCURVE",
"517 780 OFFCURVE",
"528 771 CURVE SMOOTH",
"547 756 OFFCURVE",
"567 737 OFFCURVE",
"588 712 CURVE SMOOTH",
"596 702 OFFCURVE",
"603 697 OFFCURVE",
"609 697 CURVE SMOOTH",
"616 697 OFFCURVE",
"623 701 OFFCURVE",
"629 708 CURVE SMOOTH",
"634 714 OFFCURVE",
"645 724 OFFCURVE",
"662 739 CURVE",
"695 773 LINE SMOOTH",
"706 784 OFFCURVE",
"712 793 OFFCURVE",
"712 799 CURVE SMOOTH",
"712 811 OFFCURVE",
"695 838 OFFCURVE",
"675 857 CURVE",
"651 882 OFFCURVE",
"631 894 OFFCURVE",
"614 894 CURVE SMOOTH"
);
},
{
closed = 1;
nodes = (
"843 894 OFFCURVE",
"822 880 OFFCURVE",
"793 853 CURVE SMOOTH",
"770 832 OFFCURVE",
"753 805 OFFCURVE",
"753 793 CURVE SMOOTH",
"753 787 OFFCURVE",
"758 780 OFFCURVE",
"769 771 CURVE SMOOTH",
"793 752 OFFCURVE",
"813 732 OFFCURVE",
"829 712 CURVE SMOOTH",
"837 702 OFFCURVE",
"844 697 OFFCURVE",
"850 697 CURVE SMOOTH",
"857 697 OFFCURVE",
"864 701 OFFCURVE",
"870 708 CURVE",
"873 713 OFFCURVE",
"885 723 OFFCURVE",
"904 739 CURVE",
"937 773 LINE SMOOTH",
"948 784 OFFCURVE",
"954 793 OFFCURVE",
"954 799 CURVE SMOOTH",
"954 805 OFFCURVE",
"950 814 OFFCURVE",
"943 825 CURVE SMOOTH",
"928 848 OFFCURVE",
"888 894 OFFCURVE",
"856 894 CURVE SMOOTH"
);
}
);
width = 1596;
}
);
note = uni062A;
unicode = 062A;
},
{
glyphname = uniFE97;
lastChange = "2017-05-01 10:57:08 +0000";
layers = (
{
layerId = "9BAC860F-5151-470B-96DF-6D043347F519";
paths = (
{
closed = 1;
nodes = (
"191 406 OFFCURVE",
"220 326 OFFCURVE",
"220 282 CURVE SMOOTH",
"220 247 OFFCURVE",
"207 219 OFFCURVE",
"180 198 CURVE SMOOTH",
"145 169 OFFCURVE",
"92 155 OFFCURVE",
"20 155 CURVE SMOOTH",
"-32 155 OFFCURVE",
"-65 130 OFFCURVE",
"-65 81 CURVE SMOOTH",
"-65 70 LINE SMOOTH",
"-65 25 OFFCURVE",
"-44 0 OFFCURVE",
"-17 0 CURVE SMOOTH",
"56 0 OFFCURVE",
"119 13 OFFCURVE",
"172 40 CURVE SMOOTH",
"276 92 OFFCURVE",
"331 193 OFFCURVE",
"331 326 CURVE SMOOTH",
"331 427 OFFCURVE",
"287 642 OFFCURVE",
"236 642 CURVE SMOOTH",
"227 642 OFFCURVE",
"215 632 OFFCURVE",
"201 613 CURVE SMOOTH",
"173 573 OFFCURVE",
"148 516 OFFCURVE",
"148 493 CURVE SMOOTH",
"148 483 OFFCURVE",
"150 474 OFFCURVE",
"155 467 CURVE"
);
},
{
closed = 1;
nodes = (
"66 1077 OFFCURVE",
"45 1063 OFFCURVE",
"17 1035 CURVE SMOOTH",
"-6 1012 OFFCURVE",
"-24 986 OFFCURVE",
"-24 975 CURVE SMOOTH",
"-24 970 OFFCURVE",
"-18 962 OFFCURVE",
"-7 953 CURVE SMOOTH",
"15 936 OFFCURVE",
"35 917 OFFCURVE",
"52 895 CURVE SMOOTH",
"60 885 OFFCURVE",
"67 880 OFFCURVE",
"74 880 CURVE SMOOTH",
"82 880 OFFCURVE",
"88 883 OFFCURVE",
"93 890 CURVE",
"96 893 OFFCURVE",
"107 904 OFFCURVE",
"127 922 CURVE",
"133 929 OFFCURVE",
"144 940 OFFCURVE",
"159 955 CURVE SMOOTH",
"170 966 OFFCURVE",
"176 975 OFFCURVE",
"176 982 CURVE SMOOTH",
"176 988 OFFCURVE",
"172 997 OFFCURVE",
"165 1009 CURVE",
"150 1032 OFFCURVE",
"111 1077 OFFCURVE",
"79 1077 CURVE SMOOTH"
);
},
{
closed = 1;
nodes = (
"308 1077 OFFCURVE",
"287 1063 OFFCURVE",
"258 1035 CURVE SMOOTH",
"235 1014 OFFCURVE",
"217 986 OFFCURVE",
"217 975 CURVE SMOOTH",
"217 970 OFFCURVE",
"223 962 OFFCURVE",
"234 953 CURVE SMOOTH",
"258 934 OFFCURVE",
"278 915 OFFCURVE",
"294 895 CURVE SMOOTH",
"302 885 OFFCURVE",
"309 880 OFFCURVE",
"315 880 CURVE SMOOTH",
"322 880 OFFCURVE",
"329 883 OFFCURVE",
"335 890 CURVE SMOOTH",
"339 895 OFFCURVE",
"350 906 OFFCURVE",
"368 922 CURVE",
"385 939 OFFCURVE",
"398 952 OFFCURVE",
"407 961 CURVE",
"415 970 OFFCURVE",
"419 977 OFFCURVE",
"419 982 CURVE SMOOTH",
"419 994 OFFCURVE",
"402 1020 OFFCURVE",
"382 1040 CURVE SMOOTH",
"357 1065 OFFCURVE",
"337 1077 OFFCURVE",
"320 1077 CURVE SMOOTH"
);
}
);
width = 471;
}
);
note = uniFE97;
unicode = FE97;
},
{
glyphname = uniFE98;
lastChange = "2017-05-01 10:57:08 +0000";
layers = (
{
layerId = "9BAC860F-5151-470B-96DF-6D043347F519";
paths = (
{
closed = 1;
nodes = (
"616 134 OFFCURVE",
"603 155 OFFCURVE",
"567 155 CURVE SMOOTH",
"412 155 OFFCURVE",
"354 196 OFFCURVE",
"354 284 CURVE SMOOTH",
"354 319 OFFCURVE",
"365 358 OFFCURVE",
"380 385 CURVE",
"385 393 OFFCURVE",
"387 401 OFFCURVE",
"387 410 CURVE SMOOTH",
"387 421 OFFCURVE",
"384 424 OFFCURVE",
"365 424 CURVE SMOOTH",
"357 424 OFFCURVE",
"344 422 OFFCURVE",
"326 419 CURVE",
"295 412 OFFCURVE",
"270 390 OFFCURVE",
"250 354 CURVE",
"235 315 OFFCURVE",
"224 286 OFFCURVE",
"219 267 CURVE",
"212 244 OFFCURVE",
"202 223 OFFCURVE",
"188 204 CURVE",
"159 169 OFFCURVE",
"113 155 OFFCURVE",
"20 155 CURVE SMOOTH",
"-32 155 OFFCURVE",
"-65 130 OFFCURVE",
"-65 81 CURVE SMOOTH",
"-65 70 LINE SMOOTH",
"-65 25 OFFCURVE",
"-44 0 OFFCURVE",
"-17 0 CURVE SMOOTH",
"87 0 OFFCURVE",
"154 10 OFFCURVE",
"198 34 CURVE",
"241 55 OFFCURVE",
"269 88 OFFCURVE",
"298 140 CURVE",
"306 83 OFFCURVE",
"334 48 OFFCURVE",
"379 27 CURVE SMOOTH",
"416 9 OFFCURVE",
"466 0 OFFCURVE",
"531 0 CURVE SMOOTH",
"587 0 OFFCURVE",
"616 19 OFFCURVE",
"616 72 CURVE SMOOTH",
"616 81 LINE SMOOTH"
);
},
{
closed = 1;
nodes = (
"146 894 OFFCURVE",
"119 876 OFFCURVE",
"96 853 CURVE SMOOTH",
"73 830 OFFCURVE",
"55 804 OFFCURVE",
"55 793 CURVE SMOOTH",
"55 788 OFFCURVE",
"61 780 OFFCURVE",
"72 771 CURVE SMOOTH",
"79 765 OFFCURVE",
"90 755 OFFCURVE",
"104 741 CURVE",
"113 734 OFFCURVE",
"123 724 OFFCURVE",
"132 712 CURVE SMOOTH",
"139 702 OFFCURVE",
"146 697 OFFCURVE",
"153 697 CURVE SMOOTH",
"160 697 OFFCURVE",
"167 701 OFFCURVE",
"172 708 CURVE",
"175 713 OFFCURVE",
"187 723 OFFCURVE",
"206 739 CURVE",
"212 746 OFFCURVE",
"223 758 OFFCURVE",
"238 773 CURVE",
"250 784 OFFCURVE",
"256 793 OFFCURVE",
"256 799 CURVE SMOOTH",
"256 811 OFFCURVE",
"239 838 OFFCURVE",
"219 857 CURVE SMOOTH",
"194 882 OFFCURVE",
"174 894 OFFCURVE",
"158 894 CURVE SMOOTH"
);
},
{
closed = 1;
nodes = (
"387 894 OFFCURVE",
"366 880 OFFCURVE",
"337 853 CURVE SMOOTH",
"314 832 OFFCURVE",
"296 804 OFFCURVE",
"296 793 CURVE SMOOTH",
"296 788 OFFCURVE",
"302 780 OFFCURVE",
"313 771 CURVE",
"336 754 OFFCURVE",
"356 734 OFFCURVE",
"373 712 CURVE SMOOTH",
"381 702 OFFCURVE",
"388 697 OFFCURVE",
"394 697 CURVE SMOOTH",
"401 697 OFFCURVE",
"408 701 OFFCURVE",
"414 708 CURVE SMOOTH",
"419 714 OFFCURVE",
"430 724 OFFCURVE",
"447 739 CURVE",
"450 742 OFFCURVE",
"456 748 OFFCURVE",
"465 757 CURVE SMOOTH",
"481 773 OFFCURVE",
"498 790 OFFCURVE",
"498 799 CURVE SMOOTH",
"498 805 OFFCURVE",
"494 814 OFFCURVE",
"487 825 CURVE SMOOTH",
"472 848 OFFCURVE",
"432 894 OFFCURVE",
"400 894 CURVE SMOOTH"
);
}
);
width = 547;
}
);
note = uniFE98;
unicode = FE98;
},
{
glyphname = uniFE96;
lastChange = "2017-05-01 10:57:08 +0000";
layers = (
{
layerId = "9BAC860F-5151-470B-96DF-6D043347F519";
paths = (
{
closed = 1;
nodes = (
"1491 291 OFFCURVE",
"1382 231 OFFCURVE",
"1225 182 CURVE SMOOTH",
"1069 133 OFFCURVE",
"874 104 OFFCURVE",
"681 104 CURVE SMOOTH",
"460 104 OFFCURVE",
"306 128 OFFCURVE",
"219 177 CURVE SMOOTH",
"152 214 OFFCURVE",
"118 266 OFFCURVE",
"118 332 CURVE SMOOTH",
"118 378 OFFCURVE",
"127 425 OFFCURVE",
"144 472 CURVE",
"153 494 OFFCURVE",
"157 509 OFFCURVE",
"157 516 CURVE SMOOTH",
"157 525 OFFCURVE",
"150 530 OFFCURVE",
"135 530 CURVE SMOOTH",
"102 529 OFFCURVE",
"80 519 OFFCURVE",
"68 500 CURVE",
"43 469 OFFCURVE",
"0 356 OFFCURVE",
"0 264 CURVE SMOOTH",
"0 205 OFFCURVE",
"8 159 OFFCURVE",
"36 116 CURVE SMOOTH",
"72 61 OFFCURVE",
"132 20 OFFCURVE",
"216 -8 CURVE SMOOTH",
"317 -42 OFFCURVE",
"460 -59 OFFCURVE",
"646 -59 CURVE SMOOTH",
"966 -59 OFFCURVE",
"1263 6 OFFCURVE",
"1507 155 CURVE",
"1522 89 OFFCURVE",
"1562 45 OFFCURVE",
"1626 22 CURVE SMOOTH",
"1675 5 OFFCURVE",
"1731 0 OFFCURVE",
"1802 0 CURVE SMOOTH",
"1858 0 OFFCURVE",
"1887 19 OFFCURVE",
"1887 72 CURVE SMOOTH",
"1887 81 LINE SMOOTH",
"1887 134 OFFCURVE",
"1875 155 OFFCURVE",
"1839 155 CURVE SMOOTH",
"1684 155 OFFCURVE",
"1625 196 OFFCURVE",
"1625 284 CURVE SMOOTH",
"1625 317 OFFCURVE",
"1636 357 OFFCURVE",
"1651 385 CURVE",
"1656 393 OFFCURVE",
"1658 401 OFFCURVE",
"1658 410 CURVE SMOOTH",
"1658 421 OFFCURVE",
"1655 424 OFFCURVE",
"1636 424 CURVE SMOOTH",
"1627 424 OFFCURVE",
"1615 422 OFFCURVE",
"1598 419 CURVE",
"1567 412 OFFCURVE",
"1542 390 OFFCURVE",
"1522 354 CURVE"
);
},
{
closed = 1;
nodes = (
"753 894 OFFCURVE",
"732 880 OFFCURVE",
"703 853 CURVE SMOOTH",
"680 832 OFFCURVE",
"662 804 OFFCURVE",
"662 793 CURVE SMOOTH",
"662 788 OFFCURVE",
"668 780 OFFCURVE",
"679 771 CURVE",
"702 754 OFFCURVE",
"722 734 OFFCURVE",
"739 712 CURVE SMOOTH",
"747 702 OFFCURVE",
"754 697 OFFCURVE",
"760 697 CURVE SMOOTH",
"767 697 OFFCURVE",
"774 701 OFFCURVE",
"779 708 CURVE",
"782 713 OFFCURVE",
"794 723 OFFCURVE",
"813 739 CURVE",
"816 742 OFFCURVE",
"821 747 OFFCURVE",
"829 755 CURVE SMOOTH",
"845 771 OFFCURVE",
"863 790 OFFCURVE",
"863 799 CURVE SMOOTH",
"863 811 OFFCURVE",
"846 838 OFFCURVE",
"827 857 CURVE SMOOTH",
"802 882 OFFCURVE",
"782 894 OFFCURVE",
"766 894 CURVE SMOOTH"
);
},
{
closed = 1;
nodes = (
"993 894 OFFCURVE",
"972 880 OFFCURVE",
"945 853 CURVE SMOOTH",
"922 830 OFFCURVE",
"904 804 OFFCURVE",
"904 793 CURVE SMOOTH",
"904 788 OFFCURVE",
"910 780 OFFCURVE",
"921 771 CURVE SMOOTH",
"942 755 OFFCURVE",
"961 735 OFFCURVE",
"980 712 CURVE SMOOTH",
"988 702 OFFCURVE",
"995 697 OFFCURVE",
"1001 697 CURVE SMOOTH",
"1008 697 OFFCURVE",
"1015 701 OFFCURVE",
"1021 708 CURVE",
"1024 713 OFFCURVE",
"1036 723 OFFCURVE",
"1055 739 CURVE",
"1088 773 LINE SMOOTH",
"1099 784 OFFCURVE",
"1105 793 OFFCURVE",
"1105 799 CURVE SMOOTH",
"1105 811 OFFCURVE",
"1088 838 OFFCURVE",
"1068 857 CURVE SMOOTH",
"1043 882 OFFCURVE",
"1023 894 OFFCURVE",
"1007 894 CURVE SMOOTH"
);
}
);
width = 1819;
}
);
note = uniFE96;
unicode = FE96;
},
{
glyphname = uni062B;
lastChange = "2017-05-01 10:57:08 +0000";
layers = (
{
layerId = "9BAC860F-5151-470B-96DF-6D043347F519";
paths = (
{
closed = 1;
nodes = (
"0 156 OFFCURVE",
"39 76 OFFCURVE",
"127 21 CURVE SMOOTH",
"219 -35 OFFCURVE",
"364 -63 OFFCURVE",
"581 -63 CURVE SMOOTH",
"829 -63 OFFCURVE",
"1020 -50 OFFCURVE",
"1173 -2 CURVE SMOOTH",
"1352 54 OFFCURVE",
"1455 155 OFFCURVE",
"1455 326 CURVE SMOOTH",
"1455 422 OFFCURVE",
"1411 616 OFFCURVE",
"1366 641 CURVE SMOOTH",
"1357 646 OFFCURVE",
"1347 640 OFFCURVE",
"1334 624 CURVE SMOOTH",
"1309 591 OFFCURVE",
"1281 535 OFFCURVE",
"1273 510 CURVE SMOOTH",
"1271 504 OFFCURVE",
"1270 498 OFFCURVE",
"1270 493 CURVE SMOOTH",
"1270 484 OFFCURVE",
"1273 476 OFFCURVE",
"1278 467 CURVE",
"1315 406 OFFCURVE",
"1345 326 OFFCURVE",
"1345 282 CURVE SMOOTH",
"1345 230 OFFCURVE",
"1301 184 OFFCURVE",
"1205 151 CURVE SMOOTH",
"1098 114 OFFCURVE",
"931 95 OFFCURVE",
"702 95 CURVE SMOOTH",
"483 95 OFFCURVE",
"339 112 OFFCURVE",
"248 148 CURVE SMOOTH",
"157 184 OFFCURVE",
"118 243 OFFCURVE",
"118 332 CURVE SMOOTH",
"118 378 OFFCURVE",
"127 425 OFFCURVE",
"144 472 CURVE",
"153 494 OFFCURVE",
"157 509 OFFCURVE",
"157 516 CURVE SMOOTH",
"157 525 OFFCURVE",
"150 530 OFFCURVE",
"135 530 CURVE SMOOTH",
"102 529 OFFCURVE",
"80 519 OFFCURVE",
"68 500 CURVE",
"43 469 OFFCURVE",
"0 356 OFFCURVE",
"0 264 CURVE SMOOTH"
);
},
{
closed = 1;
nodes = (
"593 894 OFFCURVE",
"572 880 OFFCURVE",
"545 853 CURVE SMOOTH",
"522 830 OFFCURVE",
"503 804 OFFCURVE",
"503 793 CURVE SMOOTH",
"503 788 OFFCURVE",
"509 780 OFFCURVE",
"520 771 CURVE",
"541 756 OFFCURVE",
"561 736 OFFCURVE",
"580 712 CURVE SMOOTH",
"588 702 OFFCURVE",
"595 697 OFFCURVE",
"602 697 CURVE SMOOTH",
"609 697 OFFCURVE",
"615 701 OFFCURVE",
"621 708 CURVE",
"624 713 OFFCURVE",
"636 723 OFFCURVE",
"655 739 CURVE",
"661 746 OFFCURVE",
"672 758 OFFCURVE",
"687 773 CURVE SMOOTH",
"698 784 OFFCURVE",
"704 793 OFFCURVE",
"704 799 CURVE SMOOTH",
"704 805 OFFCURVE",
"700 814 OFFCURVE",
"693 826 CURVE",
"678 849 OFFCURVE",
"638 894 OFFCURVE",
"607 894 CURVE SMOOTH"
);
},
{
closed = 1;
nodes = (
"836 894 OFFCURVE",
"809 876 OFFCURVE",
"786 853 CURVE SMOOTH",
"763 830 OFFCURVE",
"745 804 OFFCURVE",
"745 793 CURVE SMOOTH",
"745 788 OFFCURVE",
"751 780 OFFCURVE",
"762 771 CURVE",
"785 754 OFFCURVE",
"805 734 OFFCURVE",
"822 712 CURVE SMOOTH",
"830 702 OFFCURVE",
"837 697 OFFCURVE",
"843 697 CURVE SMOOTH",
"850 697 OFFCURVE",
"857 701 OFFCURVE",
"863 708 CURVE SMOOTH",
"868 714 OFFCURVE",
"879 724 OFFCURVE",
"896 739 CURVE",
"929 773 LINE",
"941 784 OFFCURVE",
"947 793 OFFCURVE",
"947 799 CURVE SMOOTH",
"947 811 OFFCURVE",
"930 837 OFFCURVE",
"910 857 CURVE SMOOTH",
"885 882 OFFCURVE",
"865 894 OFFCURVE",
"848 894 CURVE SMOOTH"
);
},
{
closed = 1;
nodes = (
"718 1118 OFFCURVE",
"691 1099 OFFCURVE",
"668 1076 CURVE SMOOTH",
"645 1053 OFFCURVE",
"627 1027 OFFCURVE",
"627 1016 CURVE SMOOTH",
"627 1010 OFFCURVE",
"633 1003 OFFCURVE",
"644 995 CURVE SMOOTH",
"665 979 OFFCURVE",
"685 959 OFFCURVE",
"704 935 CURVE SMOOTH",
"712 925 OFFCURVE",
"719 920 OFFCURVE",
"725 920 CURVE SMOOTH",
"732 920 OFFCURVE",
"739 923 OFFCURVE",
"745 930 CURVE",
"750 937 OFFCURVE",
"761 948 OFFCURVE",
"778 963 CURVE",
"781 966 OFFCURVE",
"786 971 OFFCURVE",
"795 979 CURVE SMOOTH",
"811 994 OFFCURVE",
"829 1013 OFFCURVE",
"829 1022 CURVE SMOOTH",
"829 1028 OFFCURVE",
"825 1037 OFFCURVE",
"818 1048 CURVE SMOOTH",
"803 1071 OFFCURVE",
"763 1118 OFFCURVE",
"730 1118 CURVE SMOOTH"
);
}
);
width = 1596;
}
);
note = uni062B;
unicode = 062B;
},
{
glyphname = uniFE9B;
lastChange = "2017-05-01 10:57:08 +0000";
layers = (
{
layerId = "9BAC860F-5151-470B-96DF-6D043347F519";
paths = (
{
closed = 1;
nodes = (
"191 406 OFFCURVE",
"220 326 OFFCURVE",
"220 282 CURVE SMOOTH",
"220 247 OFFCURVE",
"207 219 OFFCURVE",
"180 198 CURVE SMOOTH",
"145 169 OFFCURVE",
"92 155 OFFCURVE",
"20 155 CURVE SMOOTH",
"-32 155 OFFCURVE",
"-65 130 OFFCURVE",
"-65 81 CURVE SMOOTH",
"-65 70 LINE SMOOTH",
"-65 25 OFFCURVE",
"-44 0 OFFCURVE",
"-17 0 CURVE SMOOTH",
"56 0 OFFCURVE",
"119 13 OFFCURVE",
"172 40 CURVE SMOOTH",
"276 92 OFFCURVE",
"331 193 OFFCURVE",
"331 326 CURVE SMOOTH",
"331 427 OFFCURVE",
"287 642 OFFCURVE",
"236 642 CURVE SMOOTH",
"227 642 OFFCURVE",
"215 632 OFFCURVE",
"201 613 CURVE SMOOTH",
"173 573 OFFCURVE",
"148 516 OFFCURVE",
"148 493 CURVE SMOOTH",
"148 483 OFFCURVE",
"150 474 OFFCURVE",
"155 467 CURVE"
);
},
{
closed = 1;
nodes = (
"64 1077 OFFCURVE",
"43 1063 OFFCURVE",
"15 1035 CURVE",
"-8 1014 OFFCURVE",
"-25 986 OFFCURVE",
"-25 975 CURVE SMOOTH",
"-25 970 OFFCURVE",
"-19 962 OFFCURVE",
"-8 953 CURVE SMOOTH",
"14 936 OFFCURVE",
"34 916 OFFCURVE",
"51 895 CURVE SMOOTH",
"59 885 OFFCURVE",
"66 880 OFFCURVE",
"72 880 CURVE SMOOTH",
"81 880 OFFCURVE",
"87 883 OFFCURVE",
"92 890 CURVE",
"95 893 OFFCURVE",
"106 904 OFFCURVE",
"126 922 CURVE",
"132 929 OFFCURVE",
"143 940 OFFCURVE",
"158 955 CURVE SMOOTH",
"169 966 OFFCURVE",
"175 975 OFFCURVE",
"175 982 CURVE SMOOTH",
"175 994 OFFCURVE",
"158 1021 OFFCURVE",
"139 1040 CURVE SMOOTH",
"114 1065 OFFCURVE",
"94 1077 OFFCURVE",
"77 1077 CURVE SMOOTH"
);
},
{
closed = 1;
nodes = (
"307 1077 OFFCURVE",
"286 1063 OFFCURVE",
"257 1035 CURVE SMOOTH",
"234 1014 OFFCURVE",
"216 986 OFFCURVE",
"216 975 CURVE SMOOTH",
"216 970 OFFCURVE",
"222 962 OFFCURVE",
"233 953 CURVE SMOOTH",
"257 934 OFFCURVE",
"277 915 OFFCURVE",
"293 895 CURVE",
"300 885 OFFCURVE",
"307 880 OFFCURVE",
"314 880 CURVE SMOOTH",
"322 880 OFFCURVE",
"328 883 OFFCURVE",
"333 890 CURVE",
"336 893 OFFCURVE",
"347 904 OFFCURVE",
"367 922 CURVE",
"370 925 OFFCURVE",
"376 931 OFFCURVE",
"384 939 CURVE SMOOTH",
"400 955 OFFCURVE",
"417 973 OFFCURVE",
"417 982 CURVE SMOOTH",
"417 987 OFFCURVE",
"413 996 OFFCURVE",
"406 1009 CURVE",
"386 1040 OFFCURVE",
"348 1077 OFFCURVE",
"320 1077 CURVE SMOOTH"
);
},
{
closed = 1;
nodes = (
"188 1300 OFFCURVE",
"167 1286 OFFCURVE",
"139 1258 CURVE SMOOTH",
"118 1237 OFFCURVE",
"98 1208 OFFCURVE",
"98 1199 CURVE SMOOTH",
"98 1194 OFFCURVE",
"104 1186 OFFCURVE",
"115 1177 CURVE",
"135 1162 OFFCURVE",
"155 1142 OFFCURVE",
"175 1118 CURVE",
"182 1108 OFFCURVE",
"189 1103 OFFCURVE",
"195 1103 CURVE SMOOTH",
"204 1103 OFFCURVE",
"210 1106 OFFCURVE",
"215 1113 CURVE",
"219 1118 OFFCURVE",
"230 1129 OFFCURVE",
"249 1146 CURVE",
"266 1163 OFFCURVE",
"279 1175 OFFCURVE",
"287 1184 CURVE",
"295 1192 OFFCURVE",
"299 1199 OFFCURVE",
"299 1204 CURVE SMOOTH",
"299 1211 OFFCURVE",
"295 1220 OFFCURVE",
"288 1231 CURVE SMOOTH",
"268 1262 OFFCURVE",
"230 1300 OFFCURVE",
"202 1300 CURVE SMOOTH"
);
}
);
width = 471;
}
);
note = uniFE9B;
unicode = FE9B;
},
{
glyphname = uniFE9C;
lastChange = "2017-05-01 10:57:08 +0000";
layers = (
{
layerId = "9BAC860F-5151-470B-96DF-6D043347F519";
paths = (
{
closed = 1;
nodes = (
"616 134 OFFCURVE",
"603 155 OFFCURVE",
"567 155 CURVE SMOOTH",
"412 155 OFFCURVE",
"354 196 OFFCURVE",
"354 284 CURVE SMOOTH",
"354 319 OFFCURVE",
"365 358 OFFCURVE",
"380 385 CURVE",
"385 393 OFFCURVE",
"387 401 OFFCURVE",
"387 410 CURVE SMOOTH",
"387 421 OFFCURVE",
"384 424 OFFCURVE",
"365 424 CURVE SMOOTH",
"357 424 OFFCURVE",
"344 422 OFFCURVE",
"326 419 CURVE",
"295 412 OFFCURVE",
"270 390 OFFCURVE",
"250 354 CURVE",
"235 315 OFFCURVE",
"224 286 OFFCURVE",
"219 267 CURVE",
"212 244 OFFCURVE",
"202 223 OFFCURVE",
"188 204 CURVE",
"159 169 OFFCURVE",
"113 155 OFFCURVE",
"20 155 CURVE SMOOTH",
"-32 155 OFFCURVE",
"-65 130 OFFCURVE",
"-65 81 CURVE SMOOTH",
"-65 70 LINE SMOOTH",
"-65 25 OFFCURVE",
"-44 0 OFFCURVE",
"-17 0 CURVE SMOOTH",
"87 0 OFFCURVE",
"154 10 OFFCURVE",
"198 34 CURVE",
"241 55 OFFCURVE",
"269 88 OFFCURVE",
"298 140 CURVE",
"306 83 OFFCURVE",
"334 48 OFFCURVE",
"379 27 CURVE SMOOTH",
"416 9 OFFCURVE",
"466 0 OFFCURVE",
"531 0 CURVE SMOOTH",
"587 0 OFFCURVE",
"616 19 OFFCURVE",
"616 72 CURVE SMOOTH",
"616 81 LINE SMOOTH"
);
},
{
closed = 1;
nodes = (
"150 894 OFFCURVE",
"129 880 OFFCURVE",
"102 853 CURVE SMOOTH",
"79 830 OFFCURVE",
"60 804 OFFCURVE",
"60 793 CURVE SMOOTH",
"60 788 OFFCURVE",
"66 780 OFFCURVE",
"77 771 CURVE",
"98 756 OFFCURVE",
"118 736 OFFCURVE",
"137 712 CURVE SMOOTH",
"145 702 OFFCURVE",
"152 697 OFFCURVE",
"158 697 CURVE SMOOTH",
"165 697 OFFCURVE",
"172 701 OFFCURVE",
"178 708 CURVE SMOOTH",
"183 714 OFFCURVE",
"194 724 OFFCURVE",
"211 739 CURVE",
"214 742 OFFCURVE",
"219 747 OFFCURVE",
"227 755 CURVE SMOOTH",
"243 771 OFFCURVE",
"261 790 OFFCURVE",
"261 799 CURVE SMOOTH",
"261 811 OFFCURVE",
"244 838 OFFCURVE",
"225 857 CURVE SMOOTH",
"200 882 OFFCURVE",
"180 894 OFFCURVE",
"164 894 CURVE SMOOTH"
);
},
{
closed = 1;
nodes = (
"391 894 OFFCURVE",
"370 880 OFFCURVE",
"343 853 CURVE SMOOTH",
"320 830 OFFCURVE",
"302 804 OFFCURVE",
"302 793 CURVE SMOOTH",
"302 788 OFFCURVE",
"308 780 OFFCURVE",
"319 771 CURVE SMOOTH",
"338 756 OFFCURVE",
"358 737 OFFCURVE",
"379 712 CURVE SMOOTH",
"387 702 OFFCURVE",
"394 697 OFFCURVE",
"400 697 CURVE SMOOTH",
"407 697 OFFCURVE",
"414 701 OFFCURVE",
"420 708 CURVE SMOOTH",
"425 714 OFFCURVE",
"436 724 OFFCURVE",
"453 739 CURVE",
"486 773 LINE SMOOTH",
"497 784 OFFCURVE",
"503 793 OFFCURVE",
"503 799 CURVE SMOOTH",
"503 811 OFFCURVE",
"486 838 OFFCURVE",
"466 857 CURVE SMOOTH",
"441 882 OFFCURVE",
"421 894 OFFCURVE",
"405 894 CURVE SMOOTH"
);
},
{
closed = 1;
nodes = (
"274 1118 OFFCURVE",
"253 1104 OFFCURVE",
"225 1076 CURVE SMOOTH",
"202 1053 OFFCURVE",
"184 1027 OFFCURVE",
"184 1016 CURVE SMOOTH",
"184 1010 OFFCURVE",
"190 1003 OFFCURVE",
"201 995 CURVE SMOOTH",
"218 982 OFFCURVE",
"238 962 OFFCURVE",
"261 935 CURVE SMOOTH",
"269 925 OFFCURVE",
"276 920 OFFCURVE",
"282 920 CURVE SMOOTH",
"289 920 OFFCURVE",
"296 923 OFFCURVE",
"302 930 CURVE",
"307 937 OFFCURVE",
"318 948 OFFCURVE",
"335 963 CURVE SMOOTH",
"352 979 OFFCURVE",
"365 992 OFFCURVE",
"373 1001 CURVE SMOOTH",
"381 1010 OFFCURVE",
"385 1017 OFFCURVE",
"385 1022 CURVE SMOOTH",
"385 1027 OFFCURVE",
"381 1036 OFFCURVE",
"374 1049 CURVE",
"354 1080 OFFCURVE",
"315 1118 OFFCURVE",
"287 1118 CURVE SMOOTH"
);
}
);
width = 547;
}
);
note = uniFE9C;
unicode = FE9C;
},
{
glyphname = uniFE9A;
lastChange = "2017-05-01 10:57:08 +0000";
layers = (
{
layerId = "9BAC860F-5151-470B-96DF-6D043347F519";
paths = (
{
closed = 1;
nodes = (
"1491 291 OFFCURVE",
"1382 231 OFFCURVE",
"1225 182 CURVE SMOOTH",
"1069 133 OFFCURVE",
"874 104 OFFCURVE",
"681 104 CURVE SMOOTH",
"460 104 OFFCURVE",
"306 128 OFFCURVE",
"219 177 CURVE SMOOTH",
"152 214 OFFCURVE",
"118 266 OFFCURVE",
"118 332 CURVE SMOOTH",
"118 378 OFFCURVE",
"127 425 OFFCURVE",
"144 472 CURVE",
"153 494 OFFCURVE",
"157 509 OFFCURVE",
"157 516 CURVE SMOOTH",
"157 525 OFFCURVE",
"150 530 OFFCURVE",
"135 530 CURVE SMOOTH",
"102 529 OFFCURVE",
"80 519 OFFCURVE",
"68 500 CURVE",
"43 469 OFFCURVE",
"0 356 OFFCURVE",
"0 264 CURVE SMOOTH",
"0 205 OFFCURVE",
"8 159 OFFCURVE",
"36 116 CURVE SMOOTH",
"72 61 OFFCURVE",
"132 20 OFFCURVE",
"216 -8 CURVE SMOOTH",
"317 -42 OFFCURVE",
"460 -59 OFFCURVE",
"646 -59 CURVE SMOOTH",
"966 -59 OFFCURVE",
"1263 6 OFFCURVE",
"1507 155 CURVE",
"1522 89 OFFCURVE",
"1562 45 OFFCURVE",
"1626 22 CURVE SMOOTH",
"1675 5 OFFCURVE",
"1731 0 OFFCURVE",
"1802 0 CURVE SMOOTH",
"1858 0 OFFCURVE",
"1887 19 OFFCURVE",
"1887 72 CURVE SMOOTH",
"1887 81 LINE SMOOTH",
"1887 134 OFFCURVE",
"1875 155 OFFCURVE",
"1839 155 CURVE SMOOTH",
"1684 155 OFFCURVE",
"1625 196 OFFCURVE",
"1625 284 CURVE SMOOTH",
"1625 317 OFFCURVE",
"1636 357 OFFCURVE",
"1651 385 CURVE",
"1656 393 OFFCURVE",
"1658 401 OFFCURVE",
"1658 410 CURVE SMOOTH",
"1658 421 OFFCURVE",
"1655 424 OFFCURVE",
"1636 424 CURVE SMOOTH",
"1627 424 OFFCURVE",
"1615 422 OFFCURVE",
"1598 419 CURVE",
"1567 412 OFFCURVE",
"1542 390 OFFCURVE",
"1522 354 CURVE"
);
},
{
closed = 1;
nodes = (
"683 894 OFFCURVE",
"662 880 OFFCURVE",
"635 853 CURVE SMOOTH",
"612 830 OFFCURVE",
"594 804 OFFCURVE",
"594 793 CURVE SMOOTH",
"594 788 OFFCURVE",
"600 780 OFFCURVE",
"611 771 CURVE SMOOTH",
"630 756 OFFCURVE",
"650 737 OFFCURVE",
"671 712 CURVE SMOOTH",
"679 702 OFFCURVE",
"686 697 OFFCURVE",
"692 697 CURVE SMOOTH",
"699 697 OFFCURVE",
"705 701 OFFCURVE",
"711 708 CURVE SMOOTH",
"717 715 OFFCURVE",
"728 725 OFFCURVE",
"745 739 CURVE",
"778 773 LINE SMOOTH",
"789 784 OFFCURVE",
"795 793 OFFCURVE",
"795 799 CURVE SMOOTH",
"795 811 OFFCURVE",
"778 838 OFFCURVE",
"758 857 CURVE SMOOTH",
"733 882 OFFCURVE",
"713 894 OFFCURVE",
"697 894 CURVE SMOOTH"
);
},
{
closed = 1;
nodes = (
"926 894 OFFCURVE",
"900 877 OFFCURVE",
"876 853 CURVE",
"853 832 OFFCURVE",
"836 805 OFFCURVE",
"836 793 CURVE SMOOTH",
"836 788 OFFCURVE",
"842 780 OFFCURVE",
"853 771 CURVE SMOOTH",
"874 755 OFFCURVE",
"893 735 OFFCURVE",
"912 712 CURVE SMOOTH",
"920 702 OFFCURVE",
"927 697 OFFCURVE",
"933 697 CURVE SMOOTH",
"941 697 OFFCURVE",
"948 701 OFFCURVE",
"953 708 CURVE",
"956 713 OFFCURVE",
"968 723 OFFCURVE",
"987 739 CURVE",
"993 746 OFFCURVE",
"1004 758 OFFCURVE",
"1019 773 CURVE",
"1031 784 OFFCURVE",
"1037 793 OFFCURVE",
"1037 799 CURVE SMOOTH",
"1037 811 OFFCURVE",
"1020 837 OFFCURVE",
"1000 857 CURVE SMOOTH",
"975 882 OFFCURVE",
"955 894 OFFCURVE",
"938 894 CURVE SMOOTH"
);
},
{
closed = 1;
nodes = (
"808 1118 OFFCURVE",
"787 1104 OFFCURVE",
"758 1076 CURVE SMOOTH",
"735 1055 OFFCURVE",
"718 1028 OFFCURVE",
"718 1016 CURVE SMOOTH",
"718 1010 OFFCURVE",
"724 1003 OFFCURVE",
"735 995 CURVE",
"754 980 OFFCURVE",
"774 960 OFFCURVE",
"794 935 CURVE SMOOTH",
"802 925 OFFCURVE",
"809 920 OFFCURVE",
"815 920 CURVE SMOOTH",
"824 920 OFFCURVE",
"830 923 OFFCURVE",
"835 930 CURVE",
"839 935 OFFCURVE",
"850 946 OFFCURVE",
"869 963 CURVE SMOOTH",
"886 979 OFFCURVE",
"899 992 OFFCURVE",
"907 1001 CURVE SMOOTH",
"915 1010 OFFCURVE",
"919 1017 OFFCURVE",
"919 1022 CURVE SMOOTH",
"919 1028 OFFCURVE",
"915 1037 OFFCURVE",
"908 1048 CURVE SMOOTH",
"893 1071 OFFCURVE",
"853 1118 OFFCURVE",
"820 1118 CURVE SMOOTH"
);
}
);
width = 1819;
}
);
note = uniFE9A;
unicode = FE9A;
},
{
glyphname = uni062C;
lastChange = "2017-05-01 10:57:08 +0000";
layers = (
{
layerId = "9BAC860F-5151-470B-96DF-6D043347F519";
paths = (
{
closed = 1;
nodes = (
"658 -203 OFFCURVE",
"637 -217 OFFCURVE",
"609 -245 CURVE SMOOTH",
"588 -266 OFFCURVE",
"568 -295 OFFCURVE",
"568 -304 CURVE SMOOTH",
"568 -309 OFFCURVE",
"574 -317 OFFCURVE",
"585 -326 CURVE SMOOTH",
"601 -339 OFFCURVE",
"621 -358 OFFCURVE",
"645 -385 CURVE",
"653 -395 OFFCURVE",
"660 -400 OFFCURVE",
"666 -400 CURVE SMOOTH",
"674 -400 OFFCURVE",
"680 -397 OFFCURVE",
"685 -390 CURVE",
"688 -385 OFFCURVE",
"700 -375 OFFCURVE",
"720 -358 CURVE",
"726 -351 OFFCURVE",
"737 -340 OFFCURVE",
"752 -325 CURVE SMOOTH",
"763 -314 OFFCURVE",
"769 -305 OFFCURVE",
"769 -299 CURVE SMOOTH",
"769 -287 OFFCURVE",
"752 -260 OFFCURVE",
"732 -240 CURVE",
"711 -217 OFFCURVE",
"687 -203 OFFCURVE",
"671 -203 CURVE SMOOTH"
);
},
{
closed = 1;
nodes = (
"878 306 OFFCURVE",
"905 311 OFFCURVE",
"919 321 CURVE SMOOTH",
"944 338 OFFCURVE",
"966 400 OFFCURVE",
"966 424 CURVE SMOOTH",
"966 434 OFFCURVE",
"962 440 OFFCURVE",
"955 442 CURVE SMOOTH",
"947 444 OFFCURVE",
"934 445 OFFCURVE",
"917 445 CURVE SMOOTH",
"904 445 OFFCURVE",
"888 444 OFFCURVE",
"868 442 CURVE SMOOTH",
"848 440 OFFCURVE",
"820 439 OFFCURVE",
"785 439 CURVE SMOOTH",
"721 439 OFFCURVE",
"629 457 OFFCURVE",
"500 486 CURVE SMOOTH",
"473 492 LINE SMOOTH",
"410 506 OFFCURVE",
"360 516 OFFCURVE",
"324 523 CURVE SMOOTH",
"288 530 OFFCURVE",
"259 533 OFFCURVE",
"238 533 CURVE SMOOTH",
"179 533 OFFCURVE",
"146 518 OFFCURVE",
"107 470 CURVE SMOOTH",
"87 446 OFFCURVE",
"65 405 OFFCURVE",
"65 393 CURVE SMOOTH",
"65 384 OFFCURVE",
"75 380 OFFCURVE",
"94 380 CURVE SMOOTH",
"107 380 OFFCURVE",
"123 381 OFFCURVE",
"142 383 CURVE",
"166 384 OFFCURVE",
"186 385 OFFCURVE",
"203 385 CURVE SMOOTH",
"252 385 OFFCURVE",
"303 381 OFFCURVE",
"357 372 CURVE SMOOTH",
"405 364 OFFCURVE",
"453 352 OFFCURVE",
"474 343 CURVE",
"370 303 OFFCURVE",
"254 227 OFFCURVE",
"165 124 CURVE SMOOTH",
"64 7 OFFCURVE",
"0 -143 OFFCURVE",
"0 -322 CURVE SMOOTH",
"0 -523 OFFCURVE",
"75 -678 OFFCURVE",
"203 -779 CURVE SMOOTH",
"322 -874 OFFCURVE",
"481 -922 OFFCURVE",
"648 -922 CURVE SMOOTH",
"799 -922 OFFCURVE",
"901 -886 OFFCURVE",
"972 -797 CURVE",
"995 -766 OFFCURVE",
"1007 -747 OFFCURVE",
"1007 -738 CURVE SMOOTH",
"1007 -733 OFFCURVE",
"1005 -730 OFFCURVE",
"1000 -730 CURVE SMOOTH",
"992 -730 OFFCURVE",
"981 -733 OFFCURVE",
"967 -738 CURVE",
"954 -744 OFFCURVE",
"937 -750 OFFCURVE",
"914 -756 CURVE SMOOTH",
"854 -773 OFFCURVE",
"786 -782 OFFCURVE",
"710 -782 CURVE SMOOTH",
"535 -782 OFFCURVE",
"389 -732 OFFCURVE",
"289 -641 CURVE SMOOTH",
"189 -553 OFFCURVE",
"135 -429 OFFCURVE",
"135 -285 CURVE SMOOTH",
"135 -114 OFFCURVE",
"203 32 OFFCURVE",
"327 139 CURVE SMOOTH",
"452 247 OFFCURVE",
"626 306 OFFCURVE",
"838 306 CURVE SMOOTH"
);
}
);
width = 1107;
}
);
note = uni062C;
unicode = 062C;
},
{
glyphname = uniFE9F;
lastChange = "2017-05-01 10:57:08 +0000";
layers = (
{
layerId = "9BAC860F-5151-470B-96DF-6D043347F519";
paths = (
{
closed = 1;
nodes = (
"841 472 OFFCURVE",
"698 510 OFFCURVE",
"449 599 CURVE SMOOTH",
"404 615 OFFCURVE",
"361 623 OFFCURVE",
"320 623 CURVE SMOOTH",
"292 623 OFFCURVE",
"269 619 OFFCURVE",
"251 611 CURVE SMOOTH",
"215 594 OFFCURVE",
"167 513 OFFCURVE",
"167 484 CURVE SMOOTH",
"167 475 OFFCURVE",
"175 470 OFFCURVE",
"192 470 CURVE SMOOTH",
"202 470 OFFCURVE",
"218 471 OFFCURVE",
"239 473 CURVE SMOOTH",
"259 475 OFFCURVE",
"284 476 OFFCURVE",
"315 476 CURVE SMOOTH",
"387 476 OFFCURVE",
"492 443 OFFCURVE",
"665 378 CURVE",
"624 357 OFFCURVE",
"584 334 OFFCURVE",
"547 307 CURVE SMOOTH",
"510 281 OFFCURVE",
"470 257 OFFCURVE",
"427 236 CURVE SMOOTH",
"327 187 OFFCURVE",
"206 158 OFFCURVE",
"18 155 CURVE SMOOTH",
"-34 155 OFFCURVE",
"-65 132 OFFCURVE",
"-65 81 CURVE SMOOTH",
"-65 70 LINE SMOOTH",
"-65 25 OFFCURVE",
"-44 0 OFFCURVE",
"-17 0 CURVE SMOOTH",
"146 0 OFFCURVE",
"261 19 OFFCURVE",
"362 58 CURVE SMOOTH",
"450 91 OFFCURVE",
"521 135 OFFCURVE",
"630 214 CURVE SMOOTH",
"761 306 OFFCURVE",
"839 338 OFFCURVE",
"938 338 CURVE SMOOTH",
"979 338 OFFCURVE",
"1023 336 OFFCURVE",
"1040 372 CURVE",
"1051 393 OFFCURVE",
"1065 433 OFFCURVE",
"1065 452 CURVE SMOOTH",
"1065 462 OFFCURVE",
"1061 468 OFFCURVE",
"1054 470 CURVE",
"1043 471 OFFCURVE",
"1031 472 OFFCURVE",
"1016 472 CURVE SMOOTH"
);
},
{
closed = 1;
nodes = (
"501 -203 OFFCURVE",
"480 -217 OFFCURVE",
"452 -245 CURVE SMOOTH",
"431 -266 OFFCURVE",
"411 -295 OFFCURVE",
"411 -304 CURVE SMOOTH",
"411 -309 OFFCURVE",
"417 -317 OFFCURVE",
"428 -326 CURVE SMOOTH",
"446 -341 OFFCURVE",
"466 -360 OFFCURVE",
"488 -385 CURVE",
"496 -395 OFFCURVE",
"503 -400 OFFCURVE",
"509 -400 CURVE SMOOTH",
"516 -400 OFFCURVE",
"522 -397 OFFCURVE",
"528 -390 CURVE",
"533 -385 OFFCURVE",
"544 -374 OFFCURVE",
"562 -358 CURVE",
"565 -355 OFFCURVE",
"571 -349 OFFCURVE",
"580 -341 CURVE",
"596 -325 OFFCURVE",
"612 -308 OFFCURVE",
"612 -299 CURVE SMOOTH",
"612 -287 OFFCURVE",
"595 -260 OFFCURVE",
"575 -240 CURVE SMOOTH",
"552 -217 OFFCURVE",
"529 -203 OFFCURVE",
"514 -203 CURVE SMOOTH"
);
}
);
width = 1205;
}
);
note = uniFE9F;
unicode = FE9F;
},
{
glyphname = uniFEA0;
lastChange = "2017-05-01 10:57:08 +0000";
layers = (
{
layerId = "9BAC860F-5151-470B-96DF-6D043347F519";
paths = (
{
closed = 1;
nodes = (
"841 472 OFFCURVE",
"698 510 OFFCURVE",
"449 599 CURVE SMOOTH",
"404 615 OFFCURVE",
"361 623 OFFCURVE",
"320 623 CURVE SMOOTH",
"292 623 OFFCURVE",
"269 619 OFFCURVE",
"251 611 CURVE SMOOTH",
"215 594 OFFCURVE",
"167 513 OFFCURVE",
"167 484 CURVE SMOOTH",
"167 475 OFFCURVE",
"175 470 OFFCURVE",
"192 470 CURVE SMOOTH",
"202 470 OFFCURVE",
"218 471 OFFCURVE",
"239 473 CURVE SMOOTH",
"259 475 OFFCURVE",
"284 476 OFFCURVE",
"315 476 CURVE SMOOTH",
"387 476 OFFCURVE",
"492 443 OFFCURVE",
"665 378 CURVE",
"624 357 OFFCURVE",
"584 334 OFFCURVE",
"547 307 CURVE SMOOTH",
"510 281 OFFCURVE",
"470 257 OFFCURVE",
"427 236 CURVE SMOOTH",
"327 187 OFFCURVE",
"206 158 OFFCURVE",
"18 155 CURVE SMOOTH",
"-34 155 OFFCURVE",
"-65 132 OFFCURVE",
"-65 81 CURVE SMOOTH",
"-65 70 LINE SMOOTH",
"-65 25 OFFCURVE",
"-44 0 OFFCURVE",
"-17 0 CURVE SMOOTH",
"146 0 OFFCURVE",
"261 19 OFFCURVE",
"362 58 CURVE SMOOTH",
"450 91 OFFCURVE",
"521 135 OFFCURVE",
"630 214 CURVE",
"727 279 OFFCURVE",
"792 313 OFFCURVE",
"855 329 CURVE",
"842 289 OFFCURVE",
"828 222 OFFCURVE",
"828 174 CURVE SMOOTH",
"828 71 OFFCURVE",
"900 0 OFFCURVE",
"1095 0 CURVE SMOOTH",
"1151 0 OFFCURVE",
"1180 19 OFFCURVE",
"1180 72 CURVE SMOOTH",
"1180 81 LINE SMOOTH",
"1180 134 OFFCURVE",
"1168 155 OFFCURVE",
"1132 155 CURVE SMOOTH",
"1087 155 OFFCURVE",
"1051 159 OFFCURVE",
"1025 167 CURVE SMOOTH",
"973 182 OFFCURVE",
"955 211 OFFCURVE",
"955 262 CURVE SMOOTH",
"955 281 OFFCURVE",
"957 298 OFFCURVE",
"962 313 CURVE SMOOTH",
"967 328 OFFCURVE",
"969 336 OFFCURVE",
"970 338 CURVE",
"997 340 OFFCURVE",
"1015 346 OFFCURVE",
"1025 356 CURVE SMOOTH",
"1044 375 OFFCURVE",
"1065 431 OFFCURVE",
"1065 452 CURVE SMOOTH",
"1065 462 OFFCURVE",
"1061 468 OFFCURVE",
"1054 470 CURVE",
"1043 471 OFFCURVE",
"1031 472 OFFCURVE",
"1016 472 CURVE SMOOTH"
);
},
{
closed = 1;
nodes = (
"540 -203 OFFCURVE",
"519 -217 OFFCURVE",
"491 -245 CURVE SMOOTH",
"468 -268 OFFCURVE",
"449 -295 OFFCURVE",
"449 -304 CURVE SMOOTH",
"449 -309 OFFCURVE",
"455 -317 OFFCURVE",
"466 -326 CURVE SMOOTH",
"486 -342 OFFCURVE",
"506 -362 OFFCURVE",
"526 -385 CURVE",
"534 -395 OFFCURVE",
"541 -400 OFFCURVE",
"547 -400 CURVE SMOOTH",
"554 -400 OFFCURVE",
"561 -397 OFFCURVE",
"567 -390 CURVE",
"570 -387 OFFCURVE",
"581 -376 OFFCURVE",
"601 -358 CURVE",
"604 -355 OFFCURVE",
"610 -349 OFFCURVE",
"619 -341 CURVE",
"635 -325 OFFCURVE",
"651 -308 OFFCURVE",
"651 -299 CURVE SMOOTH",
"651 -287 OFFCURVE",
"634 -261 OFFCURVE",
"614 -240 CURVE SMOOTH",
"591 -217 OFFCURVE",
"568 -203 OFFCURVE",
"553 -203 CURVE SMOOTH"
);
}
);
width = 1111;
}
);
note = uniFEA0;
unicode = FEA0;
},
{
glyphname = uniFE9E;
lastChange = "2017-05-01 10:57:08 +0000";
layers = (
{
layerId = "9BAC860F-5151-470B-96DF-6D043347F519";
paths = (
{
closed = 1;
nodes = (
"878 306 OFFCURVE",
"905 311 OFFCURVE",
"919 321 CURVE SMOOTH",
"944 338 OFFCURVE",
"966 400 OFFCURVE",
"966 424 CURVE SMOOTH",
"966 434 OFFCURVE",
"962 440 OFFCURVE",
"955 442 CURVE SMOOTH",
"947 444 OFFCURVE",
"934 445 OFFCURVE",
"917 445 CURVE SMOOTH",
"904 445 OFFCURVE",
"888 444 OFFCURVE",
"868 442 CURVE SMOOTH",
"848 440 OFFCURVE",
"820 439 OFFCURVE",
"785 439 CURVE SMOOTH",
"721 439 OFFCURVE",
"629 457 OFFCURVE",
"500 486 CURVE SMOOTH",
"473 492 LINE SMOOTH",
"410 506 OFFCURVE",
"360 516 OFFCURVE",
"324 523 CURVE SMOOTH",
"288 530 OFFCURVE",
"259 533 OFFCURVE",
"238 533 CURVE SMOOTH",
"179 533 OFFCURVE",
"146 518 OFFCURVE",
"107 470 CURVE SMOOTH",
"87 446 OFFCURVE",
"65 405 OFFCURVE",
"65 393 CURVE SMOOTH",
"65 384 OFFCURVE",
"75 380 OFFCURVE",
"94 380 CURVE SMOOTH",
"107 380 OFFCURVE",
"123 381 OFFCURVE",
"142 383 CURVE",
"166 384 OFFCURVE",
"186 385 OFFCURVE",
"203 385 CURVE SMOOTH",
"252 385 OFFCURVE",
"303 381 OFFCURVE",
"357 372 CURVE SMOOTH",
"405 364 OFFCURVE",
"453 352 OFFCURVE",
"474 343 CURVE",
"370 303 OFFCURVE",
"254 227 OFFCURVE",
"165 124 CURVE SMOOTH",
"64 7 OFFCURVE",
"0 -143 OFFCURVE",
"0 -322 CURVE SMOOTH",
"0 -523 OFFCURVE",
"75 -678 OFFCURVE",
"203 -779 CURVE SMOOTH",
"322 -874 OFFCURVE",
"481 -922 OFFCURVE",
"648 -922 CURVE SMOOTH",
"799 -922 OFFCURVE",
"901 -886 OFFCURVE",
"972 -797 CURVE",
"995 -766 OFFCURVE",
"1007 -747 OFFCURVE",
"1007 -738 CURVE SMOOTH",
"1007 -733 OFFCURVE",
"1005 -730 OFFCURVE",
"1000 -730 CURVE SMOOTH",
"992 -730 OFFCURVE",
"981 -733 OFFCURVE",
"967 -738 CURVE",
"954 -744 OFFCURVE",
"937 -750 OFFCURVE",
"914 -756 CURVE SMOOTH",
"854 -773 OFFCURVE",
"786 -782 OFFCURVE",
"710 -782 CURVE SMOOTH",
"535 -782 OFFCURVE",
"389 -732 OFFCURVE",
"289 -641 CURVE SMOOTH",
"189 -553 OFFCURVE",
"135 -429 OFFCURVE",
"135 -285 CURVE SMOOTH",
"135 -132 OFFCURVE",
"191 6 OFFCURVE",
"294 109 CURVE SMOOTH",
"395 212 OFFCURVE",
"542 279 OFFCURVE",
"721 299 CURVE",
"708 247 OFFCURVE",
"702 205 OFFCURVE",
"702 174 CURVE SMOOTH",
"702 71 OFFCURVE",
"777 0 OFFCURVE",
"970 0 CURVE SMOOTH",
"1026 0 OFFCURVE",
"1055 19 OFFCURVE",
"1055 72 CURVE SMOOTH",
"1055 81 LINE SMOOTH",
"1055 134 OFFCURVE",
"1043 155 OFFCURVE",
"1007 155 CURVE SMOOTH",
"875 155 OFFCURVE",
"830 187 OFFCURVE",
"830 262 CURVE SMOOTH",
"830 279 OFFCURVE",
"833 294 OFFCURVE",
"838 306 CURVE"
);
},
{
closed = 1;
nodes = (
"658 -203 OFFCURVE",
"637 -217 OFFCURVE",
"609 -245 CURVE SMOOTH",
"588 -266 OFFCURVE",
"568 -295 OFFCURVE",
"568 -304 CURVE SMOOTH",
"568 -309 OFFCURVE",
"574 -317 OFFCURVE",
"585 -326 CURVE SMOOTH",
"601 -339 OFFCURVE",
"621 -358 OFFCURVE",
"645 -385 CURVE",
"653 -395 OFFCURVE",
"660 -400 OFFCURVE",
"666 -400 CURVE SMOOTH",
"674 -400 OFFCURVE",
"680 -397 OFFCURVE",
"685 -390 CURVE",
"688 -385 OFFCURVE",
"700 -375 OFFCURVE",
"720 -358 CURVE",
"726 -351 OFFCURVE",
"737 -340 OFFCURVE",
"752 -325 CURVE SMOOTH",
"763 -314 OFFCURVE",
"769 -305 OFFCURVE",
"769 -299 CURVE SMOOTH",
"769 -287 OFFCURVE",
"752 -260 OFFCURVE",
"732 -240 CURVE",
"711 -217 OFFCURVE",
"687 -203 OFFCURVE",
"671 -203 CURVE SMOOTH"
);
}
);
width = 987;
}
);
note = uniFE9E;
unicode = FE9E;
},
{
glyphname = uni062D;
lastChange = "2017-05-01 10:57:08 +0000";
layers = (
{
layerId = "9BAC860F-5151-470B-96DF-6D043347F519";
paths = (
{
closed = 1;
nodes = (
"878 306 OFFCURVE",
"905 311 OFFCURVE",
"919 321 CURVE SMOOTH",
"944 338 OFFCURVE",
"966 400 OFFCURVE",
"966 424 CURVE SMOOTH",
"966 434 OFFCURVE",
"962 440 OFFCURVE",
"955 442 CURVE SMOOTH",
"947 444 OFFCURVE",
"934 445 OFFCURVE",
"917 445 CURVE SMOOTH",
"904 445 OFFCURVE",
"888 444 OFFCURVE",
"868 442 CURVE SMOOTH",
"848 440 OFFCURVE",
"820 439 OFFCURVE",
"785 439 CURVE SMOOTH",
"721 439 OFFCURVE",
"629 457 OFFCURVE",
"500 486 CURVE SMOOTH",
"473 492 LINE SMOOTH",
"410 506 OFFCURVE",
"360 516 OFFCURVE",
"324 523 CURVE SMOOTH",
"288 530 OFFCURVE",
"259 533 OFFCURVE",
"238 533 CURVE SMOOTH",
"179 533 OFFCURVE",
"146 518 OFFCURVE",
"107 470 CURVE SMOOTH",
"87 446 OFFCURVE",
"65 405 OFFCURVE",
"65 393 CURVE SMOOTH",
"65 384 OFFCURVE",
"75 380 OFFCURVE",
"94 380 CURVE SMOOTH",
"107 380 OFFCURVE",
"123 381 OFFCURVE",
"142 383 CURVE",
"166 384 OFFCURVE",
"186 385 OFFCURVE",
"203 385 CURVE SMOOTH",
"252 385 OFFCURVE",
"303 381 OFFCURVE",
"357 372 CURVE SMOOTH",
"405 364 OFFCURVE",
"453 352 OFFCURVE",
"474 343 CURVE",
"370 303 OFFCURVE",
"254 227 OFFCURVE",
"165 124 CURVE SMOOTH",
"64 7 OFFCURVE",
"0 -143 OFFCURVE",
"0 -322 CURVE SMOOTH",
"0 -523 OFFCURVE",
"75 -678 OFFCURVE",
"203 -779 CURVE SMOOTH",
"322 -874 OFFCURVE",
"481 -922 OFFCURVE",
"648 -922 CURVE SMOOTH",
"799 -922 OFFCURVE",
"901 -886 OFFCURVE",
"972 -797 CURVE",
"995 -766 OFFCURVE",
"1007 -747 OFFCURVE",
"1007 -738 CURVE SMOOTH",
"1007 -733 OFFCURVE",
"1005 -730 OFFCURVE",
"1000 -730 CURVE SMOOTH",
"992 -730 OFFCURVE",
"981 -733 OFFCURVE",
"967 -738 CURVE",
"954 -744 OFFCURVE",
"937 -750 OFFCURVE",
"914 -756 CURVE SMOOTH",
"854 -773 OFFCURVE",
"786 -782 OFFCURVE",
"710 -782 CURVE SMOOTH",
"535 -782 OFFCURVE",
"389 -732 OFFCURVE",
"289 -641 CURVE SMOOTH",
"189 -553 OFFCURVE",
"135 -429 OFFCURVE",
"135 -285 CURVE SMOOTH",
"135 -114 OFFCURVE",
"203 32 OFFCURVE",
"327 139 CURVE SMOOTH",
"452 247 OFFCURVE",
"626 306 OFFCURVE",
"838 306 CURVE SMOOTH"
);
}
);
width = 1107;
}
);
note = uni062D;
unicode = 062D;
},
{
glyphname = uniFEA3;
lastChange = "2017-05-01 10:57:08 +0000";
layers = (
{
layerId = "9BAC860F-5151-470B-96DF-6D043347F519";
paths = (
{
closed = 1;
nodes = (
"841 472 OFFCURVE",
"698 510 OFFCURVE",
"449 599 CURVE SMOOTH",
"404 615 OFFCURVE",
"361 623 OFFCURVE",
"320 623 CURVE SMOOTH",
"292 623 OFFCURVE",
"269 619 OFFCURVE",
"251 611 CURVE SMOOTH",
"215 594 OFFCURVE",
"167 513 OFFCURVE",
"167 484 CURVE SMOOTH",
"167 475 OFFCURVE",
"175 470 OFFCURVE",
"192 470 CURVE SMOOTH",
"202 470 OFFCURVE",
"218 471 OFFCURVE",
"239 473 CURVE SMOOTH",
"259 475 OFFCURVE",
"284 476 OFFCURVE",
"315 476 CURVE SMOOTH",
"387 476 OFFCURVE",
"492 443 OFFCURVE",
"665 378 CURVE",
"624 357 OFFCURVE",
"584 334 OFFCURVE",
"547 307 CURVE SMOOTH",
"510 281 OFFCURVE",
"470 257 OFFCURVE",
"427 236 CURVE SMOOTH",
"327 187 OFFCURVE",
"206 158 OFFCURVE",
"18 155 CURVE SMOOTH",
"-34 155 OFFCURVE",
"-65 132 OFFCURVE",
"-65 81 CURVE SMOOTH",
"-65 70 LINE SMOOTH",
"-65 25 OFFCURVE",
"-44 0 OFFCURVE",
"-17 0 CURVE SMOOTH",
"146 0 OFFCURVE",
"261 19 OFFCURVE",
"362 58 CURVE SMOOTH",
"450 91 OFFCURVE",
"521 135 OFFCURVE",
"630 214 CURVE SMOOTH",
"761 306 OFFCURVE",
"839 338 OFFCURVE",
"938 338 CURVE SMOOTH",
"979 338 OFFCURVE",
"1023 336 OFFCURVE",
"1040 372 CURVE",
"1051 393 OFFCURVE",
"1065 433 OFFCURVE",
"1065 452 CURVE SMOOTH",
"1065 462 OFFCURVE",
"1061 468 OFFCURVE",
"1054 470 CURVE",
"1043 471 OFFCURVE",
"1031 472 OFFCURVE",
"1016 472 CURVE SMOOTH"
);
}
);
width = 1205;
}
);
note = uniFEA3;
unicode = FEA3;
},
{
glyphname = uniFEA4;
lastChange = "2017-05-01 10:57:08 +0000";
layers = (
{
layerId = "9BAC860F-5151-470B-96DF-6D043347F519";
paths = (
{
closed = 1;
nodes = (
"841 472 OFFCURVE",
"698 510 OFFCURVE",
"449 599 CURVE SMOOTH",
"404 615 OFFCURVE",
"361 623 OFFCURVE",
"320 623 CURVE SMOOTH",
"292 623 OFFCURVE",
"269 619 OFFCURVE",
"251 611 CURVE SMOOTH",
"215 594 OFFCURVE",
"167 513 OFFCURVE",
"167 484 CURVE SMOOTH",
"167 475 OFFCURVE",
"175 470 OFFCURVE",
"192 470 CURVE SMOOTH",
"202 470 OFFCURVE",
"218 471 OFFCURVE",
"239 473 CURVE SMOOTH",
"259 475 OFFCURVE",
"284 476 OFFCURVE",
"315 476 CURVE SMOOTH",
"387 476 OFFCURVE",
"492 443 OFFCURVE",
"665 378 CURVE",
"624 357 OFFCURVE",
"584 334 OFFCURVE",
"547 307 CURVE SMOOTH",
"510 281 OFFCURVE",
"470 257 OFFCURVE",
"427 236 CURVE SMOOTH",
"327 187 OFFCURVE",
"206 158 OFFCURVE",
"18 155 CURVE SMOOTH",
"-34 155 OFFCURVE",
"-65 132 OFFCURVE",
"-65 81 CURVE SMOOTH",
"-65 70 LINE SMOOTH",
"-65 25 OFFCURVE",
"-44 0 OFFCURVE",
"-17 0 CURVE SMOOTH",
"146 0 OFFCURVE",
"261 19 OFFCURVE",
"362 58 CURVE SMOOTH",
"450 91 OFFCURVE",
"521 135 OFFCURVE",
"630 214 CURVE",
"727 279 OFFCURVE",
"792 313 OFFCURVE",
"855 329 CURVE",
"842 289 OFFCURVE",
"828 222 OFFCURVE",
"828 174 CURVE SMOOTH",
"828 71 OFFCURVE",
"900 0 OFFCURVE",
"1095 0 CURVE SMOOTH",
"1151 0 OFFCURVE",
"1180 19 OFFCURVE",
"1180 72 CURVE SMOOTH",
"1180 81 LINE SMOOTH",
"1180 134 OFFCURVE",
"1168 155 OFFCURVE",
"1132 155 CURVE SMOOTH",
"1087 155 OFFCURVE",
"1051 159 OFFCURVE",
"1025 167 CURVE SMOOTH",
"973 182 OFFCURVE",
"955 211 OFFCURVE",
"955 262 CURVE SMOOTH",
"955 281 OFFCURVE",
"957 298 OFFCURVE",
"962 313 CURVE SMOOTH",
"967 328 OFFCURVE",
"969 336 OFFCURVE",
"970 338 CURVE",
"997 340 OFFCURVE",
"1015 346 OFFCURVE",
"1025 356 CURVE SMOOTH",
"1044 375 OFFCURVE",
"1065 431 OFFCURVE",
"1065 452 CURVE SMOOTH",
"1065 462 OFFCURVE",
"1061 468 OFFCURVE",
"1054 470 CURVE",
"1043 471 OFFCURVE",
"1031 472 OFFCURVE",
"1016 472 CURVE SMOOTH"
);
}
);
width = 1111;
}
);
note = uniFEA4;
unicode = FEA4;
},
{
glyphname = uniFEA2;
lastChange = "2017-05-01 10:57:08 +0000";
layers = (
{
layerId = "9BAC860F-5151-470B-96DF-6D043347F519";
paths = (
{
closed = 1;
nodes = (
"878 306 OFFCURVE",
"905 311 OFFCURVE",
"919 321 CURVE SMOOTH",
"944 338 OFFCURVE",
"966 400 OFFCURVE",
"966 424 CURVE SMOOTH",
"966 434 OFFCURVE",
"962 440 OFFCURVE",
"955 442 CURVE SMOOTH",
"947 444 OFFCURVE",
"934 445 OFFCURVE",
"917 445 CURVE SMOOTH",
"904 445 OFFCURVE",
"888 444 OFFCURVE",
"868 442 CURVE SMOOTH",
"848 440 OFFCURVE",
"820 439 OFFCURVE",
"785 439 CURVE SMOOTH",
"721 439 OFFCURVE",
"629 457 OFFCURVE",
"500 486 CURVE SMOOTH",
"473 492 LINE SMOOTH",
"410 506 OFFCURVE",
"360 516 OFFCURVE",
"324 523 CURVE SMOOTH",
"288 530 OFFCURVE",
"259 533 OFFCURVE",
"238 533 CURVE SMOOTH",
"179 533 OFFCURVE",
"146 518 OFFCURVE",
"107 470 CURVE SMOOTH",
"87 446 OFFCURVE",
"65 405 OFFCURVE",
"65 393 CURVE SMOOTH",
"65 384 OFFCURVE",
"75 380 OFFCURVE",
"94 380 CURVE SMOOTH",
"107 380 OFFCURVE",
"123 381 OFFCURVE",
"142 383 CURVE",
"166 384 OFFCURVE",
"186 385 OFFCURVE",
"203 385 CURVE SMOOTH",
"252 385 OFFCURVE",
"303 381 OFFCURVE",
"357 372 CURVE SMOOTH",
"405 364 OFFCURVE",
"453 352 OFFCURVE",
"474 343 CURVE",
"370 303 OFFCURVE",
"254 227 OFFCURVE",
"165 124 CURVE SMOOTH",
"64 7 OFFCURVE",
"0 -143 OFFCURVE",
"0 -322 CURVE SMOOTH",
"0 -523 OFFCURVE",
"75 -678 OFFCURVE",
"203 -779 CURVE SMOOTH",
"322 -874 OFFCURVE",
"481 -922 OFFCURVE",
"648 -922 CURVE SMOOTH",
"799 -922 OFFCURVE",
"901 -886 OFFCURVE",
"972 -797 CURVE",
"995 -766 OFFCURVE",
"1007 -747 OFFCURVE",
"1007 -738 CURVE SMOOTH",
"1007 -733 OFFCURVE",
"1005 -730 OFFCURVE",
"1000 -730 CURVE SMOOTH",
"992 -730 OFFCURVE",
"981 -733 OFFCURVE",
"967 -738 CURVE",
"954 -744 OFFCURVE",
"937 -750 OFFCURVE",
"914 -756 CURVE SMOOTH",
"854 -773 OFFCURVE",
"786 -782 OFFCURVE",
"710 -782 CURVE SMOOTH",
"535 -782 OFFCURVE",
"389 -732 OFFCURVE",
"289 -641 CURVE SMOOTH",
"189 -553 OFFCURVE",
"135 -429 OFFCURVE",
"135 -285 CURVE SMOOTH",
"135 -132 OFFCURVE",
"191 6 OFFCURVE",
"294 109 CURVE SMOOTH",
"395 212 OFFCURVE",
"542 279 OFFCURVE",
"721 299 CURVE",
"708 247 OFFCURVE",
"702 205 OFFCURVE",
"702 174 CURVE SMOOTH",
"702 71 OFFCURVE",
"777 0 OFFCURVE",
"970 0 CURVE SMOOTH",
"1026 0 OFFCURVE",
"1055 19 OFFCURVE",
"1055 72 CURVE SMOOTH",
"1055 81 LINE SMOOTH",
"1055 134 OFFCURVE",
"1043 155 OFFCURVE",
"1007 155 CURVE SMOOTH",
"875 155 OFFCURVE",
"830 187 OFFCURVE",
"830 262 CURVE SMOOTH",
"830 279 OFFCURVE",
"833 294 OFFCURVE",
"838 306 CURVE"
);
}
);
width = 987;
}
);
note = uniFEA2;
unicode = FEA2;
},
{
glyphname = uni062E;
lastChange = "2017-05-01 10:57:08 +0000";
layers = (
{
layerId = "9BAC860F-5151-470B-96DF-6D043347F519";
paths = (
{
closed = 1;
nodes = (
"878 306 OFFCURVE",
"905 311 OFFCURVE",
"919 321 CURVE SMOOTH",
"944 338 OFFCURVE",
"966 400 OFFCURVE",
"966 424 CURVE SMOOTH",
"966 434 OFFCURVE",
"962 440 OFFCURVE",
"955 442 CURVE SMOOTH",
"947 444 OFFCURVE",
"934 445 OFFCURVE",
"917 445 CURVE SMOOTH",
"904 445 OFFCURVE",
"888 444 OFFCURVE",
"868 442 CURVE SMOOTH",
"848 440 OFFCURVE",
"820 439 OFFCURVE",
"785 439 CURVE SMOOTH",
"721 439 OFFCURVE",
"629 457 OFFCURVE",
"500 486 CURVE SMOOTH",
"473 492 LINE SMOOTH",
"410 506 OFFCURVE",
"360 516 OFFCURVE",
"324 523 CURVE SMOOTH",
"288 530 OFFCURVE",
"259 533 OFFCURVE",
"238 533 CURVE SMOOTH",
"179 533 OFFCURVE",
"146 518 OFFCURVE",
"107 470 CURVE SMOOTH",
"87 446 OFFCURVE",
"65 405 OFFCURVE",
"65 393 CURVE SMOOTH",
"65 384 OFFCURVE",
"75 380 OFFCURVE",
"94 380 CURVE SMOOTH",
"107 380 OFFCURVE",
"123 381 OFFCURVE",
"142 383 CURVE",
"166 384 OFFCURVE",
"186 385 OFFCURVE",
"203 385 CURVE SMOOTH",
"252 385 OFFCURVE",
"303 381 OFFCURVE",
"357 372 CURVE SMOOTH",
"405 364 OFFCURVE",
"453 352 OFFCURVE",
"474 343 CURVE",
"370 303 OFFCURVE",
"254 227 OFFCURVE",
"165 124 CURVE SMOOTH",
"64 7 OFFCURVE",
"0 -143 OFFCURVE",
"0 -322 CURVE SMOOTH",
"0 -523 OFFCURVE",
"75 -678 OFFCURVE",
"203 -779 CURVE SMOOTH",
"322 -874 OFFCURVE",
"481 -922 OFFCURVE",
"648 -922 CURVE SMOOTH",
"799 -922 OFFCURVE",
"901 -886 OFFCURVE",
"972 -797 CURVE",
"995 -766 OFFCURVE",
"1007 -747 OFFCURVE",
"1007 -738 CURVE SMOOTH",
"1007 -733 OFFCURVE",
"1005 -730 OFFCURVE",
"1000 -730 CURVE SMOOTH",
"992 -730 OFFCURVE",
"981 -733 OFFCURVE",
"967 -738 CURVE",
"954 -744 OFFCURVE",
"937 -750 OFFCURVE",
"914 -756 CURVE SMOOTH",
"854 -773 OFFCURVE",
"786 -782 OFFCURVE",
"710 -782 CURVE SMOOTH",
"535 -782 OFFCURVE",
"389 -732 OFFCURVE",
"289 -641 CURVE SMOOTH",
"189 -553 OFFCURVE",
"135 -429 OFFCURVE",
"135 -285 CURVE SMOOTH",
"135 -114 OFFCURVE",
"203 32 OFFCURVE",
"327 139 CURVE SMOOTH",
"452 247 OFFCURVE",
"626 306 OFFCURVE",
"838 306 CURVE SMOOTH"
);
},
{
closed = 1;
nodes = (
"489 1077 OFFCURVE",
"468 1063 OFFCURVE",
"439 1035 CURVE SMOOTH",
"416 1014 OFFCURVE",
"398 986 OFFCURVE",
"398 975 CURVE SMOOTH",
"398 970 OFFCURVE",
"404 962 OFFCURVE",
"415 953 CURVE SMOOTH",
"439 934 OFFCURVE",
"459 915 OFFCURVE",
"475 895 CURVE SMOOTH",
"483 885 OFFCURVE",
"490 880 OFFCURVE",
"496 880 CURVE SMOOTH",
"503 880 OFFCURVE",
"510 883 OFFCURVE",
"516 890 CURVE SMOOTH",
"520 895 OFFCURVE",
"531 906 OFFCURVE",
"549 922 CURVE",
"566 939 OFFCURVE",
"579 952 OFFCURVE",
"588 961 CURVE",
"596 970 OFFCURVE",
"600 977 OFFCURVE",
"600 982 CURVE SMOOTH",
"600 988 OFFCURVE",
"596 997 OFFCURVE",
"589 1008 CURVE SMOOTH",
"574 1031 OFFCURVE",
"534 1077 OFFCURVE",
"502 1077 CURVE SMOOTH"
);
}
);
width = 1107;
}
);
note = uni062E;
unicode = 062E;
},
{
glyphname = uniFEA7;
lastChange = "2017-05-01 10:57:08 +0000";
layers = (
{
layerId = "9BAC860F-5151-470B-96DF-6D043347F519";
paths = (
{
closed = 1;
nodes = (
"841 472 OFFCURVE",
"698 510 OFFCURVE",
"449 599 CURVE SMOOTH",
"404 615 OFFCURVE",
"361 623 OFFCURVE",
"320 623 CURVE SMOOTH",
"292 623 OFFCURVE",
"269 619 OFFCURVE",
"251 611 CURVE SMOOTH",
"215 594 OFFCURVE",
"167 513 OFFCURVE",
"167 484 CURVE SMOOTH",
"167 475 OFFCURVE",
"175 470 OFFCURVE",
"192 470 CURVE SMOOTH",
"202 470 OFFCURVE",
"218 471 OFFCURVE",
"239 473 CURVE SMOOTH",
"259 475 OFFCURVE",
"284 476 OFFCURVE",
"315 476 CURVE SMOOTH",
"387 476 OFFCURVE",
"492 443 OFFCURVE",
"665 378 CURVE",
"624 357 OFFCURVE",
"584 334 OFFCURVE",
"547 307 CURVE SMOOTH",
"510 281 OFFCURVE",
"470 257 OFFCURVE",
"427 236 CURVE SMOOTH",
"327 187 OFFCURVE",
"206 158 OFFCURVE",
"18 155 CURVE SMOOTH",
"-34 155 OFFCURVE",
"-65 132 OFFCURVE",
"-65 81 CURVE SMOOTH",
"-65 70 LINE SMOOTH",
"-65 25 OFFCURVE",
"-44 0 OFFCURVE",
"-17 0 CURVE SMOOTH",
"146 0 OFFCURVE",
"261 19 OFFCURVE",
"362 58 CURVE SMOOTH",
"450 91 OFFCURVE",
"521 135 OFFCURVE",
"630 214 CURVE SMOOTH",
"761 306 OFFCURVE",
"839 338 OFFCURVE",
"938 338 CURVE SMOOTH",
"979 338 OFFCURVE",
"1023 336 OFFCURVE",
"1040 372 CURVE",
"1051 393 OFFCURVE",
"1065 433 OFFCURVE",
"1065 452 CURVE SMOOTH",
"1065 462 OFFCURVE",
"1061 468 OFFCURVE",
"1054 470 CURVE",
"1043 471 OFFCURVE",
"1031 472 OFFCURVE",
"1016 472 CURVE SMOOTH"
);
},
{
closed = 1;
nodes = (
"455 1077 OFFCURVE",
"434 1063 OFFCURVE",
"406 1035 CURVE SMOOTH",
"383 1012 OFFCURVE",
"365 986 OFFCURVE",
"365 975 CURVE SMOOTH",
"365 970 OFFCURVE",
"371 962 OFFCURVE",
"382 953 CURVE SMOOTH",
"404 936 OFFCURVE",
"424 916 OFFCURVE",
"441 895 CURVE SMOOTH",
"449 885 OFFCURVE",
"456 880 OFFCURVE",
"463 880 CURVE SMOOTH",
"471 880 OFFCURVE",
"477 883 OFFCURVE",
"482 890 CURVE",
"485 893 OFFCURVE",
"496 904 OFFCURVE",
"516 922 CURVE",
"519 925 OFFCURVE",
"524 930 OFFCURVE",
"532 938 CURVE SMOOTH",
"547 953 OFFCURVE",
"565 971 OFFCURVE",
"565 982 CURVE SMOOTH",
"565 994 OFFCURVE",
"549 1021 OFFCURVE",
"529 1040 CURVE SMOOTH",
"504 1065 OFFCURVE",
"484 1077 OFFCURVE",
"468 1077 CURVE SMOOTH"
);
}
);
width = 1205;
}
);
note = uniFEA7;
unicode = FEA7;
},
{
glyphname = uniFEA8;
lastChange = "2017-05-01 10:57:08 +0000";
layers = (
{
layerId = "9BAC860F-5151-470B-96DF-6D043347F519";
paths = (
{
closed = 1;
nodes = (
"841 472 OFFCURVE",
"698 510 OFFCURVE",
"449 599 CURVE SMOOTH",
"404 615 OFFCURVE",
"361 623 OFFCURVE",
"320 623 CURVE SMOOTH",
"292 623 OFFCURVE",
"269 619 OFFCURVE",
"251 611 CURVE SMOOTH",
"215 594 OFFCURVE",
"167 513 OFFCURVE",
"167 484 CURVE SMOOTH",
"167 475 OFFCURVE",
"175 470 OFFCURVE",
"192 470 CURVE SMOOTH",
"202 470 OFFCURVE",
"218 471 OFFCURVE",
"239 473 CURVE SMOOTH",
"259 475 OFFCURVE",
"284 476 OFFCURVE",
"315 476 CURVE SMOOTH",
"387 476 OFFCURVE",
"492 443 OFFCURVE",
"665 378 CURVE",
"624 357 OFFCURVE",
"584 334 OFFCURVE",
"547 307 CURVE SMOOTH",
"510 281 OFFCURVE",
"470 257 OFFCURVE",
"427 236 CURVE SMOOTH",
"327 187 OFFCURVE",
"206 158 OFFCURVE",
"18 155 CURVE SMOOTH",
"-34 155 OFFCURVE",
"-65 132 OFFCURVE",
"-65 81 CURVE SMOOTH",
"-65 70 LINE SMOOTH",
"-65 25 OFFCURVE",
"-44 0 OFFCURVE",
"-17 0 CURVE SMOOTH",
"146 0 OFFCURVE",
"261 19 OFFCURVE",
"362 58 CURVE SMOOTH",
"450 91 OFFCURVE",
"521 135 OFFCURVE",
"630 214 CURVE",
"727 279 OFFCURVE",
"792 313 OFFCURVE",
"855 329 CURVE",
"842 289 OFFCURVE",
"828 222 OFFCURVE",
"828 174 CURVE SMOOTH",
"828 71 OFFCURVE",
"900 0 OFFCURVE",
"1095 0 CURVE SMOOTH",
"1151 0 OFFCURVE",
"1180 19 OFFCURVE",
"1180 72 CURVE SMOOTH",
"1180 81 LINE SMOOTH",
"1180 134 OFFCURVE",
"1168 155 OFFCURVE",
"1132 155 CURVE SMOOTH",
"1087 155 OFFCURVE",
"1051 159 OFFCURVE",
"1025 167 CURVE SMOOTH",
"973 182 OFFCURVE",
"955 211 OFFCURVE",
"955 262 CURVE SMOOTH",
"955 281 OFFCURVE",
"957 298 OFFCURVE",
"962 313 CURVE SMOOTH",
"967 328 OFFCURVE",
"969 336 OFFCURVE",
"970 338 CURVE",
"997 340 OFFCURVE",
"1015 346 OFFCURVE",
"1025 356 CURVE SMOOTH",
"1044 375 OFFCURVE",
"1065 431 OFFCURVE",
"1065 452 CURVE SMOOTH",
"1065 462 OFFCURVE",
"1061 468 OFFCURVE",
"1054 470 CURVE",
"1043 471 OFFCURVE",
"1031 472 OFFCURVE",
"1016 472 CURVE SMOOTH"
);
},
{
closed = 1;
nodes = (
"517 1077 OFFCURVE",
"496 1063 OFFCURVE",
"468 1035 CURVE SMOOTH",
"447 1014 OFFCURVE",
"428 986 OFFCURVE",
"428 975 CURVE SMOOTH",
"428 970 OFFCURVE",
"434 962 OFFCURVE",
"445 953 CURVE SMOOTH",
"467 936 OFFCURVE",
"487 916 OFFCURVE",
"504 895 CURVE SMOOTH",
"512 885 OFFCURVE",
"519 880 OFFCURVE",
"525 880 CURVE SMOOTH",
"534 880 OFFCURVE",
"540 883 OFFCURVE",
"545 890 CURVE",
"548 893 OFFCURVE",
"559 904 OFFCURVE",
"579 922 CURVE",
"585 929 OFFCURVE",
"596 940 OFFCURVE",
"611 955 CURVE SMOOTH",
"622 966 OFFCURVE",
"628 975 OFFCURVE",
"628 982 CURVE SMOOTH",
"628 994 OFFCURVE",
"611 1021 OFFCURVE",
"592 1040 CURVE SMOOTH",
"567 1065 OFFCURVE",
"547 1077 OFFCURVE",
"531 1077 CURVE SMOOTH"
);
}
);
width = 1111;
}
);
note = uniFEA8;
unicode = FEA8;
},
{
glyphname = uniFEA6;
lastChange = "2017-05-01 10:57:08 +0000";
layers = (
{
layerId = "9BAC860F-5151-470B-96DF-6D043347F519";
paths = (
{
closed = 1;
nodes = (
"878 306 OFFCURVE",
"905 311 OFFCURVE",
"919 321 CURVE SMOOTH",
"944 338 OFFCURVE",
"966 400 OFFCURVE",
"966 424 CURVE SMOOTH",
"966 434 OFFCURVE",
"962 440 OFFCURVE",
"955 442 CURVE SMOOTH",
"947 444 OFFCURVE",
"934 445 OFFCURVE",
"917 445 CURVE SMOOTH",
"904 445 OFFCURVE",
"888 444 OFFCURVE",
"868 442 CURVE SMOOTH",
"848 440 OFFCURVE",
"820 439 OFFCURVE",
"785 439 CURVE SMOOTH",
"721 439 OFFCURVE",
"629 457 OFFCURVE",
"500 486 CURVE SMOOTH",
"473 492 LINE SMOOTH",
"410 506 OFFCURVE",
"360 516 OFFCURVE",
"324 523 CURVE SMOOTH",
"288 530 OFFCURVE",
"259 533 OFFCURVE",
"238 533 CURVE SMOOTH",
"179 533 OFFCURVE",
"146 518 OFFCURVE",
"107 470 CURVE SMOOTH",
"87 446 OFFCURVE",
"65 405 OFFCURVE",
"65 393 CURVE SMOOTH",
"65 384 OFFCURVE",
"75 380 OFFCURVE",
"94 380 CURVE SMOOTH",
"107 380 OFFCURVE",
"123 381 OFFCURVE",
"142 383 CURVE",
"166 384 OFFCURVE",
"186 385 OFFCURVE",
"203 385 CURVE SMOOTH",
"252 385 OFFCURVE",
"303 381 OFFCURVE",
"357 372 CURVE SMOOTH",
"405 364 OFFCURVE",
"453 352 OFFCURVE",
"474 343 CURVE",
"370 303 OFFCURVE",
"254 227 OFFCURVE",
"165 124 CURVE SMOOTH",
"64 7 OFFCURVE",
"0 -143 OFFCURVE",
"0 -322 CURVE SMOOTH",
"0 -523 OFFCURVE",
"75 -678 OFFCURVE",
"203 -779 CURVE SMOOTH",
"322 -874 OFFCURVE",
"481 -922 OFFCURVE",
"648 -922 CURVE SMOOTH",
"799 -922 OFFCURVE",
"901 -886 OFFCURVE",
"972 -797 CURVE",
"995 -766 OFFCURVE",
"1007 -747 OFFCURVE",
"1007 -738 CURVE SMOOTH",
"1007 -733 OFFCURVE",
"1005 -730 OFFCURVE",
"1000 -730 CURVE SMOOTH",
"992 -730 OFFCURVE",
"981 -733 OFFCURVE",
"967 -738 CURVE",
"954 -744 OFFCURVE",
"937 -750 OFFCURVE",
"914 -756 CURVE SMOOTH",
"854 -773 OFFCURVE",
"786 -782 OFFCURVE",
"710 -782 CURVE SMOOTH",
"535 -782 OFFCURVE",
"389 -732 OFFCURVE",
"289 -641 CURVE SMOOTH",
"189 -553 OFFCURVE",
"135 -429 OFFCURVE",
"135 -285 CURVE SMOOTH",
"135 -132 OFFCURVE",
"191 6 OFFCURVE",
"294 109 CURVE SMOOTH",
"395 212 OFFCURVE",
"542 279 OFFCURVE",
"721 299 CURVE",
"708 247 OFFCURVE",
"702 205 OFFCURVE",
"702 174 CURVE SMOOTH",
"702 71 OFFCURVE",
"777 0 OFFCURVE",
"970 0 CURVE SMOOTH",
"1026 0 OFFCURVE",
"1055 19 OFFCURVE",
"1055 72 CURVE SMOOTH",
"1055 81 LINE SMOOTH",
"1055 134 OFFCURVE",
"1043 155 OFFCURVE",
"1007 155 CURVE SMOOTH",
"875 155 OFFCURVE",
"830 187 OFFCURVE",
"830 262 CURVE SMOOTH",
"830 279 OFFCURVE",
"833 294 OFFCURVE",
"838 306 CURVE"
);
},
{
closed = 1;
nodes = (
"480 1077 OFFCURVE",
"459 1063 OFFCURVE",
"430 1035 CURVE SMOOTH",
"407 1014 OFFCURVE",
"389 986 OFFCURVE",
"389 975 CURVE SMOOTH",
"389 970 OFFCURVE",
"395 962 OFFCURVE",
"406 953 CURVE SMOOTH",
"430 934 OFFCURVE",
"450 915 OFFCURVE",
"466 895 CURVE",
"473 885 OFFCURVE",
"480 880 OFFCURVE",
"487 880 CURVE SMOOTH",
"495 880 OFFCURVE",
"501 883 OFFCURVE",
"506 890 CURVE",
"509 893 OFFCURVE",
"520 904 OFFCURVE",
"540 922 CURVE",
"543 925 OFFCURVE",
"549 931 OFFCURVE",
"557 939 CURVE SMOOTH",
"573 955 OFFCURVE",
"590 973 OFFCURVE",
"590 982 CURVE SMOOTH",
"590 987 OFFCURVE",
"586 996 OFFCURVE",
"579 1009 CURVE",
"559 1040 OFFCURVE",
"521 1077 OFFCURVE",
"493 1077 CURVE SMOOTH"
);
}
);
width = 987;
}
);
note = uniFEA6;
unicode = FEA6;
},
{
glyphname = uni062F;
lastChange = "2017-05-01 10:57:08 +0000";
layers = (
{
layerId = "9BAC860F-5151-470B-96DF-6D043347F519";
paths = (
{
closed = 1;
nodes = (
"191 142 OFFCURVE",
"136 148 OFFCURVE",
"97 160 CURVE SMOOTH",
"57 171 OFFCURVE",
"33 177 OFFCURVE",
"26 177 CURVE SMOOTH",
"7 177 OFFCURVE",
"0 153 OFFCURVE",
"0 120 CURVE SMOOTH",
"0 67 OFFCURVE",
"19 30 OFFCURVE",
"58 10 CURVE",
"91 -9 OFFCURVE",
"138 -14 OFFCURVE",
"210 -14 CURVE SMOOTH",
"466 -14 OFFCURVE",
"648 108 OFFCURVE",
"648 345 CURVE SMOOTH",
"648 390 OFFCURVE",
"632 459 OFFCURVE",
"597 528 CURVE SMOOTH",
"552 617 OFFCURVE",
"485 696 OFFCURVE",
"394 767 CURVE",
"375 780 OFFCURVE",
"361 787 OFFCURVE",
"352 787 CURVE SMOOTH",
"339 787 OFFCURVE",
"328 780 OFFCURVE",
"320 767 CURVE SMOOTH",
"301 735 OFFCURVE",
"282 689 OFFCURVE",
"282 662 CURVE SMOOTH",
"282 645 OFFCURVE",
"291 630 OFFCURVE",
"308 616 CURVE",
"401 546 OFFCURVE",
"464 482 OFFCURVE",
"499 423 CURVE SMOOTH",
"526 378 OFFCURVE",
"530 348 OFFCURVE",
"530 315 CURVE SMOOTH",
"530 210 OFFCURVE",
"443 142 OFFCURVE",
"262 142 CURVE SMOOTH"
);
}
);
width = 788;
}
);
note = uni062F;
unicode = 062F;
},
{
glyphname = uniFEAA;
lastChange = "2017-05-01 10:57:08 +0000";
layers = (
{
layerId = "9BAC860F-5151-470B-96DF-6D043347F519";
paths = (
{
closed = 1;
nodes = (
"2 72 OFFCURVE",
"14 44 OFFCURVE",
"37 21 CURVE SMOOTH",
"72 -13 OFFCURVE",
"134 -30 OFFCURVE",
"222 -30 CURVE SMOOTH",
"394 -30 OFFCURVE",
"525 26 OFFCURVE",
"646 181 CURVE",
"698 40 OFFCURVE",
"799 0 OFFCURVE",
"931 0 CURVE SMOOTH",
"987 0 OFFCURVE",
"1016 19 OFFCURVE",
"1016 72 CURVE SMOOTH",
"1016 81 LINE SMOOTH",
"1016 134 OFFCURVE",
"1004 155 OFFCURVE",
"968 155 CURVE SMOOTH",
"915 155 OFFCURVE",
"872 164 OFFCURVE",
"840 182 CURVE SMOOTH",
"775 217 OFFCURVE",
"732 306 OFFCURVE",
"693 463 CURVE SMOOTH",
"673 542 OFFCURVE",
"649 654 OFFCURVE",
"620 801 CURVE",
"613 830 OFFCURVE",
"608 850 OFFCURVE",
"604 861 CURVE SMOOTH",
"599 874 OFFCURVE",
"592 880 OFFCURVE",
"581 880 CURVE SMOOTH",
"570 880 OFFCURVE",
"553 872 OFFCURVE",
"530 856 CURVE",
"487 829 OFFCURVE",
"472 810 OFFCURVE",
"472 785 CURVE SMOOTH",
"472 776 OFFCURVE",
"476 761 OFFCURVE",
"484 738 CURVE",
"521 607 OFFCURVE",
"547 512 OFFCURVE",
"560 451 CURVE SMOOTH",
"575 380 OFFCURVE",
"583 341 OFFCURVE",
"583 332 CURVE SMOOTH",
"583 292 OFFCURVE",
"558 241 OFFCURVE",
"509 204 CURVE SMOOTH",
"450 160 OFFCURVE",
"360 131 OFFCURVE",
"240 131 CURVE SMOOTH",
"176 131 OFFCURVE",
"121 137 OFFCURVE",
"76 148 CURVE",
"61 151 OFFCURVE",
"49 154 OFFCURVE",
"41 159 CURVE",
"33 162 OFFCURVE",
"27 164 OFFCURVE",
"23 164 CURVE SMOOTH",
"18 164 OFFCURVE",
"13 160 OFFCURVE",
"9 152 CURVE",
"4 143 OFFCURVE",
"2 128 OFFCURVE",
"2 107 CURVE SMOOTH"
);
}
);
width = 949;
}
);
note = uniFEAA;
unicode = FEAA;
},
{
glyphname = uni0630;
lastChange = "2017-05-01 10:57:08 +0000";
layers = (
{
layerId = "9BAC860F-5151-470B-96DF-6D043347F519";
paths = (
{
closed = 1;
nodes = (
"191 142 OFFCURVE",
"136 148 OFFCURVE",
"97 160 CURVE SMOOTH",
"57 171 OFFCURVE",
"33 177 OFFCURVE",
"26 177 CURVE SMOOTH",
"7 177 OFFCURVE",
"0 153 OFFCURVE",
"0 120 CURVE SMOOTH",
"0 67 OFFCURVE",
"19 30 OFFCURVE",
"58 10 CURVE",
"91 -9 OFFCURVE",
"138 -14 OFFCURVE",
"210 -14 CURVE SMOOTH",
"466 -14 OFFCURVE",
"648 108 OFFCURVE",
"648 345 CURVE SMOOTH",
"648 390 OFFCURVE",
"632 459 OFFCURVE",
"597 528 CURVE SMOOTH",
"552 617 OFFCURVE",
"485 696 OFFCURVE",
"394 767 CURVE",
"375 780 OFFCURVE",
"361 787 OFFCURVE",
"352 787 CURVE SMOOTH",
"339 787 OFFCURVE",
"328 780 OFFCURVE",
"320 767 CURVE SMOOTH",
"301 735 OFFCURVE",
"282 689 OFFCURVE",
"282 662 CURVE SMOOTH",
"282 645 OFFCURVE",
"291 630 OFFCURVE",
"308 616 CURVE",
"401 546 OFFCURVE",
"464 482 OFFCURVE",
"499 423 CURVE SMOOTH",
"526 378 OFFCURVE",
"530 348 OFFCURVE",
"530 315 CURVE SMOOTH",
"530 210 OFFCURVE",
"443 142 OFFCURVE",
"262 142 CURVE SMOOTH"
);
},
{
closed = 1;
nodes = (
"259 1262 OFFCURVE",
"238 1248 OFFCURVE",
"211 1219 CURVE SMOOTH",
"188 1195 OFFCURVE",
"169 1169 OFFCURVE",
"169 1160 CURVE SMOOTH",
"169 1155 OFFCURVE",
"175 1147 OFFCURVE",
"186 1138 CURVE SMOOTH",
"204 1123 OFFCURVE",
"215 1114 OFFCURVE",
"220 1109 CURVE",
"246 1079 LINE SMOOTH",
"254 1070 OFFCURVE",
"261 1065 OFFCURVE",
"267 1065 CURVE SMOOTH",
"274 1065 OFFCURVE",
"281 1068 OFFCURVE",
"287 1075 CURVE SMOOTH",
"291 1080 OFFCURVE",
"302 1091 OFFCURVE",
"321 1107 CURVE",
"338 1124 OFFCURVE",
"351 1136 OFFCURVE",
"359 1145 CURVE",
"367 1153 OFFCURVE",
"371 1160 OFFCURVE",
"371 1165 CURVE SMOOTH",
"371 1171 OFFCURVE",
"367 1180 OFFCURVE",
"360 1193 CURVE",
"340 1224 OFFCURVE",
"301 1262 OFFCURVE",
"273 1262 CURVE SMOOTH"
);
}
);
width = 788;
}
);
note = uni0630;
unicode = 0630;
},
{
glyphname = uniFEAC;
lastChange = "2017-05-01 10:57:08 +0000";
layers = (
{
layerId = "9BAC860F-5151-470B-96DF-6D043347F519";
paths = (
{
closed = 1;
nodes = (
"0 72 OFFCURVE",
"12 44 OFFCURVE",
"35 21 CURVE SMOOTH",
"70 -13 OFFCURVE",
"132 -30 OFFCURVE",
"220 -30 CURVE SMOOTH",
"392 -30 OFFCURVE",
"523 26 OFFCURVE",
"644 181 CURVE",
"696 40 OFFCURVE",
"797 0 OFFCURVE",
"929 0 CURVE SMOOTH",
"985 0 OFFCURVE",
"1014 19 OFFCURVE",
"1014 72 CURVE SMOOTH",
"1014 81 LINE SMOOTH",
"1014 134 OFFCURVE",
"1002 155 OFFCURVE",
"966 155 CURVE SMOOTH",
"913 155 OFFCURVE",
"870 164 OFFCURVE",
"838 182 CURVE SMOOTH",
"773 217 OFFCURVE",
"730 306 OFFCURVE",
"691 463 CURVE SMOOTH",
"671 542 OFFCURVE",
"647 654 OFFCURVE",
"618 801 CURVE",
"611 830 OFFCURVE",
"606 850 OFFCURVE",
"602 861 CURVE SMOOTH",
"597 874 OFFCURVE",
"590 880 OFFCURVE",
"579 880 CURVE SMOOTH",
"568 880 OFFCURVE",
"551 872 OFFCURVE",
"528 856 CURVE",
"485 829 OFFCURVE",
"470 810 OFFCURVE",
"470 785 CURVE SMOOTH",
"470 776 OFFCURVE",
"474 761 OFFCURVE",
"482 738 CURVE",
"519 607 OFFCURVE",
"545 512 OFFCURVE",
"558 451 CURVE SMOOTH",
"573 380 OFFCURVE",
"581 341 OFFCURVE",
"581 332 CURVE SMOOTH",
"581 292 OFFCURVE",
"556 241 OFFCURVE",
"507 204 CURVE SMOOTH",
"448 160 OFFCURVE",
"358 131 OFFCURVE",
"238 131 CURVE SMOOTH",
"174 131 OFFCURVE",
"119 137 OFFCURVE",
"74 148 CURVE",
"59 151 OFFCURVE",
"47 154 OFFCURVE",
"39 159 CURVE",
"31 162 OFFCURVE",
"25 164 OFFCURVE",
"21 164 CURVE SMOOTH",
"16 164 OFFCURVE",
"11 160 OFFCURVE",
"7 152 CURVE",
"2 143 OFFCURVE",
"0 128 OFFCURVE",
"0 107 CURVE SMOOTH"
);
},
{
closed = 1;
nodes = (
"475 1262 OFFCURVE",
"454 1248 OFFCURVE",
"427 1219 CURVE SMOOTH",
"404 1195 OFFCURVE",
"385 1169 OFFCURVE",
"385 1160 CURVE SMOOTH",
"385 1155 OFFCURVE",
"391 1147 OFFCURVE",
"402 1138 CURVE",
"420 1125 OFFCURVE",
"440 1105 OFFCURVE",
"462 1079 CURVE SMOOTH",
"470 1070 OFFCURVE",
"477 1065 OFFCURVE",
"484 1065 CURVE SMOOTH",
"491 1065 OFFCURVE",
"497 1068 OFFCURVE",
"503 1075 CURVE SMOOTH",
"507 1080 OFFCURVE",
"518 1091 OFFCURVE",
"537 1107 CURVE",
"540 1110 OFFCURVE",
"546 1116 OFFCURVE",
"554 1124 CURVE SMOOTH",
"570 1139 OFFCURVE",
"586 1156 OFFCURVE",
"586 1165 CURVE SMOOTH",
"586 1172 OFFCURVE",
"583 1182 OFFCURVE",
"576 1193 CURVE",
"559 1222 OFFCURVE",
"517 1262 OFFCURVE",
"489 1262 CURVE SMOOTH"
);
}
);
width = 946;
}
);
note = uniFEAC;
unicode = FEAC;
},
{
glyphname = uni0631;
lastChange = "2017-05-01 10:57:08 +0000";
layers = (
{
layerId = "9BAC860F-5151-470B-96DF-6D043347F519";
paths = (
{
closed = 1;
nodes = (
"8 -264 OFFCURVE",
"2 -269 OFFCURVE",
"2 -278 CURVE SMOOTH",
"2 -286 OFFCURVE",
"7 -295 OFFCURVE",
"18 -306 CURVE SMOOTH",
"55 -343 OFFCURVE",
"106 -367 OFFCURVE",
"162 -367 CURVE SMOOTH",
"253 -367 OFFCURVE",
"344 -321 OFFCURVE",
"413 -237 CURVE SMOOTH",
"486 -149 OFFCURVE",
"532 -22 OFFCURVE",
"532 129 CURVE SMOOTH",
"532 260 OFFCURVE",
"501 357 OFFCURVE",
"454 470 CURVE SMOOTH",
"441 499 OFFCURVE",
"429 525 OFFCURVE",
"416 548 CURVE",
"404 567 OFFCURVE",
"393 577 OFFCURVE",
"382 577 CURVE SMOOTH",
"367 577 OFFCURVE",
"351 561 OFFCURVE",
"333 528 CURVE",
"304 481 OFFCURVE",
"292 456 OFFCURVE",
"292 433 CURVE SMOOTH",
"292 424 OFFCURVE",
"297 411 OFFCURVE",
"308 394 CURVE",
"379 295 OFFCURVE",
"414 200 OFFCURVE",
"414 107 CURVE SMOOTH",
"414 31 OFFCURVE",
"390 -47 OFFCURVE",
"338 -112 CURVE SMOOTH",
"281 -184 OFFCURVE",
"192 -237 OFFCURVE",
"72 -257 CURVE",
"19 -263 LINE SMOOTH"
);
}
);
width = 673;
}
);
note = uni0631;
unicode = 0631;
},
{
glyphname = uniFEAE;
lastChange = "2017-05-01 10:57:08 +0000";
layers = (
{
layerId = "9BAC860F-5151-470B-96DF-6D043347F519";
paths = (
{
closed = 1;
nodes = (
"49 -298 OFFCURVE",
"32 -301 OFFCURVE",
"17 -302 CURVE SMOOTH",
"7 -303 OFFCURVE",
"2 -309 OFFCURVE",
"2 -319 CURVE SMOOTH",
"2 -327 OFFCURVE",
"7 -336 OFFCURVE",
"18 -347 CURVE SMOOTH",
"55 -384 OFFCURVE",
"106 -408 OFFCURVE",
"162 -408 CURVE SMOOTH",
"247 -408 OFFCURVE",
"335 -364 OFFCURVE",
"402 -285 CURVE SMOOTH",
"471 -202 OFFCURVE",
"516 -82 OFFCURVE",
"523 63 CURVE",
"542 26 OFFCURVE",
"587 0 OFFCURVE",
"631 0 CURVE SMOOTH",
"686 0 OFFCURVE",
"716 19 OFFCURVE",
"716 72 CURVE SMOOTH",
"716 81 LINE SMOOTH",
"716 134 OFFCURVE",
"704 155 OFFCURVE",
"668 155 CURVE SMOOTH",
"575 155 OFFCURVE",
"517 223 OFFCURVE",
"458 396 CURVE SMOOTH",
"443 441 OFFCURVE",
"429 463 OFFCURVE",
"414 463 CURVE SMOOTH",
"401 463 OFFCURVE",
"384 446 OFFCURVE",
"365 412 CURVE SMOOTH",
"339 364 LINE SMOOTH",
"332 351 OFFCURVE",
"328 338 OFFCURVE",
"328 326 CURVE SMOOTH",
"328 317 OFFCURVE",
"332 305 OFFCURVE",
"340 290 CURVE SMOOTH",
"370 233 OFFCURVE",
"390 187 OFFCURVE",
"399 151 CURVE SMOOTH",
"409 113 OFFCURVE",
"414 86 OFFCURVE",
"414 70 CURVE SMOOTH",
"414 -10 OFFCURVE",
"386 -96 OFFCURVE",
"330 -163 CURVE SMOOTH",
"267 -238 OFFCURVE",
"180 -288 OFFCURVE",
"69 -295 CURVE"
);
}
);
width = 649;
}
);
note = uniFEAE;
unicode = FEAE;
},
{
glyphname = uni0632;
lastChange = "2017-05-01 10:57:08 +0000";
layers = (
{
layerId = "9BAC860F-5151-470B-96DF-6D043347F519";
paths = (
{
closed = 1;
nodes = (
"8 -264 OFFCURVE",
"2 -269 OFFCURVE",
"2 -278 CURVE SMOOTH",
"2 -286 OFFCURVE",
"7 -295 OFFCURVE",
"18 -306 CURVE SMOOTH",
"55 -343 OFFCURVE",
"106 -367 OFFCURVE",
"162 -367 CURVE SMOOTH",
"253 -367 OFFCURVE",
"344 -321 OFFCURVE",
"413 -237 CURVE SMOOTH",
"486 -149 OFFCURVE",
"532 -22 OFFCURVE",
"532 129 CURVE SMOOTH",
"532 260 OFFCURVE",
"501 357 OFFCURVE",
"454 470 CURVE SMOOTH",
"441 499 OFFCURVE",
"429 525 OFFCURVE",
"416 548 CURVE",
"404 567 OFFCURVE",
"393 577 OFFCURVE",
"382 577 CURVE SMOOTH",
"367 577 OFFCURVE",
"351 561 OFFCURVE",
"333 528 CURVE",
"304 481 OFFCURVE",
"292 456 OFFCURVE",
"292 433 CURVE SMOOTH",
"292 424 OFFCURVE",
"297 411 OFFCURVE",
"308 394 CURVE",
"379 295 OFFCURVE",
"414 200 OFFCURVE",
"414 107 CURVE SMOOTH",
"414 31 OFFCURVE",
"390 -47 OFFCURVE",
"338 -112 CURVE SMOOTH",
"281 -184 OFFCURVE",
"192 -237 OFFCURVE",
"72 -257 CURVE",
"19 -263 LINE SMOOTH"
);
},
{
closed = 1;
nodes = (
"325 1050 OFFCURVE",
"304 1036 OFFCURVE",
"276 1008 CURVE SMOOTH",
"253 985 OFFCURVE",
"234 959 OFFCURVE",
"234 948 CURVE SMOOTH",
"234 943 OFFCURVE",
"240 935 OFFCURVE",
"251 926 CURVE SMOOTH",
"273 909 OFFCURVE",
"293 890 OFFCURVE",
"311 868 CURVE SMOOTH",
"319 858 OFFCURVE",
"326 853 OFFCURVE",
"333 853 CURVE SMOOTH",
"340 853 OFFCURVE",
"346 856 OFFCURVE",
"352 863 CURVE",
"355 866 OFFCURVE",
"366 877 OFFCURVE",
"386 895 CURVE",
"392 902 OFFCURVE",
"403 913 OFFCURVE",
"418 928 CURVE SMOOTH",
"429 939 OFFCURVE",
"435 948 OFFCURVE",
"435 955 CURVE SMOOTH",
"435 961 OFFCURVE",
"431 970 OFFCURVE",
"424 982 CURVE",
"409 1005 OFFCURVE",
"369 1050 OFFCURVE",
"338 1050 CURVE SMOOTH"
);
}
);
width = 673;
}
);
note = uni0632;
unicode = 0632;
},
{
glyphname = uniFEB0;
lastChange = "2017-05-01 10:57:08 +0000";
layers = (
{
layerId = "9BAC860F-5151-470B-96DF-6D043347F519";
paths = (
{
closed = 1;
nodes = (
"49 -298 OFFCURVE",
"32 -301 OFFCURVE",
"17 -302 CURVE SMOOTH",
"7 -303 OFFCURVE",
"2 -309 OFFCURVE",
"2 -319 CURVE SMOOTH",
"2 -327 OFFCURVE",
"7 -336 OFFCURVE",
"18 -347 CURVE SMOOTH",
"55 -384 OFFCURVE",
"106 -408 OFFCURVE",
"162 -408 CURVE SMOOTH",
"247 -408 OFFCURVE",
"335 -364 OFFCURVE",
"402 -285 CURVE SMOOTH",
"471 -202 OFFCURVE",
"516 -82 OFFCURVE",
"523 63 CURVE",
"542 26 OFFCURVE",
"587 0 OFFCURVE",
"631 0 CURVE SMOOTH",
"686 0 OFFCURVE",
"716 19 OFFCURVE",
"716 72 CURVE SMOOTH",
"716 81 LINE SMOOTH",
"716 134 OFFCURVE",
"704 155 OFFCURVE",
"668 155 CURVE SMOOTH",
"575 155 OFFCURVE",
"517 223 OFFCURVE",
"458 396 CURVE SMOOTH",
"443 441 OFFCURVE",
"429 463 OFFCURVE",
"414 463 CURVE SMOOTH",
"401 463 OFFCURVE",
"384 446 OFFCURVE",
"365 412 CURVE SMOOTH",
"339 364 LINE SMOOTH",
"332 351 OFFCURVE",
"328 338 OFFCURVE",
"328 326 CURVE SMOOTH",
"328 317 OFFCURVE",
"332 305 OFFCURVE",
"340 290 CURVE SMOOTH",
"370 233 OFFCURVE",
"390 187 OFFCURVE",
"399 151 CURVE SMOOTH",
"409 113 OFFCURVE",
"414 86 OFFCURVE",
"414 70 CURVE SMOOTH",
"414 -10 OFFCURVE",
"386 -96 OFFCURVE",
"330 -163 CURVE SMOOTH",
"267 -238 OFFCURVE",
"180 -288 OFFCURVE",
"69 -295 CURVE"
);
},
{
closed = 1;
nodes = (
"325 1050 OFFCURVE",
"304 1036 OFFCURVE",
"276 1008 CURVE SMOOTH",
"253 985 OFFCURVE",
"234 959 OFFCURVE",
"234 948 CURVE SMOOTH",
"234 943 OFFCURVE",
"240 935 OFFCURVE",
"251 926 CURVE SMOOTH",
"273 909 OFFCURVE",
"293 890 OFFCURVE",
"311 868 CURVE SMOOTH",
"319 858 OFFCURVE",
"326 853 OFFCURVE",
"333 853 CURVE SMOOTH",
"340 853 OFFCURVE",
"346 856 OFFCURVE",
"352 863 CURVE",
"355 866 OFFCURVE",
"366 877 OFFCURVE",
"386 895 CURVE",
"392 902 OFFCURVE",
"403 913 OFFCURVE",
"418 928 CURVE SMOOTH",
"429 939 OFFCURVE",
"435 948 OFFCURVE",
"435 955 CURVE SMOOTH",
"435 961 OFFCURVE",
"431 970 OFFCURVE",
"424 982 CURVE",
"409 1005 OFFCURVE",
"369 1050 OFFCURVE",
"338 1050 CURVE SMOOTH"
);
}
);
width = 649;
}
);
note = uniFEB0;
unicode = FEB0;
},
{
glyphname = uni0633;
lastChange = "2017-05-01 10:57:08 +0000";
layers = (
{
layerId = "9BAC860F-5151-470B-96DF-6D043347F519";
paths = (
{
closed = 1;
nodes = (
"1575 406 OFFCURVE",
"1605 326 OFFCURVE",
"1605 282 CURVE SMOOTH",
"1605 211 OFFCURVE",
"1555 155 OFFCURVE",
"1459 155 CURVE SMOOTH",
"1359 155 OFFCURVE",
"1302 196 OFFCURVE",
"1302 275 CURVE SMOOTH",
"1302 312 OFFCURVE",
"1308 341 OFFCURVE",
"1320 361 CURVE",
"1331 382 OFFCURVE",
"1337 398 OFFCURVE",
"1337 410 CURVE SMOOTH",
"1337 421 OFFCURVE",
"1334 424 OFFCURVE",
"1315 424 CURVE SMOOTH",
"1307 424 OFFCURVE",
"1294 422 OFFCURVE",
"1276 419 CURVE",
"1235 408 OFFCURVE",
"1210 375 OFFCURVE",
"1201 354 CURVE",
"1186 315 OFFCURVE",
"1175 286 OFFCURVE",
"1170 267 CURVE",
"1162 242 OFFCURVE",
"1153 221 OFFCURVE",
"1143 204 CURVE SMOOTH",
"1122 169 OFFCURVE",
"1092 155 OFFCURVE",
"1033 155 CURVE SMOOTH",
"956 155 OFFCURVE",
"912 188 OFFCURVE",
"890 224 CURVE SMOOTH",
"868 260 OFFCURVE",
"857 317 OFFCURVE",
"854 329 CURVE SMOOTH",
"848 352 OFFCURVE",
"838 382 OFFCURVE",
"824 419 CURVE",
"811 461 OFFCURVE",
"798 482 OFFCURVE",
"784 482 CURVE SMOOTH",
"776 482 OFFCURVE",
"766 474 OFFCURVE",
"753 459 CURVE SMOOTH",
"727 427 OFFCURVE",
"702 379 OFFCURVE",
"702 352 CURVE SMOOTH",
"702 335 OFFCURVE",
"708 319 OFFCURVE",
"721 287 CURVE",
"758 212 OFFCURVE",
"775 150 OFFCURVE",
"775 70 CURVE SMOOTH",
"775 17 OFFCURVE",
"749 -49 OFFCURVE",
"696 -101 CURVE SMOOTH",
"635 -162 OFFCURVE",
"537 -201 OFFCURVE",
"400 -201 CURVE SMOOTH",
"209 -201 OFFCURVE",
"118 -113 OFFCURVE",
"118 44 CURVE SMOOTH",
"118 99 OFFCURVE",
"130 150 OFFCURVE",
"151 203 CURVE SMOOTH",
"155 214 OFFCURVE",
"157 224 OFFCURVE",
"157 231 CURVE SMOOTH",
"157 238 OFFCURVE",
"152 241 OFFCURVE",
"142 241 CURVE SMOOTH",
"101 240 OFFCURVE",
"80 232 OFFCURVE",
"68 213 CURVE",
"40 173 OFFCURVE",
"0 65 OFFCURVE",
"0 -24 CURVE SMOOTH",
"0 -239 OFFCURVE",
"142 -359 OFFCURVE",
"387 -359 CURVE SMOOTH",
"507 -359 OFFCURVE",
"619 -322 OFFCURVE",
"707 -253 CURVE SMOOTH",
"799 -180 OFFCURVE",
"860 -76 OFFCURVE",
"876 55 CURVE",
"916 16 OFFCURVE",
"971 0 OFFCURVE",
"1026 0 CURVE SMOOTH",
"1139 0 OFFCURVE",
"1199 43 OFFCURVE",
"1246 140 CURVE",
"1266 53 OFFCURVE",
"1341 0 OFFCURVE",
"1454 0 CURVE SMOOTH",
"1525 0 OFFCURVE",
"1589 32 OFFCURVE",
"1637 89 CURVE SMOOTH",
"1686 148 OFFCURVE",
"1716 231 OFFCURVE",
"1716 326 CURVE SMOOTH",
"1716 422 OFFCURVE",
"1689 521 OFFCURVE",
"1662 590 CURVE SMOOTH",
"1649 625 OFFCURVE",
"1634 642 OFFCURVE",
"1619 642 CURVE SMOOTH",
"1610 642 OFFCURVE",
"1599 632 OFFCURVE",
"1585 613 CURVE SMOOTH",
"1557 573 OFFCURVE",
"1531 514 OFFCURVE",
"1531 493 CURVE SMOOTH",
"1531 483 OFFCURVE",
"1533 474 OFFCURVE",
"1538 467 CURVE"
);
}
);
width = 1857;
}
);
note = uni0633;
unicode = 0633;
},
{
glyphname = uniFEB3;
lastChange = "2017-05-01 10:57:08 +0000";
layers = (
{
layerId = "9BAC860F-5151-470B-96DF-6D043347F519";
paths = (
{
closed = 1;
nodes = (
"-32 155 OFFCURVE",
"-65 130 OFFCURVE",
"-65 81 CURVE SMOOTH",
"-65 70 LINE SMOOTH",
"-65 25 OFFCURVE",
"-44 0 OFFCURVE",
"-17 0 CURVE SMOOTH",
"87 0 OFFCURVE",
"154 10 OFFCURVE",
"198 34 CURVE",
"241 55 OFFCURVE",
"269 88 OFFCURVE",
"298 140 CURVE",
"333 41 OFFCURVE",
"418 0 OFFCURVE",
"521 0 CURVE SMOOTH",
"636 0 OFFCURVE",
"694 43 OFFCURVE",
"743 140 CURVE",
"759 55 OFFCURVE",
"836 0 OFFCURVE",
"949 0 CURVE SMOOTH",
"1021 0 OFFCURVE",
"1085 32 OFFCURVE",
"1133 89 CURVE SMOOTH",
"1182 148 OFFCURVE",
"1211 231 OFFCURVE",
"1211 326 CURVE SMOOTH",
"1211 422 OFFCURVE",
"1184 521 OFFCURVE",
"1158 590 CURVE SMOOTH",
"1145 625 OFFCURVE",
"1131 642 OFFCURVE",
"1116 642 CURVE SMOOTH",
"1107 642 OFFCURVE",
"1095 632 OFFCURVE",
"1081 613 CURVE SMOOTH",
"1053 573 OFFCURVE",
"1027 516 OFFCURVE",
"1027 493 CURVE SMOOTH",
"1027 484 OFFCURVE",
"1030 476 OFFCURVE",
"1035 467 CURVE SMOOTH",
"1071 406 OFFCURVE",
"1100 326 OFFCURVE",
"1100 282 CURVE SMOOTH",
"1100 211 OFFCURVE",
"1052 155 OFFCURVE",
"955 155 CURVE SMOOTH",
"858 155 OFFCURVE",
"798 196 OFFCURVE",
"798 267 CURVE SMOOTH",
"798 307 OFFCURVE",
"804 338 OFFCURVE",
"816 361 CURVE",
"827 385 OFFCURVE",
"833 401 OFFCURVE",
"833 410 CURVE SMOOTH",
"833 421 OFFCURVE",
"830 424 OFFCURVE",
"811 424 CURVE SMOOTH",
"802 424 OFFCURVE",
"790 422 OFFCURVE",
"773 419 CURVE",
"728 408 OFFCURVE",
"708 378 OFFCURVE",
"683 321 CURVE",
"659 256 OFFCURVE",
"643 221 OFFCURVE",
"620 196 CURVE SMOOTH",
"595 168 OFFCURVE",
"560 155 OFFCURVE",
"505 155 CURVE SMOOTH",
"406 155 OFFCURVE",
"348 198 OFFCURVE",
"348 269 CURVE SMOOTH",
"348 310 OFFCURVE",
"354 340 OFFCURVE",
"366 361 CURVE SMOOTH",
"378 382 OFFCURVE",
"384 399 OFFCURVE",
"384 410 CURVE SMOOTH",
"384 419 OFFCURVE",
"378 424 OFFCURVE",
"361 424 CURVE SMOOTH",
"354 424 OFFCURVE",
"341 422 OFFCURVE",
"322 419 CURVE",
"287 410 OFFCURVE",
"262 389 OFFCURVE",
"247 354 CURVE",
"219 273 OFFCURVE",
"202 233 OFFCURVE",
"174 202 CURVE SMOOTH",
"143 169 OFFCURVE",
"99 155 OFFCURVE",
"20 155 CURVE SMOOTH"
);
}
);
width = 1351;
}
);
note = uniFEB3;
unicode = FEB3;
},
{
glyphname = uniFEB4;
lastChange = "2017-05-01 10:57:08 +0000";
layers = (
{
layerId = "9BAC860F-5151-470B-96DF-6D043347F519";
paths = (
{
closed = 1;
nodes = (
"1015 0 OFFCURVE",
"1084 41 OFFCURVE",
"1141 123 CURVE",
"1183 41 OFFCURVE",
"1258 0 OFFCURVE",
"1366 0 CURVE SMOOTH",
"1422 0 OFFCURVE",
"1451 19 OFFCURVE",
"1451 72 CURVE SMOOTH",
"1451 81 LINE SMOOTH",
"1451 134 OFFCURVE",
"1439 155 OFFCURVE",
"1403 155 CURVE SMOOTH",
"1358 155 OFFCURVE",
"1323 162 OFFCURVE",
"1296 175 CURVE",
"1245 202 OFFCURVE",
"1218 242 OFFCURVE",
"1205 299 CURVE SMOOTH",
"1196 335 OFFCURVE",
"1188 361 OFFCURVE",
"1183 378 CURVE SMOOTH",
"1169 430 LINE",
"1165 443 OFFCURVE",
"1158 450 OFFCURVE",
"1149 450 CURVE SMOOTH",
"1143 450 OFFCURVE",
"1134 446 OFFCURVE",
"1123 439 CURVE SMOOTH",
"1076 407 OFFCURVE",
"1065 380 OFFCURVE",
"1065 359 CURVE SMOOTH",
"1065 350 LINE",
"1068 322 OFFCURVE",
"1077 285 OFFCURVE",
"1090 240 CURVE",
"1063 192 OFFCURVE",
"1010 155 OFFCURVE",
"938 155 CURVE SMOOTH",
"853 155 OFFCURVE",
"798 196 OFFCURVE",
"798 267 CURVE SMOOTH",
"798 307 OFFCURVE",
"804 338 OFFCURVE",
"816 361 CURVE",
"827 385 OFFCURVE",
"833 401 OFFCURVE",
"833 410 CURVE SMOOTH",
"833 421 OFFCURVE",
"830 424 OFFCURVE",
"811 424 CURVE SMOOTH",
"802 424 OFFCURVE",
"790 422 OFFCURVE",
"773 419 CURVE",
"728 408 OFFCURVE",
"708 378 OFFCURVE",
"683 321 CURVE",
"659 256 OFFCURVE",
"643 221 OFFCURVE",
"620 196 CURVE SMOOTH",
"595 168 OFFCURVE",
"560 155 OFFCURVE",
"505 155 CURVE SMOOTH",
"406 155 OFFCURVE",
"348 198 OFFCURVE",
"348 269 CURVE SMOOTH",
"348 310 OFFCURVE",
"354 340 OFFCURVE",
"366 361 CURVE SMOOTH",
"378 382 OFFCURVE",
"384 399 OFFCURVE",
"384 410 CURVE SMOOTH",
"384 419 OFFCURVE",
"378 424 OFFCURVE",
"361 424 CURVE SMOOTH",
"354 424 OFFCURVE",
"341 422 OFFCURVE",
"322 419 CURVE",
"287 410 OFFCURVE",
"262 389 OFFCURVE",
"247 354 CURVE",
"219 273 OFFCURVE",
"202 233 OFFCURVE",
"174 202 CURVE SMOOTH",
"143 169 OFFCURVE",
"99 155 OFFCURVE",
"20 155 CURVE SMOOTH",
"-32 155 OFFCURVE",
"-65 130 OFFCURVE",
"-65 81 CURVE SMOOTH",
"-65 70 LINE SMOOTH",
"-65 25 OFFCURVE",
"-44 0 OFFCURVE",
"-17 0 CURVE SMOOTH",
"87 0 OFFCURVE",
"154 10 OFFCURVE",
"198 34 CURVE",
"241 55 OFFCURVE",
"269 88 OFFCURVE",
"298 140 CURVE",
"333 41 OFFCURVE",
"418 0 OFFCURVE",
"521 0 CURVE SMOOTH",
"636 0 OFFCURVE",
"694 43 OFFCURVE",
"743 140 CURVE",
"759 55 OFFCURVE",
"830 0 OFFCURVE",
"933 0 CURVE SMOOTH"
);
}
);
width = 1382;
}
);
note = uniFEB4;
unicode = FEB4;
},
{
glyphname = uniFEB2;
lastChange = "2017-05-01 10:57:08 +0000";
layers = (
{
layerId = "9BAC860F-5151-470B-96DF-6D043347F519";
paths = (
{
closed = 1;
nodes = (
"1519 0 OFFCURVE",
"1582 50 OFFCURVE",
"1635 123 CURVE",
"1676 41 OFFCURVE",
"1751 0 OFFCURVE",
"1859 0 CURVE SMOOTH",
"1915 0 OFFCURVE",
"1944 19 OFFCURVE",
"1944 72 CURVE SMOOTH",
"1944 81 LINE SMOOTH",
"1944 134 OFFCURVE",
"1932 155 OFFCURVE",
"1896 155 CURVE SMOOTH",
"1851 155 OFFCURVE",
"1815 162 OFFCURVE",
"1790 175 CURVE SMOOTH",
"1739 202 OFFCURVE",
"1711 242 OFFCURVE",
"1698 299 CURVE",
"1677 378 LINE",
"1670 397 OFFCURVE",
"1665 415 OFFCURVE",
"1662 430 CURVE",
"1658 443 OFFCURVE",
"1651 450 OFFCURVE",
"1642 450 CURVE SMOOTH",
"1636 450 OFFCURVE",
"1627 446 OFFCURVE",
"1616 439 CURVE SMOOTH",
"1569 407 OFFCURVE",
"1559 382 OFFCURVE",
"1559 359 CURVE SMOOTH",
"1559 350 LINE",
"1563 315 OFFCURVE",
"1571 278 OFFCURVE",
"1582 240 CURVE",
"1555 192 OFFCURVE",
"1503 155 OFFCURVE",
"1431 155 CURVE SMOOTH",
"1344 155 OFFCURVE",
"1291 198 OFFCURVE",
"1291 275 CURVE SMOOTH",
"1291 312 OFFCURVE",
"1297 341 OFFCURVE",
"1309 361 CURVE SMOOTH",
"1321 381 OFFCURVE",
"1327 397 OFFCURVE",
"1327 410 CURVE SMOOTH",
"1327 419 OFFCURVE",
"1323 424 OFFCURVE",
"1304 424 CURVE SMOOTH",
"1297 424 OFFCURVE",
"1284 422 OFFCURVE",
"1265 419 CURVE",
"1244 414 OFFCURVE",
"1228 404 OFFCURVE",
"1216 391 CURVE SMOOTH",
"1191 363 OFFCURVE",
"1191 357 OFFCURVE",
"1180 328 CURVE SMOOTH",
"1151 255 OFFCURVE",
"1138 226 OFFCURVE",
"1121 201 CURVE",
"1097 169 OFFCURVE",
"1065 155 OFFCURVE",
"1018 155 CURVE SMOOTH",
"955 155 OFFCURVE",
"910 188 OFFCURVE",
"889 225 CURVE SMOOTH",
"868 261 OFFCURVE",
"857 317 OFFCURVE",
"854 329 CURVE SMOOTH",
"848 352 OFFCURVE",
"838 382 OFFCURVE",
"824 419 CURVE",
"811 461 OFFCURVE",
"798 482 OFFCURVE",
"784 482 CURVE SMOOTH",
"776 482 OFFCURVE",
"766 474 OFFCURVE",
"753 459 CURVE SMOOTH",
"727 427 OFFCURVE",
"702 379 OFFCURVE",
"702 352 CURVE SMOOTH",
"702 335 OFFCURVE",
"708 319 OFFCURVE",
"721 287 CURVE",
"758 212 OFFCURVE",
"775 150 OFFCURVE",
"775 70 CURVE SMOOTH",
"775 17 OFFCURVE",
"749 -49 OFFCURVE",
"696 -101 CURVE SMOOTH",
"635 -162 OFFCURVE",
"537 -201 OFFCURVE",
"400 -201 CURVE SMOOTH",
"209 -201 OFFCURVE",
"118 -113 OFFCURVE",
"118 44 CURVE SMOOTH",
"118 99 OFFCURVE",
"130 150 OFFCURVE",
"151 203 CURVE SMOOTH",
"155 214 OFFCURVE",
"157 224 OFFCURVE",
"157 231 CURVE SMOOTH",
"157 238 OFFCURVE",
"152 241 OFFCURVE",
"142 241 CURVE SMOOTH",
"101 240 OFFCURVE",
"80 232 OFFCURVE",
"68 213 CURVE",
"40 173 OFFCURVE",
"0 65 OFFCURVE",
"0 -24 CURVE SMOOTH",
"0 -239 OFFCURVE",
"142 -359 OFFCURVE",
"387 -359 CURVE SMOOTH",
"507 -359 OFFCURVE",
"619 -322 OFFCURVE",
"707 -253 CURVE SMOOTH",
"799 -180 OFFCURVE",
"860 -76 OFFCURVE",
"876 55 CURVE",
"916 16 OFFCURVE",
"971 0 OFFCURVE",
"1026 0 CURVE SMOOTH",
"1133 0 OFFCURVE",
"1185 45 OFFCURVE",
"1236 140 CURVE",
"1252 55 OFFCURVE",
"1323 0 OFFCURVE",
"1426 0 CURVE SMOOTH"
);
}
);
width = 1876;
}
);
note = uniFEB2;
unicode = FEB2;
},
{
glyphname = uni0634;
lastChange = "2017-05-01 10:57:08 +0000";
layers = (
{
layerId = "9BAC860F-5151-470B-96DF-6D043347F519";
paths = (
{
closed = 1;
nodes = (
"1575 406 OFFCURVE",
"1605 326 OFFCURVE",
"1605 282 CURVE SMOOTH",
"1605 211 OFFCURVE",
"1555 155 OFFCURVE",
"1459 155 CURVE SMOOTH",
"1359 155 OFFCURVE",
"1302 196 OFFCURVE",
"1302 275 CURVE SMOOTH",
"1302 312 OFFCURVE",
"1308 341 OFFCURVE",
"1320 361 CURVE",
"1331 382 OFFCURVE",
"1337 398 OFFCURVE",
"1337 410 CURVE SMOOTH",
"1337 421 OFFCURVE",
"1334 424 OFFCURVE",
"1315 424 CURVE SMOOTH",
"1307 424 OFFCURVE",
"1294 422 OFFCURVE",
"1276 419 CURVE",
"1235 408 OFFCURVE",
"1210 375 OFFCURVE",
"1201 354 CURVE",
"1186 315 OFFCURVE",
"1175 286 OFFCURVE",
"1170 267 CURVE",
"1162 242 OFFCURVE",
"1153 221 OFFCURVE",
"1143 204 CURVE SMOOTH",
"1122 169 OFFCURVE",
"1092 155 OFFCURVE",
"1033 155 CURVE SMOOTH",
"956 155 OFFCURVE",
"912 188 OFFCURVE",
"890 224 CURVE SMOOTH",
"868 260 OFFCURVE",
"857 317 OFFCURVE",
"854 329 CURVE SMOOTH",
"848 352 OFFCURVE",
"838 382 OFFCURVE",
"824 419 CURVE",
"811 461 OFFCURVE",
"798 482 OFFCURVE",
"784 482 CURVE SMOOTH",
"776 482 OFFCURVE",
"766 474 OFFCURVE",
"753 459 CURVE SMOOTH",
"727 427 OFFCURVE",
"702 379 OFFCURVE",
"702 352 CURVE SMOOTH",
"702 335 OFFCURVE",
"708 319 OFFCURVE",
"721 287 CURVE",
"758 212 OFFCURVE",
"775 150 OFFCURVE",
"775 70 CURVE SMOOTH",
"775 17 OFFCURVE",
"749 -49 OFFCURVE",
"696 -101 CURVE SMOOTH",
"635 -162 OFFCURVE",
"537 -201 OFFCURVE",
"400 -201 CURVE SMOOTH",
"209 -201 OFFCURVE",
"118 -113 OFFCURVE",
"118 44 CURVE SMOOTH",
"118 99 OFFCURVE",
"130 150 OFFCURVE",
"151 203 CURVE SMOOTH",
"155 214 OFFCURVE",
"157 224 OFFCURVE",
"157 231 CURVE SMOOTH",
"157 238 OFFCURVE",
"152 241 OFFCURVE",
"142 241 CURVE SMOOTH",
"101 240 OFFCURVE",
"80 232 OFFCURVE",
"68 213 CURVE",
"40 173 OFFCURVE",
"0 65 OFFCURVE",
"0 -24 CURVE SMOOTH",
"0 -239 OFFCURVE",
"142 -359 OFFCURVE",
"387 -359 CURVE SMOOTH",
"507 -359 OFFCURVE",
"619 -322 OFFCURVE",
"707 -253 CURVE SMOOTH",
"799 -180 OFFCURVE",
"860 -76 OFFCURVE",
"876 55 CURVE",
"916 16 OFFCURVE",
"971 0 OFFCURVE",
"1026 0 CURVE SMOOTH",
"1139 0 OFFCURVE",
"1199 43 OFFCURVE",
"1246 140 CURVE",
"1266 53 OFFCURVE",
"1341 0 OFFCURVE",
"1454 0 CURVE SMOOTH",
"1525 0 OFFCURVE",
"1589 32 OFFCURVE",
"1637 89 CURVE SMOOTH",
"1686 148 OFFCURVE",
"1716 231 OFFCURVE",
"1716 326 CURVE SMOOTH",
"1716 422 OFFCURVE",
"1689 521 OFFCURVE",
"1662 590 CURVE SMOOTH",
"1649 625 OFFCURVE",
"1634 642 OFFCURVE",
"1619 642 CURVE SMOOTH",
"1610 642 OFFCURVE",
"1599 632 OFFCURVE",
"1585 613 CURVE SMOOTH",
"1557 573 OFFCURVE",
"1531 514 OFFCURVE",
"1531 493 CURVE SMOOTH",
"1531 483 OFFCURVE",
"1533 474 OFFCURVE",
"1538 467 CURVE"
);
},
{
closed = 1;
nodes = (
"1072 1077 OFFCURVE",
"1045 1058 OFFCURVE",
"1022 1035 CURVE SMOOTH",
"1001 1014 OFFCURVE",
"982 986 OFFCURVE",
"982 975 CURVE SMOOTH",
"982 969 OFFCURVE",
"987 962 OFFCURVE",
"998 953 CURVE SMOOTH",
"1024 932 OFFCURVE",
"1044 913 OFFCURVE",
"1058 895 CURVE SMOOTH",
"1066 885 OFFCURVE",
"1073 880 OFFCURVE",
"1079 880 CURVE SMOOTH",
"1086 880 OFFCURVE",
"1093 883 OFFCURVE",
"1099 890 CURVE SMOOTH",
"1103 895 OFFCURVE",
"1114 906 OFFCURVE",
"1132 922 CURVE",
"1165 955 LINE",
"1177 966 OFFCURVE",
"1183 975 OFFCURVE",
"1183 982 CURVE SMOOTH",
"1183 994 OFFCURVE",
"1166 1020 OFFCURVE",
"1146 1040 CURVE SMOOTH",
"1121 1065 OFFCURVE",
"1101 1077 OFFCURVE",
"1084 1077 CURVE SMOOTH"
);
},
{
closed = 1;
nodes = (
"1314 1077 OFFCURVE",
"1292 1063 OFFCURVE",
"1263 1035 CURVE SMOOTH",
"1240 1014 OFFCURVE",
"1223 987 OFFCURVE",
"1223 975 CURVE SMOOTH",
"1223 970 OFFCURVE",
"1229 962 OFFCURVE",
"1240 953 CURVE SMOOTH",
"1264 934 OFFCURVE",
"1284 915 OFFCURVE",
"1300 895 CURVE",
"1307 885 OFFCURVE",
"1313 880 OFFCURVE",
"1320 880 CURVE SMOOTH",
"1329 880 OFFCURVE",
"1335 883 OFFCURVE",
"1340 890 CURVE",
"1343 893 OFFCURVE",
"1354 904 OFFCURVE",
"1374 922 CURVE",
"1377 925 OFFCURVE",
"1383 931 OFFCURVE",
"1391 939 CURVE SMOOTH",
"1407 955 OFFCURVE",
"1424 973 OFFCURVE",
"1424 982 CURVE SMOOTH",
"1424 988 OFFCURVE",
"1420 997 OFFCURVE",
"1413 1008 CURVE SMOOTH",
"1398 1031 OFFCURVE",
"1358 1077 OFFCURVE",
"1327 1077 CURVE SMOOTH"
);
},
{
closed = 1;
nodes = (
"1195 1300 OFFCURVE",
"1174 1286 OFFCURVE",
"1145 1258 CURVE SMOOTH",
"1124 1237 OFFCURVE",
"1105 1208 OFFCURVE",
"1105 1199 CURVE SMOOTH",
"1105 1194 OFFCURVE",
"1111 1186 OFFCURVE",
"1122 1177 CURVE SMOOTH",
"1140 1163 OFFCURVE",
"1160 1143 OFFCURVE",
"1181 1118 CURVE SMOOTH",
"1189 1108 OFFCURVE",
"1196 1103 OFFCURVE",
"1202 1103 CURVE SMOOTH",
"1211 1103 OFFCURVE",
"1217 1106 OFFCURVE",
"1222 1113 CURVE",
"1226 1118 OFFCURVE",
"1237 1129 OFFCURVE",
"1256 1146 CURVE",
"1273 1163 OFFCURVE",
"1286 1175 OFFCURVE",
"1294 1184 CURVE",
"1302 1192 OFFCURVE",
"1306 1199 OFFCURVE",
"1306 1204 CURVE SMOOTH",
"1306 1216 OFFCURVE",
"1289 1241 OFFCURVE",
"1269 1264 CURVE",
"1244 1288 OFFCURVE",
"1223 1300 OFFCURVE",
"1208 1300 CURVE SMOOTH"
);
}
);
width = 1857;
}
);
note = uni0634;
unicode = 0634;
},
{
glyphname = uniFEB7;
lastChange = "2017-05-01 10:57:08 +0000";
layers = (
{
layerId = "9BAC860F-5151-470B-96DF-6D043347F519";
paths = (
{
closed = 1;
nodes = (
"-32 155 OFFCURVE",
"-65 130 OFFCURVE",
"-65 81 CURVE SMOOTH",
"-65 70 LINE SMOOTH",
"-65 25 OFFCURVE",
"-44 0 OFFCURVE",
"-17 0 CURVE SMOOTH",
"87 0 OFFCURVE",
"154 10 OFFCURVE",
"198 34 CURVE",
"241 55 OFFCURVE",
"269 88 OFFCURVE",
"298 140 CURVE",
"333 41 OFFCURVE",
"418 0 OFFCURVE",
"521 0 CURVE SMOOTH",
"636 0 OFFCURVE",
"694 43 OFFCURVE",
"743 140 CURVE",
"759 55 OFFCURVE",
"836 0 OFFCURVE",
"949 0 CURVE SMOOTH",
"1021 0 OFFCURVE",
"1085 32 OFFCURVE",
"1133 89 CURVE SMOOTH",
"1182 148 OFFCURVE",
"1211 231 OFFCURVE",
"1211 326 CURVE SMOOTH",
"1211 422 OFFCURVE",
"1184 521 OFFCURVE",
"1158 590 CURVE SMOOTH",
"1145 625 OFFCURVE",
"1131 642 OFFCURVE",
"1116 642 CURVE SMOOTH",
"1107 642 OFFCURVE",
"1095 632 OFFCURVE",
"1081 613 CURVE SMOOTH",
"1053 573 OFFCURVE",
"1027 516 OFFCURVE",
"1027 493 CURVE SMOOTH",
"1027 484 OFFCURVE",
"1030 476 OFFCURVE",
"1035 467 CURVE SMOOTH",
"1071 406 OFFCURVE",
"1100 326 OFFCURVE",
"1100 282 CURVE SMOOTH",
"1100 211 OFFCURVE",
"1052 155 OFFCURVE",
"955 155 CURVE SMOOTH",
"858 155 OFFCURVE",
"798 196 OFFCURVE",
"798 267 CURVE SMOOTH",
"798 307 OFFCURVE",
"804 338 OFFCURVE",
"816 361 CURVE",
"827 385 OFFCURVE",
"833 401 OFFCURVE",
"833 410 CURVE SMOOTH",
"833 421 OFFCURVE",
"830 424 OFFCURVE",
"811 424 CURVE SMOOTH",
"802 424 OFFCURVE",
"790 422 OFFCURVE",
"773 419 CURVE",
"728 408 OFFCURVE",
"708 378 OFFCURVE",
"683 321 CURVE",
"659 256 OFFCURVE",
"643 221 OFFCURVE",
"620 196 CURVE SMOOTH",
"595 168 OFFCURVE",
"560 155 OFFCURVE",
"505 155 CURVE SMOOTH",
"406 155 OFFCURVE",
"348 198 OFFCURVE",
"348 269 CURVE SMOOTH",
"348 310 OFFCURVE",
"354 340 OFFCURVE",
"366 361 CURVE SMOOTH",
"378 382 OFFCURVE",
"384 399 OFFCURVE",
"384 410 CURVE SMOOTH",
"384 419 OFFCURVE",
"378 424 OFFCURVE",
"361 424 CURVE SMOOTH",
"354 424 OFFCURVE",
"341 422 OFFCURVE",
"322 419 CURVE",
"287 410 OFFCURVE",
"262 389 OFFCURVE",
"247 354 CURVE",
"219 273 OFFCURVE",
"202 233 OFFCURVE",
"174 202 CURVE SMOOTH",
"143 169 OFFCURVE",
"99 155 OFFCURVE",
"20 155 CURVE SMOOTH"
);
},
{
closed = 1;
nodes = (
"623 1077 OFFCURVE",
"602 1063 OFFCURVE",
"573 1035 CURVE SMOOTH",
"550 1014 OFFCURVE",
"533 987 OFFCURVE",
"533 975 CURVE SMOOTH",
"533 969 OFFCURVE",
"538 962 OFFCURVE",
"549 953 CURVE SMOOTH",
"575 932 OFFCURVE",
"595 913 OFFCURVE",
"609 895 CURVE SMOOTH",
"617 885 OFFCURVE",
"624 880 OFFCURVE",
"630 880 CURVE SMOOTH",
"637 880 OFFCURVE",
"644 883 OFFCURVE",
"650 890 CURVE SMOOTH",
"654 895 OFFCURVE",
"665 906 OFFCURVE",
"683 922 CURVE",
"700 939 OFFCURVE",
"713 952 OFFCURVE",
"722 961 CURVE",
"730 970 OFFCURVE",
"734 977 OFFCURVE",
"734 982 CURVE SMOOTH",
"734 988 OFFCURVE",
"730 997 OFFCURVE",
"723 1008 CURVE SMOOTH",
"708 1031 OFFCURVE",
"668 1077 OFFCURVE",
"636 1077 CURVE SMOOTH"
);
},
{
closed = 1;
nodes = (
"864 1077 OFFCURVE",
"843 1063 OFFCURVE",
"815 1035 CURVE SMOOTH",
"792 1012 OFFCURVE",
"774 986 OFFCURVE",
"774 975 CURVE SMOOTH",
"774 970 OFFCURVE",
"780 962 OFFCURVE",
"791 953 CURVE SMOOTH",
"813 936 OFFCURVE",
"833 917 OFFCURVE",
"851 895 CURVE SMOOTH",
"859 885 OFFCURVE",
"866 880 OFFCURVE",
"872 880 CURVE SMOOTH",
"879 880 OFFCURVE",
"886 883 OFFCURVE",
"892 890 CURVE",
"895 893 OFFCURVE",
"906 904 OFFCURVE",
"926 922 CURVE",
"932 929 OFFCURVE",
"943 940 OFFCURVE",
"958 955 CURVE SMOOTH",
"969 966 OFFCURVE",
"975 975 OFFCURVE",
"975 982 CURVE SMOOTH",
"975 987 OFFCURVE",
"971 996 OFFCURVE",
"964 1009 CURVE",
"944 1040 OFFCURVE",
"906 1077 OFFCURVE",
"878 1077 CURVE SMOOTH"
);
},
{
closed = 1;
nodes = (
"746 1300 OFFCURVE",
"725 1286 OFFCURVE",
"697 1258 CURVE SMOOTH",
"676 1237 OFFCURVE",
"656 1208 OFFCURVE",
"656 1199 CURVE SMOOTH",
"656 1194 OFFCURVE",
"662 1186 OFFCURVE",
"673 1177 CURVE SMOOTH",
"687 1166 OFFCURVE",
"707 1147 OFFCURVE",
"733 1118 CURVE",
"741 1108 OFFCURVE",
"748 1103 OFFCURVE",
"754 1103 CURVE SMOOTH",
"761 1103 OFFCURVE",
"768 1106 OFFCURVE",
"774 1113 CURVE SMOOTH",
"778 1118 OFFCURVE",
"789 1129 OFFCURVE",
"808 1146 CURVE",
"811 1149 OFFCURVE",
"817 1155 OFFCURVE",
"825 1163 CURVE SMOOTH",
"841 1178 OFFCURVE",
"857 1195 OFFCURVE",
"857 1204 CURVE SMOOTH",
"857 1211 OFFCURVE",
"853 1220 OFFCURVE",
"846 1231 CURVE SMOOTH",
"826 1262 OFFCURVE",
"787 1300 OFFCURVE",
"759 1300 CURVE SMOOTH"
);
}
);
width = 1351;
}
);
note = uniFEB7;
unicode = FEB7;
},
{
glyphname = uniFEB8;
lastChange = "2017-05-01 10:57:08 +0000";
layers = (
{
layerId = "9BAC860F-5151-470B-96DF-6D043347F519";
paths = (
{
closed = 1;
nodes = (
"1015 0 OFFCURVE",
"1084 41 OFFCURVE",
"1141 123 CURVE",
"1183 41 OFFCURVE",
"1258 0 OFFCURVE",
"1366 0 CURVE SMOOTH",
"1422 0 OFFCURVE",
"1451 19 OFFCURVE",
"1451 72 CURVE SMOOTH",
"1451 81 LINE SMOOTH",
"1451 134 OFFCURVE",
"1439 155 OFFCURVE",
"1403 155 CURVE SMOOTH",
"1358 155 OFFCURVE",
"1323 162 OFFCURVE",
"1296 175 CURVE",
"1245 202 OFFCURVE",
"1218 242 OFFCURVE",
"1205 299 CURVE SMOOTH",
"1196 335 OFFCURVE",
"1188 361 OFFCURVE",
"1183 378 CURVE SMOOTH",
"1169 430 LINE",
"1165 443 OFFCURVE",
"1158 450 OFFCURVE",
"1149 450 CURVE SMOOTH",
"1143 450 OFFCURVE",
"1134 446 OFFCURVE",
"1123 439 CURVE SMOOTH",
"1076 407 OFFCURVE",
"1065 380 OFFCURVE",
"1065 359 CURVE SMOOTH",
"1065 350 LINE",
"1068 322 OFFCURVE",
"1077 285 OFFCURVE",
"1090 240 CURVE",
"1063 192 OFFCURVE",
"1010 155 OFFCURVE",
"938 155 CURVE SMOOTH",
"853 155 OFFCURVE",
"798 196 OFFCURVE",
"798 267 CURVE SMOOTH",
"798 307 OFFCURVE",
"804 338 OFFCURVE",
"816 361 CURVE",
"827 385 OFFCURVE",
"833 401 OFFCURVE",
"833 410 CURVE SMOOTH",
"833 421 OFFCURVE",
"830 424 OFFCURVE",
"811 424 CURVE SMOOTH",
"802 424 OFFCURVE",
"790 422 OFFCURVE",
"773 419 CURVE",
"728 408 OFFCURVE",
"708 378 OFFCURVE",
"683 321 CURVE",
"659 256 OFFCURVE",
"643 221 OFFCURVE",
"620 196 CURVE SMOOTH",
"595 168 OFFCURVE",
"560 155 OFFCURVE",
"505 155 CURVE SMOOTH",
"406 155 OFFCURVE",
"348 198 OFFCURVE",
"348 269 CURVE SMOOTH",
"348 310 OFFCURVE",
"354 340 OFFCURVE",
"366 361 CURVE SMOOTH",
"378 382 OFFCURVE",
"384 399 OFFCURVE",
"384 410 CURVE SMOOTH",
"384 419 OFFCURVE",
"378 424 OFFCURVE",
"361 424 CURVE SMOOTH",
"354 424 OFFCURVE",
"341 422 OFFCURVE",
"322 419 CURVE",
"287 410 OFFCURVE",
"262 389 OFFCURVE",
"247 354 CURVE",
"219 273 OFFCURVE",
"202 233 OFFCURVE",
"174 202 CURVE SMOOTH",
"143 169 OFFCURVE",
"99 155 OFFCURVE",
"20 155 CURVE SMOOTH",
"-32 155 OFFCURVE",
"-65 130 OFFCURVE",
"-65 81 CURVE SMOOTH",
"-65 70 LINE SMOOTH",
"-65 25 OFFCURVE",
"-44 0 OFFCURVE",
"-17 0 CURVE SMOOTH",
"87 0 OFFCURVE",
"154 10 OFFCURVE",
"198 34 CURVE",
"241 55 OFFCURVE",
"269 88 OFFCURVE",
"298 140 CURVE",
"333 41 OFFCURVE",
"418 0 OFFCURVE",
"521 0 CURVE SMOOTH",
"636 0 OFFCURVE",
"694 43 OFFCURVE",
"743 140 CURVE",
"759 55 OFFCURVE",
"830 0 OFFCURVE",
"933 0 CURVE SMOOTH"
);
},
{
closed = 1;
nodes = (
"577 894 OFFCURVE",
"556 880 OFFCURVE",
"527 853 CURVE SMOOTH",
"504 832 OFFCURVE",
"486 804 OFFCURVE",
"486 793 CURVE SMOOTH",
"486 788 OFFCURVE",
"492 780 OFFCURVE",
"503 771 CURVE",
"526 754 OFFCURVE",
"546 734 OFFCURVE",
"563 712 CURVE SMOOTH",
"571 702 OFFCURVE",
"578 697 OFFCURVE",
"584 697 CURVE SMOOTH",
"591 697 OFFCURVE",
"598 701 OFFCURVE",
"604 708 CURVE SMOOTH",
"609 714 OFFCURVE",
"620 724 OFFCURVE",
"637 739 CURVE",
"640 742 OFFCURVE",
"646 748 OFFCURVE",
"655 757 CURVE SMOOTH",
"671 773 OFFCURVE",
"688 790 OFFCURVE",
"688 799 CURVE SMOOTH",
"688 805 OFFCURVE",
"684 814 OFFCURVE",
"677 825 CURVE SMOOTH",
"662 848 OFFCURVE",
"622 894 OFFCURVE",
"590 894 CURVE SMOOTH"
);
},
{
closed = 1;
nodes = (
"817 894 OFFCURVE",
"796 880 OFFCURVE",
"769 853 CURVE SMOOTH",
"746 830 OFFCURVE",
"728 804 OFFCURVE",
"728 793 CURVE SMOOTH",
"728 788 OFFCURVE",
"734 780 OFFCURVE",
"745 771 CURVE SMOOTH",
"762 758 OFFCURVE",
"782 738 OFFCURVE",
"805 712 CURVE",
"813 702 OFFCURVE",
"820 697 OFFCURVE",
"826 697 CURVE SMOOTH",
"833 697 OFFCURVE",
"840 701 OFFCURVE",
"846 708 CURVE",
"849 713 OFFCURVE",
"861 723 OFFCURVE",
"880 739 CURVE",
"886 746 OFFCURVE",
"897 758 OFFCURVE",
"912 773 CURVE SMOOTH",
"923 784 OFFCURVE",
"929 793 OFFCURVE",
"929 799 CURVE SMOOTH",
"929 811 OFFCURVE",
"912 838 OFFCURVE",
"892 857 CURVE SMOOTH",
"867 882 OFFCURVE",
"847 894 OFFCURVE",
"831 894 CURVE SMOOTH"
);
},
{
closed = 1;
nodes = (
"700 1118 OFFCURVE",
"679 1104 OFFCURVE",
"651 1076 CURVE SMOOTH",
"628 1053 OFFCURVE",
"610 1027 OFFCURVE",
"610 1016 CURVE SMOOTH",
"610 1010 OFFCURVE",
"616 1003 OFFCURVE",
"627 995 CURVE SMOOTH",
"644 982 OFFCURVE",
"664 962 OFFCURVE",
"687 935 CURVE SMOOTH",
"695 925 OFFCURVE",
"702 920 OFFCURVE",
"708 920 CURVE SMOOTH",
"715 920 OFFCURVE",
"722 923 OFFCURVE",
"728 930 CURVE SMOOTH",
"732 935 OFFCURVE",
"743 946 OFFCURVE",
"762 963 CURVE",
"765 966 OFFCURVE",
"771 971 OFFCURVE",
"779 979 CURVE SMOOTH",
"794 995 OFFCURVE",
"811 1013 OFFCURVE",
"811 1022 CURVE SMOOTH",
"811 1027 OFFCURVE",
"807 1036 OFFCURVE",
"800 1049 CURVE",
"780 1080 OFFCURVE",
"741 1118 OFFCURVE",
"713 1118 CURVE SMOOTH"
);
}
);
width = 1382;
}
);
note = uniFEB8;
unicode = FEB8;
},
{
glyphname = uniFEB6;
lastChange = "2017-05-01 10:57:08 +0000";
layers = (
{
layerId = "9BAC860F-5151-470B-96DF-6D043347F519";
paths = (
{
closed = 1;
nodes = (
"1519 0 OFFCURVE",
"1582 50 OFFCURVE",
"1635 123 CURVE",
"1676 41 OFFCURVE",
"1751 0 OFFCURVE",
"1859 0 CURVE SMOOTH",
"1915 0 OFFCURVE",
"1944 19 OFFCURVE",
"1944 72 CURVE SMOOTH",
"1944 81 LINE SMOOTH",
"1944 134 OFFCURVE",
"1932 155 OFFCURVE",
"1896 155 CURVE SMOOTH",
"1851 155 OFFCURVE",
"1815 162 OFFCURVE",
"1790 175 CURVE SMOOTH",
"1739 202 OFFCURVE",
"1711 242 OFFCURVE",
"1698 299 CURVE",
"1677 378 LINE",
"1670 397 OFFCURVE",
"1665 415 OFFCURVE",
"1662 430 CURVE",
"1658 443 OFFCURVE",
"1651 450 OFFCURVE",
"1642 450 CURVE SMOOTH",
"1636 450 OFFCURVE",
"1627 446 OFFCURVE",
"1616 439 CURVE SMOOTH",
"1569 407 OFFCURVE",
"1559 382 OFFCURVE",
"1559 359 CURVE SMOOTH",
"1559 350 LINE",
"1563 315 OFFCURVE",
"1571 278 OFFCURVE",
"1582 240 CURVE",
"1555 192 OFFCURVE",
"1503 155 OFFCURVE",
"1431 155 CURVE SMOOTH",
"1344 155 OFFCURVE",
"1291 198 OFFCURVE",
"1291 275 CURVE SMOOTH",
"1291 312 OFFCURVE",
"1297 341 OFFCURVE",
"1309 361 CURVE SMOOTH",
"1321 381 OFFCURVE",
"1327 397 OFFCURVE",
"1327 410 CURVE SMOOTH",
"1327 419 OFFCURVE",
"1323 424 OFFCURVE",
"1304 424 CURVE SMOOTH",
"1297 424 OFFCURVE",
"1284 422 OFFCURVE",
"1265 419 CURVE",
"1244 414 OFFCURVE",
"1228 404 OFFCURVE",
"1216 391 CURVE SMOOTH",
"1191 363 OFFCURVE",
"1191 357 OFFCURVE",
"1180 328 CURVE SMOOTH",
"1151 255 OFFCURVE",
"1138 226 OFFCURVE",
"1121 201 CURVE",
"1097 169 OFFCURVE",
"1065 155 OFFCURVE",
"1018 155 CURVE SMOOTH",
"955 155 OFFCURVE",
"910 188 OFFCURVE",
"889 225 CURVE SMOOTH",
"868 261 OFFCURVE",
"857 317 OFFCURVE",
"854 329 CURVE SMOOTH",
"848 352 OFFCURVE",
"838 382 OFFCURVE",
"824 419 CURVE",
"811 461 OFFCURVE",
"798 482 OFFCURVE",
"784 482 CURVE SMOOTH",
"776 482 OFFCURVE",
"766 474 OFFCURVE",
"753 459 CURVE SMOOTH",
"727 427 OFFCURVE",
"702 379 OFFCURVE",
"702 352 CURVE SMOOTH",
"702 335 OFFCURVE",
"708 319 OFFCURVE",
"721 287 CURVE",
"758 212 OFFCURVE",
"775 150 OFFCURVE",
"775 70 CURVE SMOOTH",
"775 17 OFFCURVE",
"749 -49 OFFCURVE",
"696 -101 CURVE SMOOTH",
"635 -162 OFFCURVE",
"537 -201 OFFCURVE",
"400 -201 CURVE SMOOTH",
"209 -201 OFFCURVE",
"118 -113 OFFCURVE",
"118 44 CURVE SMOOTH",
"118 99 OFFCURVE",
"130 150 OFFCURVE",
"151 203 CURVE SMOOTH",
"155 214 OFFCURVE",
"157 224 OFFCURVE",
"157 231 CURVE SMOOTH",
"157 238 OFFCURVE",
"152 241 OFFCURVE",
"142 241 CURVE SMOOTH",
"101 240 OFFCURVE",
"80 232 OFFCURVE",
"68 213 CURVE",
"40 173 OFFCURVE",
"0 65 OFFCURVE",
"0 -24 CURVE SMOOTH",
"0 -239 OFFCURVE",
"142 -359 OFFCURVE",
"387 -359 CURVE SMOOTH",
"507 -359 OFFCURVE",
"619 -322 OFFCURVE",
"707 -253 CURVE SMOOTH",
"799 -180 OFFCURVE",
"860 -76 OFFCURVE",
"876 55 CURVE",
"916 16 OFFCURVE",
"971 0 OFFCURVE",
"1026 0 CURVE SMOOTH",
"1133 0 OFFCURVE",
"1185 45 OFFCURVE",
"1236 140 CURVE",
"1252 55 OFFCURVE",
"1323 0 OFFCURVE",
"1426 0 CURVE SMOOTH"
);
},
{
closed = 1;
nodes = (
"1070 894 OFFCURVE",
"1049 880 OFFCURVE",
"1020 853 CURVE SMOOTH",
"997 832 OFFCURVE",
"979 804 OFFCURVE",
"979 793 CURVE SMOOTH",
"979 788 OFFCURVE",
"985 780 OFFCURVE",
"996 771 CURVE",
"1019 754 OFFCURVE",
"1039 734 OFFCURVE",
"1056 712 CURVE SMOOTH",
"1064 702 OFFCURVE",
"1071 697 OFFCURVE",
"1077 697 CURVE SMOOTH",
"1084 697 OFFCURVE",
"1091 701 OFFCURVE",
"1097 708 CURVE SMOOTH",
"1102 714 OFFCURVE",
"1113 724 OFFCURVE",
"1130 739 CURVE",
"1133 742 OFFCURVE",
"1139 748 OFFCURVE",
"1148 757 CURVE SMOOTH",
"1164 773 OFFCURVE",
"1181 790 OFFCURVE",
"1181 799 CURVE SMOOTH",
"1181 805 OFFCURVE",
"1177 814 OFFCURVE",
"1170 825 CURVE SMOOTH",
"1155 848 OFFCURVE",
"1115 894 OFFCURVE",
"1083 894 CURVE SMOOTH"
);
},
{
closed = 1;
nodes = (
"1310 894 OFFCURVE",
"1289 880 OFFCURVE",
"1262 853 CURVE SMOOTH",
"1239 830 OFFCURVE",
"1221 804 OFFCURVE",
"1221 793 CURVE SMOOTH",
"1221 788 OFFCURVE",
"1227 780 OFFCURVE",
"1238 771 CURVE",
"1257 757 OFFCURVE",
"1277 737 OFFCURVE",
"1297 712 CURVE SMOOTH",
"1305 702 OFFCURVE",
"1312 697 OFFCURVE",
"1319 697 CURVE SMOOTH",
"1326 697 OFFCURVE",
"1333 701 OFFCURVE",
"1338 708 CURVE",
"1342 713 OFFCURVE",
"1354 724 OFFCURVE",
"1373 739 CURVE",
"1379 746 OFFCURVE",
"1390 758 OFFCURVE",
"1405 773 CURVE SMOOTH",
"1416 784 OFFCURVE",
"1422 793 OFFCURVE",
"1422 799 CURVE SMOOTH",
"1422 811 OFFCURVE",
"1405 838 OFFCURVE",
"1385 857 CURVE SMOOTH",
"1360 882 OFFCURVE",
"1340 894 OFFCURVE",
"1324 894 CURVE SMOOTH"
);
},
{
closed = 1;
nodes = (
"1193 1118 OFFCURVE",
"1172 1104 OFFCURVE",
"1144 1076 CURVE SMOOTH",
"1121 1053 OFFCURVE",
"1103 1027 OFFCURVE",
"1103 1016 CURVE SMOOTH",
"1103 1010 OFFCURVE",
"1109 1003 OFFCURVE",
"1120 995 CURVE SMOOTH",
"1136 983 OFFCURVE",
"1156 963 OFFCURVE",
"1180 935 CURVE SMOOTH",
"1188 925 OFFCURVE",
"1195 920 OFFCURVE",
"1201 920 CURVE SMOOTH",
"1209 920 OFFCURVE",
"1215 923 OFFCURVE",
"1220 930 CURVE",
"1225 936 OFFCURVE",
"1236 947 OFFCURVE",
"1255 963 CURVE",
"1258 966 OFFCURVE",
"1264 971 OFFCURVE",
"1272 979 CURVE SMOOTH",
"1287 995 OFFCURVE",
"1304 1013 OFFCURVE",
"1304 1022 CURVE SMOOTH",
"1304 1027 OFFCURVE",
"1300 1036 OFFCURVE",
"1293 1049 CURVE",
"1273 1080 OFFCURVE",
"1234 1118 OFFCURVE",
"1206 1118 CURVE SMOOTH"
);
}
);
width = 1876;
}
);
note = uniFEB6;
unicode = FEB6;
},
{
glyphname = uni0635;
lastChange = "2017-05-01 10:57:08 +0000";
layers = (
{
layerId = "9BAC860F-5151-470B-96DF-6D043347F519";
paths = (
{
closed = 1;
nodes = (
"1292 341 OFFCURVE",
"1459 459 OFFCURVE",
"1614 459 CURVE SMOOTH",
"1651 459 OFFCURVE",
"1682 453 OFFCURVE",
"1709 440 CURVE SMOOTH",
"1761 415 OFFCURVE",
"1790 370 OFFCURVE",
"1790 321 CURVE SMOOTH",
"1790 260 OFFCURVE",
"1757 212 OFFCURVE",
"1691 179 CURVE SMOOTH",
"1616 142 OFFCURVE",
"1508 123 OFFCURVE",
"1367 123 CURVE SMOOTH",
"1297 123 OFFCURVE",
"1230 126 OFFCURVE",
"1165 132 CURVE"
);
},
{
closed = 1;
nodes = (
"0 -239 OFFCURVE",
"142 -359 OFFCURVE",
"387 -359 CURVE SMOOTH",
"507 -359 OFFCURVE",
"619 -322 OFFCURVE",
"707 -253 CURVE SMOOTH",
"799 -180 OFFCURVE",
"860 -76 OFFCURVE",
"876 55 CURVE",
"933 8 OFFCURVE",
"1083 -30 OFFCURVE",
"1282 -30 CURVE SMOOTH",
"1702 -30 OFFCURVE",
"1915 101 OFFCURVE",
"1915 350 CURVE SMOOTH",
"1915 503 OFFCURVE",
"1809 611 OFFCURVE",
"1640 611 CURVE SMOOTH",
"1554 611 OFFCURVE",
"1465 582 OFFCURVE",
"1373 524 CURVE SMOOTH",
"1250 446 OFFCURVE",
"1136 323 OFFCURVE",
"1033 155 CURVE",
"956 155 OFFCURVE",
"912 188 OFFCURVE",
"890 224 CURVE SMOOTH",
"868 260 OFFCURVE",
"857 317 OFFCURVE",
"854 329 CURVE SMOOTH",
"848 352 OFFCURVE",
"838 382 OFFCURVE",
"824 419 CURVE",
"811 461 OFFCURVE",
"798 482 OFFCURVE",
"784 482 CURVE SMOOTH",
"776 482 OFFCURVE",
"766 474 OFFCURVE",
"753 459 CURVE SMOOTH",
"727 427 OFFCURVE",
"702 379 OFFCURVE",
"702 352 CURVE SMOOTH",
"702 335 OFFCURVE",
"708 319 OFFCURVE",
"721 287 CURVE",
"758 212 OFFCURVE",
"775 150 OFFCURVE",
"775 70 CURVE SMOOTH",
"775 17 OFFCURVE",
"749 -49 OFFCURVE",
"696 -101 CURVE SMOOTH",
"635 -162 OFFCURVE",
"537 -201 OFFCURVE",
"400 -201 CURVE SMOOTH",
"209 -201 OFFCURVE",
"118 -113 OFFCURVE",
"118 44 CURVE SMOOTH",
"118 99 OFFCURVE",
"130 150 OFFCURVE",
"151 203 CURVE SMOOTH",
"155 214 OFFCURVE",
"157 224 OFFCURVE",
"157 231 CURVE SMOOTH",
"157 238 OFFCURVE",
"152 241 OFFCURVE",
"142 241 CURVE SMOOTH",
"101 240 OFFCURVE",
"80 232 OFFCURVE",
"68 213 CURVE",
"40 173 OFFCURVE",
"0 65 OFFCURVE",
"0 -24 CURVE SMOOTH"
);
}
);
width = 2056;
}
);
note = uni0635;
unicode = 0635;
},
{
glyphname = uniFEBB;
lastChange = "2017-05-01 10:57:08 +0000";
layers = (
{
layerId = "9BAC860F-5151-470B-96DF-6D043347F519";
paths = (
{
closed = 1;
nodes = (
"235 317 OFFCURVE",
"225 289 OFFCURVE",
"218 268 CURVE SMOOTH",
"210 243 OFFCURVE",
"200 223 OFFCURVE",
"187 206 CURVE SMOOTH",
"160 171 OFFCURVE",
"112 155 OFFCURVE",
"20 155 CURVE SMOOTH",
"-32 155 OFFCURVE",
"-65 130 OFFCURVE",
"-65 81 CURVE SMOOTH",
"-65 70 LINE SMOOTH",
"-65 25 OFFCURVE",
"-44 0 OFFCURVE",
"-17 0 CURVE SMOOTH",
"87 0 OFFCURVE",
"154 10 OFFCURVE",
"198 34 CURVE",
"241 55 OFFCURVE",
"269 88 OFFCURVE",
"298 140 CURVE",
"326 24 OFFCURVE",
"498 -30 OFFCURVE",
"774 -30 CURVE SMOOTH",
"1194 -30 OFFCURVE",
"1407 101 OFFCURVE",
"1407 350 CURVE SMOOTH",
"1407 501 OFFCURVE",
"1307 611 OFFCURVE",
"1132 611 CURVE SMOOTH",
"1056 611 OFFCURVE",
"964 586 OFFCURVE",
"865 526 CURVE SMOOTH",
"745 452 OFFCURVE",
"632 330 OFFCURVE",
"527 160 CURVE",
"463 172 OFFCURVE",
"426 182 OFFCURVE",
"398 198 CURVE",
"367 214 OFFCURVE",
"354 240 OFFCURVE",
"354 284 CURVE SMOOTH",
"354 319 OFFCURVE",
"365 358 OFFCURVE",
"380 385 CURVE",
"385 393 OFFCURVE",
"387 401 OFFCURVE",
"387 410 CURVE SMOOTH",
"387 421 OFFCURVE",
"384 424 OFFCURVE",
"365 424 CURVE SMOOTH",
"357 424 OFFCURVE",
"344 422 OFFCURVE",
"326 419 CURVE",
"283 408 OFFCURVE",
"259 377 OFFCURVE",
"250 354 CURVE SMOOTH"
);
},
{
closed = 1;
nodes = (
"783 341 OFFCURVE",
"951 459 OFFCURVE",
"1106 459 CURVE SMOOTH",
"1142 459 OFFCURVE",
"1173 453 OFFCURVE",
"1200 440 CURVE SMOOTH",
"1253 415 OFFCURVE",
"1281 370 OFFCURVE",
"1281 321 CURVE SMOOTH",
"1281 259 OFFCURVE",
"1248 212 OFFCURVE",
"1183 179 CURVE SMOOTH",
"1108 142 OFFCURVE",
"1000 123 OFFCURVE",
"859 123 CURVE SMOOTH",
"790 123 OFFCURVE",
"723 126 OFFCURVE",
"658 132 CURVE"
);
}
);
width = 1547;
}
);
note = uniFEBB;
unicode = FEBB;
},
{
glyphname = uniFEBC;
lastChange = "2017-05-01 10:57:08 +0000";
layers = (
{
layerId = "9BAC860F-5151-470B-96DF-6D043347F519";
paths = (
{
closed = 1;
nodes = (
"235 317 OFFCURVE",
"225 289 OFFCURVE",
"218 268 CURVE SMOOTH",
"210 243 OFFCURVE",
"200 223 OFFCURVE",
"187 206 CURVE SMOOTH",
"160 171 OFFCURVE",
"112 155 OFFCURVE",
"20 155 CURVE SMOOTH",
"-32 155 OFFCURVE",
"-65 130 OFFCURVE",
"-65 81 CURVE SMOOTH",
"-65 70 LINE SMOOTH",
"-65 25 OFFCURVE",
"-44 0 OFFCURVE",
"-17 0 CURVE SMOOTH",
"87 0 OFFCURVE",
"154 10 OFFCURVE",
"198 34 CURVE",
"241 55 OFFCURVE",
"269 88 OFFCURVE",
"298 140 CURVE",
"326 24 OFFCURVE",
"498 -30 OFFCURVE",
"774 -30 CURVE SMOOTH",
"1007 -30 OFFCURVE",
"1175 9 OFFCURVE",
"1278 86 CURVE",
"1325 29 OFFCURVE",
"1393 0 OFFCURVE",
"1480 0 CURVE SMOOTH",
"1536 0 OFFCURVE",
"1565 19 OFFCURVE",
"1565 72 CURVE SMOOTH",
"1565 81 LINE SMOOTH",
"1565 134 OFFCURVE",
"1553 155 OFFCURVE",
"1517 155 CURVE SMOOTH",
"1449 155 OFFCURVE",
"1406 169 OFFCURVE",
"1371 197 CURVE",
"1395 240 OFFCURVE",
"1407 291 OFFCURVE",
"1407 350 CURVE SMOOTH",
"1407 501 OFFCURVE",
"1307 611 OFFCURVE",
"1132 611 CURVE SMOOTH",
"1056 611 OFFCURVE",
"964 586 OFFCURVE",
"865 526 CURVE SMOOTH",
"745 452 OFFCURVE",
"632 330 OFFCURVE",
"527 160 CURVE",
"463 172 OFFCURVE",
"426 182 OFFCURVE",
"398 198 CURVE",
"367 214 OFFCURVE",
"354 240 OFFCURVE",
"354 284 CURVE SMOOTH",
"354 319 OFFCURVE",
"365 358 OFFCURVE",
"380 385 CURVE",
"385 393 OFFCURVE",
"387 401 OFFCURVE",
"387 410 CURVE SMOOTH",
"387 421 OFFCURVE",
"384 424 OFFCURVE",
"365 424 CURVE SMOOTH",
"357 424 OFFCURVE",
"344 422 OFFCURVE",
"326 419 CURVE",
"283 408 OFFCURVE",
"259 377 OFFCURVE",
"250 354 CURVE SMOOTH"
);
},
{
closed = 1;
nodes = (
"783 341 OFFCURVE",
"951 459 OFFCURVE",
"1106 459 CURVE SMOOTH",
"1142 459 OFFCURVE",
"1173 453 OFFCURVE",
"1200 440 CURVE SMOOTH",
"1253 415 OFFCURVE",
"1281 370 OFFCURVE",
"1281 321 CURVE SMOOTH",
"1281 259 OFFCURVE",
"1248 212 OFFCURVE",
"1183 179 CURVE SMOOTH",
"1108 142 OFFCURVE",
"1000 123 OFFCURVE",
"859 123 CURVE SMOOTH",
"790 123 OFFCURVE",
"723 126 OFFCURVE",
"658 132 CURVE"
);
}
);
width = 1496;
}
);
note = uniFEBC;
unicode = FEBC;
},
{
glyphname = uniFEBA;
lastChange = "2017-05-01 10:57:08 +0000";
layers = (
{
layerId = "9BAC860F-5151-470B-96DF-6D043347F519";
paths = (
{
closed = 1;
nodes = (
"0 -239 OFFCURVE",
"142 -359 OFFCURVE",
"387 -359 CURVE SMOOTH",
"507 -359 OFFCURVE",
"619 -322 OFFCURVE",
"707 -253 CURVE SMOOTH",
"799 -180 OFFCURVE",
"860 -76 OFFCURVE",
"876 55 CURVE",
"933 8 OFFCURVE",
"1083 -30 OFFCURVE",
"1282 -30 CURVE SMOOTH",
"1513 -30 OFFCURVE",
"1681 9 OFFCURVE",
"1788 88 CURVE",
"1831 29 OFFCURVE",
"1898 0 OFFCURVE",
"1990 0 CURVE SMOOTH",
"2046 0 OFFCURVE",
"2075 19 OFFCURVE",
"2075 72 CURVE SMOOTH",
"2075 81 LINE SMOOTH",
"2075 134 OFFCURVE",
"2063 155 OFFCURVE",
"2027 155 CURVE SMOOTH",
"1958 155 OFFCURVE",
"1913 169 OFFCURVE",
"1880 197 CURVE",
"1903 245 OFFCURVE",
"1915 296 OFFCURVE",
"1915 350 CURVE SMOOTH",
"1915 503 OFFCURVE",
"1809 611 OFFCURVE",
"1640 611 CURVE SMOOTH",
"1554 611 OFFCURVE",
"1465 582 OFFCURVE",
"1373 524 CURVE SMOOTH",
"1250 446 OFFCURVE",
"1136 323 OFFCURVE",
"1033 155 CURVE",
"956 155 OFFCURVE",
"912 188 OFFCURVE",
"890 224 CURVE SMOOTH",
"868 260 OFFCURVE",
"857 317 OFFCURVE",
"854 329 CURVE SMOOTH",
"848 352 OFFCURVE",
"838 382 OFFCURVE",
"824 419 CURVE",
"811 461 OFFCURVE",
"798 482 OFFCURVE",
"784 482 CURVE SMOOTH",
"776 482 OFFCURVE",
"766 474 OFFCURVE",
"753 459 CURVE SMOOTH",
"727 427 OFFCURVE",
"702 379 OFFCURVE",
"702 352 CURVE SMOOTH",
"702 335 OFFCURVE",
"708 319 OFFCURVE",
"721 287 CURVE",
"758 212 OFFCURVE",
"775 150 OFFCURVE",
"775 70 CURVE SMOOTH",
"775 17 OFFCURVE",
"749 -49 OFFCURVE",
"696 -101 CURVE SMOOTH",
"635 -162 OFFCURVE",
"537 -201 OFFCURVE",
"400 -201 CURVE SMOOTH",
"209 -201 OFFCURVE",
"118 -113 OFFCURVE",
"118 44 CURVE SMOOTH",
"118 99 OFFCURVE",
"130 150 OFFCURVE",
"151 203 CURVE SMOOTH",
"155 214 OFFCURVE",
"157 224 OFFCURVE",
"157 231 CURVE SMOOTH",
"157 238 OFFCURVE",
"152 241 OFFCURVE",
"142 241 CURVE SMOOTH",
"101 240 OFFCURVE",
"80 232 OFFCURVE",
"68 213 CURVE",
"40 173 OFFCURVE",
"0 65 OFFCURVE",
"0 -24 CURVE SMOOTH"
);
},
{
closed = 1;
nodes = (
"1292 341 OFFCURVE",
"1459 459 OFFCURVE",
"1614 459 CURVE SMOOTH",
"1651 459 OFFCURVE",
"1682 453 OFFCURVE",
"1709 440 CURVE SMOOTH",
"1761 415 OFFCURVE",
"1790 370 OFFCURVE",
"1790 321 CURVE SMOOTH",
"1790 260 OFFCURVE",
"1757 212 OFFCURVE",
"1691 179 CURVE SMOOTH",
"1616 142 OFFCURVE",
"1508 123 OFFCURVE",
"1367 123 CURVE SMOOTH",
"1297 123 OFFCURVE",
"1230 126 OFFCURVE",
"1165 132 CURVE"
);
}
);
width = 2007;
}
);
note = uniFEBA;
unicode = FEBA;
},
{
glyphname = uni0636;
lastChange = "2017-05-01 10:57:08 +0000";
layers = (
{
layerId = "9BAC860F-5151-470B-96DF-6D043347F519";
paths = (
{
closed = 1;
nodes = (
"1292 341 OFFCURVE",
"1459 459 OFFCURVE",
"1614 459 CURVE SMOOTH",
"1651 459 OFFCURVE",
"1682 453 OFFCURVE",
"1709 440 CURVE SMOOTH",
"1761 415 OFFCURVE",
"1790 370 OFFCURVE",
"1790 321 CURVE SMOOTH",
"1790 260 OFFCURVE",
"1757 212 OFFCURVE",
"1691 179 CURVE SMOOTH",
"1616 142 OFFCURVE",
"1508 123 OFFCURVE",
"1367 123 CURVE SMOOTH",
"1297 123 OFFCURVE",
"1230 126 OFFCURVE",
"1165 132 CURVE"
);
},
{
closed = 1;
nodes = (
"0 -239 OFFCURVE",
"142 -359 OFFCURVE",
"387 -359 CURVE SMOOTH",
"507 -359 OFFCURVE",
"619 -322 OFFCURVE",
"707 -253 CURVE SMOOTH",
"799 -180 OFFCURVE",
"860 -76 OFFCURVE",
"876 55 CURVE",
"933 8 OFFCURVE",
"1083 -30 OFFCURVE",
"1282 -30 CURVE SMOOTH",
"1702 -30 OFFCURVE",
"1915 101 OFFCURVE",
"1915 350 CURVE SMOOTH",
"1915 503 OFFCURVE",
"1809 611 OFFCURVE",
"1640 611 CURVE SMOOTH",
"1554 611 OFFCURVE",
"1465 582 OFFCURVE",
"1373 524 CURVE SMOOTH",
"1250 446 OFFCURVE",
"1136 323 OFFCURVE",
"1033 155 CURVE",
"956 155 OFFCURVE",
"912 188 OFFCURVE",
"890 224 CURVE SMOOTH",
"868 260 OFFCURVE",
"857 317 OFFCURVE",
"854 329 CURVE SMOOTH",
"848 352 OFFCURVE",
"838 382 OFFCURVE",
"824 419 CURVE",
"811 461 OFFCURVE",
"798 482 OFFCURVE",
"784 482 CURVE SMOOTH",
"776 482 OFFCURVE",
"766 474 OFFCURVE",
"753 459 CURVE SMOOTH",
"727 427 OFFCURVE",
"702 379 OFFCURVE",
"702 352 CURVE SMOOTH",
"702 335 OFFCURVE",
"708 319 OFFCURVE",
"721 287 CURVE",
"758 212 OFFCURVE",
"775 150 OFFCURVE",
"775 70 CURVE SMOOTH",
"775 17 OFFCURVE",
"749 -49 OFFCURVE",
"696 -101 CURVE SMOOTH",
"635 -162 OFFCURVE",
"537 -201 OFFCURVE",
"400 -201 CURVE SMOOTH",
"209 -201 OFFCURVE",
"118 -113 OFFCURVE",
"118 44 CURVE SMOOTH",
"118 99 OFFCURVE",
"130 150 OFFCURVE",
"151 203 CURVE SMOOTH",
"155 214 OFFCURVE",
"157 224 OFFCURVE",
"157 231 CURVE SMOOTH",
"157 238 OFFCURVE",
"152 241 OFFCURVE",
"142 241 CURVE SMOOTH",
"101 240 OFFCURVE",
"80 232 OFFCURVE",
"68 213 CURVE",
"40 173 OFFCURVE",
"0 65 OFFCURVE",
"0 -24 CURVE SMOOTH"
);
},
{
closed = 1;
nodes = (
"1424 1077 OFFCURVE",
"1403 1063 OFFCURVE",
"1374 1035 CURVE SMOOTH",
"1351 1014 OFFCURVE",
"1334 987 OFFCURVE",
"1334 975 CURVE SMOOTH",
"1334 970 OFFCURVE",
"1340 962 OFFCURVE",
"1351 953 CURVE SMOOTH",
"1373 936 OFFCURVE",
"1393 917 OFFCURVE",
"1410 895 CURVE SMOOTH",
"1418 885 OFFCURVE",
"1425 880 OFFCURVE",
"1431 880 CURVE SMOOTH",
"1440 880 OFFCURVE",
"1446 883 OFFCURVE",
"1451 890 CURVE",
"1454 893 OFFCURVE",
"1465 904 OFFCURVE",
"1485 922 CURVE",
"1488 925 OFFCURVE",
"1494 931 OFFCURVE",
"1502 939 CURVE SMOOTH",
"1518 955 OFFCURVE",
"1535 973 OFFCURVE",
"1535 982 CURVE SMOOTH",
"1535 994 OFFCURVE",
"1518 1020 OFFCURVE",
"1498 1040 CURVE SMOOTH",
"1473 1065 OFFCURVE",
"1453 1077 OFFCURVE",
"1436 1077 CURVE SMOOTH"
);
}
);
width = 2056;
}
);
note = uni0636;
unicode = 0636;
},
{
glyphname = uniFEBF;
lastChange = "2017-05-01 10:57:08 +0000";
layers = (
{
layerId = "9BAC860F-5151-470B-96DF-6D043347F519";
paths = (
{
closed = 1;
nodes = (
"235 317 OFFCURVE",
"225 289 OFFCURVE",
"218 268 CURVE SMOOTH",
"210 243 OFFCURVE",
"200 223 OFFCURVE",
"187 206 CURVE SMOOTH",
"160 171 OFFCURVE",
"112 155 OFFCURVE",
"20 155 CURVE SMOOTH",
"-32 155 OFFCURVE",
"-65 130 OFFCURVE",
"-65 81 CURVE SMOOTH",
"-65 70 LINE SMOOTH",
"-65 25 OFFCURVE",
"-44 0 OFFCURVE",
"-17 0 CURVE SMOOTH",
"87 0 OFFCURVE",
"154 10 OFFCURVE",
"198 34 CURVE",
"241 55 OFFCURVE",
"269 88 OFFCURVE",
"298 140 CURVE",
"326 24 OFFCURVE",
"498 -30 OFFCURVE",
"774 -30 CURVE SMOOTH",
"1194 -30 OFFCURVE",
"1407 101 OFFCURVE",
"1407 350 CURVE SMOOTH",
"1407 501 OFFCURVE",
"1307 611 OFFCURVE",
"1132 611 CURVE SMOOTH",
"1056 611 OFFCURVE",
"964 586 OFFCURVE",
"865 526 CURVE SMOOTH",
"745 452 OFFCURVE",
"632 330 OFFCURVE",
"527 160 CURVE",
"463 172 OFFCURVE",
"426 182 OFFCURVE",
"398 198 CURVE",
"367 214 OFFCURVE",
"354 240 OFFCURVE",
"354 284 CURVE SMOOTH",
"354 319 OFFCURVE",
"365 358 OFFCURVE",
"380 385 CURVE",
"385 393 OFFCURVE",
"387 401 OFFCURVE",
"387 410 CURVE SMOOTH",
"387 421 OFFCURVE",
"384 424 OFFCURVE",
"365 424 CURVE SMOOTH",
"357 424 OFFCURVE",
"344 422 OFFCURVE",
"326 419 CURVE",
"283 408 OFFCURVE",
"259 377 OFFCURVE",
"250 354 CURVE SMOOTH"
);
},
{
closed = 1;
nodes = (
"783 341 OFFCURVE",
"951 459 OFFCURVE",
"1106 459 CURVE SMOOTH",
"1142 459 OFFCURVE",
"1173 453 OFFCURVE",
"1200 440 CURVE SMOOTH",
"1253 415 OFFCURVE",
"1281 370 OFFCURVE",
"1281 321 CURVE SMOOTH",
"1281 259 OFFCURVE",
"1248 212 OFFCURVE",
"1183 179 CURVE SMOOTH",
"1108 142 OFFCURVE",
"1000 123 OFFCURVE",
"859 123 CURVE SMOOTH",
"790 123 OFFCURVE",
"723 126 OFFCURVE",
"658 132 CURVE"
);
},
{
closed = 1;
nodes = (
"1042 1077 OFFCURVE",
"1021 1063 OFFCURVE",
"992 1035 CURVE SMOOTH",
"969 1014 OFFCURVE",
"951 986 OFFCURVE",
"951 975 CURVE SMOOTH",
"951 970 OFFCURVE",
"957 962 OFFCURVE",
"968 953 CURVE SMOOTH",
"992 934 OFFCURVE",
"1012 915 OFFCURVE",
"1028 895 CURVE SMOOTH",
"1036 885 OFFCURVE",
"1043 880 OFFCURVE",
"1049 880 CURVE SMOOTH",
"1056 880 OFFCURVE",
"1063 883 OFFCURVE",
"1069 890 CURVE SMOOTH",
"1073 895 OFFCURVE",
"1084 906 OFFCURVE",
"1102 922 CURVE",
"1119 939 OFFCURVE",
"1132 952 OFFCURVE",
"1141 961 CURVE",
"1149 970 OFFCURVE",
"1153 977 OFFCURVE",
"1153 982 CURVE SMOOTH",
"1153 994 OFFCURVE",
"1136 1020 OFFCURVE",
"1116 1040 CURVE SMOOTH",
"1091 1065 OFFCURVE",
"1071 1077 OFFCURVE",
"1054 1077 CURVE SMOOTH"
);
}
);
width = 1547;
}
);
note = uniFEBF;
unicode = FEBF;
},
{
glyphname = uniFEC0;
lastChange = "2017-05-01 10:57:08 +0000";
layers = (
{
layerId = "9BAC860F-5151-470B-96DF-6D043347F519";
paths = (
{
closed = 1;
nodes = (
"1029 1077 OFFCURVE",
"1008 1063 OFFCURVE",
"980 1035 CURVE SMOOTH",
"957 1012 OFFCURVE",
"938 986 OFFCURVE",
"938 975 CURVE SMOOTH",
"938 970 OFFCURVE",
"944 962 OFFCURVE",
"955 953 CURVE SMOOTH",
"977 936 OFFCURVE",
"997 917 OFFCURVE",
"1015 895 CURVE SMOOTH",
"1023 885 OFFCURVE",
"1030 880 OFFCURVE",
"1036 880 CURVE SMOOTH",
"1044 880 OFFCURVE",
"1050 883 OFFCURVE",
"1055 890 CURVE",
"1058 895 OFFCURVE",
"1070 905 OFFCURVE",
"1090 922 CURVE",
"1096 929 OFFCURVE",
"1107 940 OFFCURVE",
"1122 955 CURVE SMOOTH",
"1133 966 OFFCURVE",
"1139 975 OFFCURVE",
"1139 982 CURVE SMOOTH",
"1139 988 OFFCURVE",
"1135 997 OFFCURVE",
"1128 1009 CURVE",
"1113 1032 OFFCURVE",
"1073 1077 OFFCURVE",
"1042 1077 CURVE SMOOTH"
);
},
{
closed = 1;
nodes = (
"235 317 OFFCURVE",
"225 289 OFFCURVE",
"218 268 CURVE SMOOTH",
"210 243 OFFCURVE",
"200 223 OFFCURVE",
"187 206 CURVE SMOOTH",
"160 171 OFFCURVE",
"112 155 OFFCURVE",
"20 155 CURVE SMOOTH",
"-32 155 OFFCURVE",
"-65 130 OFFCURVE",
"-65 81 CURVE SMOOTH",
"-65 70 LINE SMOOTH",
"-65 25 OFFCURVE",
"-44 0 OFFCURVE",
"-17 0 CURVE SMOOTH",
"87 0 OFFCURVE",
"154 10 OFFCURVE",
"198 34 CURVE",
"241 55 OFFCURVE",
"269 88 OFFCURVE",
"298 140 CURVE",
"326 24 OFFCURVE",
"498 -30 OFFCURVE",
"774 -30 CURVE SMOOTH",
"1007 -30 OFFCURVE",
"1175 9 OFFCURVE",
"1278 86 CURVE",
"1325 29 OFFCURVE",
"1393 0 OFFCURVE",
"1480 0 CURVE SMOOTH",
"1536 0 OFFCURVE",
"1565 19 OFFCURVE",
"1565 72 CURVE SMOOTH",
"1565 81 LINE SMOOTH",
"1565 134 OFFCURVE",
"1553 155 OFFCURVE",
"1517 155 CURVE SMOOTH",
"1449 155 OFFCURVE",
"1406 169 OFFCURVE",
"1371 197 CURVE",
"1395 240 OFFCURVE",
"1407 291 OFFCURVE",
"1407 350 CURVE SMOOTH",
"1407 501 OFFCURVE",
"1307 611 OFFCURVE",
"1132 611 CURVE SMOOTH",
"1056 611 OFFCURVE",
"964 586 OFFCURVE",
"865 526 CURVE SMOOTH",
"745 452 OFFCURVE",
"632 330 OFFCURVE",
"527 160 CURVE",
"463 172 OFFCURVE",
"426 182 OFFCURVE",
"398 198 CURVE",
"367 214 OFFCURVE",
"354 240 OFFCURVE",
"354 284 CURVE SMOOTH",
"354 319 OFFCURVE",
"365 358 OFFCURVE",
"380 385 CURVE",
"385 393 OFFCURVE",
"387 401 OFFCURVE",
"387 410 CURVE SMOOTH",
"387 421 OFFCURVE",
"384 424 OFFCURVE",
"365 424 CURVE SMOOTH",
"357 424 OFFCURVE",
"344 422 OFFCURVE",
"326 419 CURVE",
"283 408 OFFCURVE",
"259 377 OFFCURVE",
"250 354 CURVE SMOOTH"
);
},
{
closed = 1;
nodes = (
"783 341 OFFCURVE",
"951 459 OFFCURVE",
"1106 459 CURVE SMOOTH",
"1142 459 OFFCURVE",
"1173 453 OFFCURVE",
"1200 440 CURVE SMOOTH",
"1253 415 OFFCURVE",
"1281 370 OFFCURVE",
"1281 321 CURVE SMOOTH",
"1281 259 OFFCURVE",
"1248 212 OFFCURVE",
"1183 179 CURVE SMOOTH",
"1108 142 OFFCURVE",
"1000 123 OFFCURVE",
"859 123 CURVE SMOOTH",
"790 123 OFFCURVE",
"723 126 OFFCURVE",
"658 132 CURVE"
);
}
);
width = 1496;
}
);
note = uniFEC0;
unicode = FEC0;
},
{
glyphname = uniFEBE;
lastChange = "2017-05-01 10:57:08 +0000";
layers = (
{
layerId = "9BAC860F-5151-470B-96DF-6D043347F519";
paths = (
{
closed = 1;
nodes = (
"1424 1077 OFFCURVE",
"1403 1063 OFFCURVE",
"1374 1035 CURVE SMOOTH",
"1351 1014 OFFCURVE",
"1334 987 OFFCURVE",
"1334 975 CURVE SMOOTH",
"1334 970 OFFCURVE",
"1340 962 OFFCURVE",
"1351 953 CURVE SMOOTH",
"1373 936 OFFCURVE",
"1393 917 OFFCURVE",
"1410 895 CURVE SMOOTH",
"1418 885 OFFCURVE",
"1425 880 OFFCURVE",
"1431 880 CURVE SMOOTH",
"1440 880 OFFCURVE",
"1446 883 OFFCURVE",
"1451 890 CURVE",
"1454 893 OFFCURVE",
"1465 904 OFFCURVE",
"1485 922 CURVE",
"1488 925 OFFCURVE",
"1494 931 OFFCURVE",
"1502 939 CURVE SMOOTH",
"1518 955 OFFCURVE",
"1535 973 OFFCURVE",
"1535 982 CURVE SMOOTH",
"1535 994 OFFCURVE",
"1518 1020 OFFCURVE",
"1498 1040 CURVE SMOOTH",
"1473 1065 OFFCURVE",
"1453 1077 OFFCURVE",
"1436 1077 CURVE SMOOTH"
);
},
{
closed = 1;
nodes = (
"0 -239 OFFCURVE",
"142 -359 OFFCURVE",
"387 -359 CURVE SMOOTH",
"507 -359 OFFCURVE",
"619 -322 OFFCURVE",
"707 -253 CURVE SMOOTH",
"799 -180 OFFCURVE",
"860 -76 OFFCURVE",
"876 55 CURVE",
"933 8 OFFCURVE",
"1083 -30 OFFCURVE",
"1282 -30 CURVE SMOOTH",
"1513 -30 OFFCURVE",
"1681 9 OFFCURVE",
"1788 88 CURVE",
"1831 29 OFFCURVE",
"1898 0 OFFCURVE",
"1990 0 CURVE SMOOTH",
"2046 0 OFFCURVE",
"2075 19 OFFCURVE",
"2075 72 CURVE SMOOTH",
"2075 81 LINE SMOOTH",
"2075 134 OFFCURVE",
"2063 155 OFFCURVE",
"2027 155 CURVE SMOOTH",
"1958 155 OFFCURVE",
"1913 169 OFFCURVE",
"1880 197 CURVE",
"1903 245 OFFCURVE",
"1915 296 OFFCURVE",
"1915 350 CURVE SMOOTH",
"1915 503 OFFCURVE",
"1809 611 OFFCURVE",
"1640 611 CURVE SMOOTH",
"1554 611 OFFCURVE",
"1465 582 OFFCURVE",
"1373 524 CURVE SMOOTH",
"1250 446 OFFCURVE",
"1136 323 OFFCURVE",
"1033 155 CURVE",
"956 155 OFFCURVE",
"912 188 OFFCURVE",
"890 224 CURVE SMOOTH",
"868 260 OFFCURVE",
"857 317 OFFCURVE",
"854 329 CURVE SMOOTH",
"848 352 OFFCURVE",
"838 382 OFFCURVE",
"824 419 CURVE",
"811 461 OFFCURVE",
"798 482 OFFCURVE",
"784 482 CURVE SMOOTH",
"776 482 OFFCURVE",
"766 474 OFFCURVE",
"753 459 CURVE SMOOTH",
"727 427 OFFCURVE",
"702 379 OFFCURVE",
"702 352 CURVE SMOOTH",
"702 335 OFFCURVE",
"708 319 OFFCURVE",
"721 287 CURVE",
"758 212 OFFCURVE",
"775 150 OFFCURVE",
"775 70 CURVE SMOOTH",
"775 17 OFFCURVE",
"749 -49 OFFCURVE",
"696 -101 CURVE SMOOTH",
"635 -162 OFFCURVE",
"537 -201 OFFCURVE",
"400 -201 CURVE SMOOTH",
"209 -201 OFFCURVE",
"118 -113 OFFCURVE",
"118 44 CURVE SMOOTH",
"118 99 OFFCURVE",
"130 150 OFFCURVE",
"151 203 CURVE SMOOTH",
"155 214 OFFCURVE",
"157 224 OFFCURVE",
"157 231 CURVE SMOOTH",
"157 238 OFFCURVE",
"152 241 OFFCURVE",
"142 241 CURVE SMOOTH",
"101 240 OFFCURVE",
"80 232 OFFCURVE",
"68 213 CURVE",
"40 173 OFFCURVE",
"0 65 OFFCURVE",
"0 -24 CURVE SMOOTH"
);
},
{
closed = 1;
nodes = (
"1292 341 OFFCURVE",
"1459 459 OFFCURVE",
"1614 459 CURVE SMOOTH",
"1651 459 OFFCURVE",
"1682 453 OFFCURVE",
"1709 440 CURVE SMOOTH",
"1761 415 OFFCURVE",
"1790 370 OFFCURVE",
"1790 321 CURVE SMOOTH",
"1790 260 OFFCURVE",
"1757 212 OFFCURVE",
"1691 179 CURVE SMOOTH",
"1616 142 OFFCURVE",
"1508 123 OFFCURVE",
"1367 123 CURVE SMOOTH",
"1297 123 OFFCURVE",
"1230 126 OFFCURVE",
"1165 132 CURVE"
);
}
);
width = 2007;
}
);
note = uniFEBE;
unicode = FEBE;
},
{
glyphname = uni0637;
lastChange = "2017-05-01 10:57:08 +0000";
layers = (
{
layerId = "9BAC860F-5151-470B-96DF-6D043347F519";
paths = (
{
closed = 1;
nodes = (
"412 1309 OFFCURVE",
"398 1287 OFFCURVE",
"398 1239 CURVE SMOOTH",
"398 1221 OFFCURVE",
"400 1197 OFFCURVE",
"404 1167 CURVE SMOOTH",
"410 1128 OFFCURVE",
"417 1045 OFFCURVE",
"424 918 CURVE SMOOTH",
"436 703 OFFCURVE",
"449 413 OFFCURVE",
"449 264 CURVE",
"390 183 OFFCURVE",
"344 148 OFFCURVE",
"287 148 CURVE SMOOTH",
"219 148 OFFCURVE",
"162 152 OFFCURVE",
"117 161 CURVE",
"108 162 OFFCURVE",
"101 164 OFFCURVE",
"96 165 CURVE",
"59 171 OFFCURVE",
"32 174 OFFCURVE",
"16 174 CURVE SMOOTH",
"7 174 OFFCURVE",
"2 170 OFFCURVE",
"2 162 CURVE SMOOTH",
"2 150 OFFCURVE",
"20 126 OFFCURVE",
"41 105 CURVE",
"75 68 OFFCURVE",
"108 41 OFFCURVE",
"139 26 CURVE",
"168 10 OFFCURVE",
"197 5 OFFCURVE",
"240 4 CURVE",
"305 -2 OFFCURVE",
"406 -5 OFFCURVE",
"545 -5 CURVE SMOOTH",
"683 -5 LINE SMOOTH",
"1027 -5 OFFCURVE",
"1260 90 OFFCURVE",
"1260 341 CURVE SMOOTH",
"1260 410 OFFCURVE",
"1237 478 OFFCURVE",
"1192 527 CURVE SMOOTH",
"1141 583 OFFCURVE",
"1066 611 OFFCURVE",
"968 611 CURVE SMOOTH",
"859 611 OFFCURVE",
"703 543 OFFCURVE",
"563 402 CURVE",
"562 475 OFFCURVE",
"560 554 OFFCURVE",
"557 637 CURVE SMOOTH",
"556 668 LINE",
"552 762 LINE SMOOTH",
"545 938 OFFCURVE",
"539 1069 OFFCURVE",
"534 1155 CURVE SMOOTH",
"526 1271 LINE",
"525 1280 OFFCURVE",
"523 1295 OFFCURVE",
"522 1314 CURVE SMOOTH",
"521 1326 OFFCURVE",
"512 1332 OFFCURVE",
"495 1332 CURVE SMOOTH",
"485 1332 OFFCURVE",
"472 1329 OFFCURVE",
"456 1324 CURVE SMOOTH"
);
},
{
closed = 1;
nodes = (
"662 365 OFFCURVE",
"807 459 OFFCURVE",
"956 459 CURVE SMOOTH",
"1060 459 OFFCURVE",
"1130 405 OFFCURVE",
"1130 322 CURVE SMOOTH",
"1130 267 OFFCURVE",
"1103 224 OFFCURVE",
"1038 195 CURVE SMOOTH",
"971 164 OFFCURVE",
"855 148 OFFCURVE",
"688 148 CURVE SMOOTH",
"511 148 LINE"
);
}
);
width = 1402;
}
);
note = uni0637;
unicode = 0637;
},
{
glyphname = uniFEC3;
lastChange = "2017-05-01 10:57:08 +0000";
layers = (
{
layerId = "9BAC860F-5151-470B-96DF-6D043347F519";
paths = (
{
closed = 1;
nodes = (
"161 1309 OFFCURVE",
"148 1287 OFFCURVE",
"148 1239 CURVE SMOOTH",
"148 1224 OFFCURVE",
"150 1200 OFFCURVE",
"153 1167 CURVE",
"159 1127 OFFCURVE",
"165 1044 OFFCURVE",
"172 918 CURVE SMOOTH",
"189 598 OFFCURVE",
"197 391 OFFCURVE",
"197 264 CURVE",
"162 217 OFFCURVE",
"145 196 OFFCURVE",
"122 181 CURVE SMOOTH",
"97 164 OFFCURVE",
"63 155 OFFCURVE",
"20 155 CURVE SMOOTH",
"-32 155 OFFCURVE",
"-65 130 OFFCURVE",
"-65 81 CURVE SMOOTH",
"-65 70 LINE SMOOTH",
"-65 25 OFFCURVE",
"-44 0 OFFCURVE",
"-17 0 CURVE SMOOTH",
"429 0 LINE SMOOTH",
"777 0 OFFCURVE",
"1007 94 OFFCURVE",
"1007 341 CURVE SMOOTH",
"1007 410 OFFCURVE",
"983 478 OFFCURVE",
"938 527 CURVE SMOOTH",
"887 583 OFFCURVE",
"812 611 OFFCURVE",
"715 611 CURVE SMOOTH",
"604 611 OFFCURVE",
"449 543 OFFCURVE",
"310 404 CURVE",
"306 577 LINE SMOOTH",
"305 639 OFFCURVE",
"303 700 OFFCURVE",
"300 761 CURVE SMOOTH",
"298 800 OFFCURVE",
"296 859 OFFCURVE",
"293 937 CURVE SMOOTH",
"288 1044 OFFCURVE",
"284 1135 OFFCURVE",
"279 1208 CURVE SMOOTH",
"275 1271 LINE",
"273 1281 OFFCURVE",
"271 1295 OFFCURVE",
"270 1314 CURVE SMOOTH",
"269 1326 OFFCURVE",
"260 1332 OFFCURVE",
"243 1332 CURVE SMOOTH",
"233 1332 OFFCURVE",
"220 1329 OFFCURVE",
"204 1324 CURVE SMOOTH"
);
},
{
closed = 1;
nodes = (
"410 364 OFFCURVE",
"554 459 OFFCURVE",
"702 459 CURVE SMOOTH",
"806 459 OFFCURVE",
"878 405 OFFCURVE",
"878 322 CURVE SMOOTH",
"878 266 OFFCURVE",
"847 225 OFFCURVE",
"785 199 CURVE SMOOTH",
"716 170 OFFCURVE",
"600 155 OFFCURVE",
"435 155 CURVE SMOOTH",
"257 155 LINE"
);
}
);
width = 1147;
}
);
note = uniFEC3;
unicode = FEC3;
},
{
glyphname = uniFEC4;
lastChange = "2017-05-01 10:57:08 +0000";
layers = (
{
layerId = "9BAC860F-5151-470B-96DF-6D043347F519";
paths = (
{
closed = 1;
nodes = (
"163 1309 OFFCURVE",
"149 1287 OFFCURVE",
"149 1239 CURVE SMOOTH",
"149 1221 OFFCURVE",
"151 1197 OFFCURVE",
"155 1167 CURVE",
"164 1066 LINE",
"167 1027 LINE",
"174 920 LINE",
"183 748 LINE SMOOTH",
"187 663 OFFCURVE",
"190 604 OFFCURVE",
"191 570 CURVE SMOOTH",
"192 527 OFFCURVE",
"193 471 OFFCURVE",
"196 402 CURVE SMOOTH",
"198 349 OFFCURVE",
"199 304 OFFCURVE",
"199 267 CURVE",
"166 220 OFFCURVE",
"148 198 OFFCURVE",
"124 182 CURVE SMOOTH",
"98 164 OFFCURVE",
"63 155 OFFCURVE",
"20 155 CURVE SMOOTH",
"-32 155 OFFCURVE",
"-65 130 OFFCURVE",
"-65 81 CURVE SMOOTH",
"-65 70 LINE SMOOTH",
"-65 25 OFFCURVE",
"-44 0 OFFCURVE",
"-17 0 CURVE SMOOTH",
"429 0 LINE SMOOTH",
"622 0 OFFCURVE",
"766 28 OFFCURVE",
"861 85 CURVE",
"906 28 OFFCURVE",
"973 0 OFFCURVE",
"1062 0 CURVE SMOOTH",
"1117 0 OFFCURVE",
"1147 19 OFFCURVE",
"1147 72 CURVE SMOOTH",
"1147 81 LINE SMOOTH",
"1147 134 OFFCURVE",
"1135 155 OFFCURVE",
"1099 155 CURVE SMOOTH",
"1042 155 OFFCURVE",
"999 165 OFFCURVE",
"968 186 CURVE",
"994 233 OFFCURVE",
"1007 284 OFFCURVE",
"1007 341 CURVE SMOOTH",
"1007 410 OFFCURVE",
"983 478 OFFCURVE",
"938 527 CURVE SMOOTH",
"887 583 OFFCURVE",
"812 611 OFFCURVE",
"715 611 CURVE SMOOTH",
"604 611 OFFCURVE",
"452 545 OFFCURVE",
"311 406 CURVE",
"310 522 OFFCURVE",
"308 610 OFFCURVE",
"306 671 CURVE SMOOTH",
"301 828 OFFCURVE",
"293 989 OFFCURVE",
"284 1156 CURVE SMOOTH",
"276 1271 LINE",
"275 1280 OFFCURVE",
"273 1295 OFFCURVE",
"272 1314 CURVE SMOOTH",
"271 1326 OFFCURVE",
"262 1332 OFFCURVE",
"245 1332 CURVE SMOOTH",
"235 1332 OFFCURVE",
"222 1329 OFFCURVE",
"206 1324 CURVE SMOOTH"
);
},
{
closed = 1;
nodes = (
"410 364 OFFCURVE",
"554 459 OFFCURVE",
"702 459 CURVE SMOOTH",
"806 459 OFFCURVE",
"878 405 OFFCURVE",
"878 322 CURVE SMOOTH",
"878 266 OFFCURVE",
"847 225 OFFCURVE",
"785 199 CURVE SMOOTH",
"716 170 OFFCURVE",
"600 155 OFFCURVE",
"435 155 CURVE SMOOTH",
"257 155 LINE"
);
}
);
width = 1078;
}
);
note = uniFEC4;
unicode = FEC4;
},
{
glyphname = uniFEC2;
lastChange = "2017-05-01 10:57:08 +0000";
layers = (
{
layerId = "9BAC860F-5151-470B-96DF-6D043347F519";
paths = (
{
closed = 1;
nodes = (
"412 1309 OFFCURVE",
"398 1287 OFFCURVE",
"398 1239 CURVE SMOOTH",
"398 1221 OFFCURVE",
"400 1197 OFFCURVE",
"404 1167 CURVE SMOOTH",
"410 1128 OFFCURVE",
"417 1045 OFFCURVE",
"424 918 CURVE SMOOTH",
"436 703 OFFCURVE",
"449 413 OFFCURVE",
"449 264 CURVE",
"390 183 OFFCURVE",
"344 148 OFFCURVE",
"287 148 CURVE SMOOTH",
"219 148 OFFCURVE",
"162 152 OFFCURVE",
"117 161 CURVE",
"108 162 OFFCURVE",
"101 164 OFFCURVE",
"96 165 CURVE",
"59 171 OFFCURVE",
"32 174 OFFCURVE",
"16 174 CURVE SMOOTH",
"7 174 OFFCURVE",
"2 170 OFFCURVE",
"2 162 CURVE SMOOTH",
"2 150 OFFCURVE",
"20 126 OFFCURVE",
"41 105 CURVE",
"75 68 OFFCURVE",
"108 41 OFFCURVE",
"139 26 CURVE",
"168 10 OFFCURVE",
"197 5 OFFCURVE",
"240 4 CURVE",
"305 -2 OFFCURVE",
"406 -5 OFFCURVE",
"545 -5 CURVE SMOOTH",
"683 -5 LINE SMOOTH",
"884 -5 OFFCURVE",
"1031 26 OFFCURVE",
"1125 88 CURVE",
"1171 29 OFFCURVE",
"1239 0 OFFCURVE",
"1330 0 CURVE SMOOTH",
"1386 0 OFFCURVE",
"1415 19 OFFCURVE",
"1415 72 CURVE SMOOTH",
"1415 81 LINE SMOOTH",
"1415 134 OFFCURVE",
"1403 155 OFFCURVE",
"1367 155 CURVE SMOOTH",
"1304 155 OFFCURVE",
"1256 168 OFFCURVE",
"1225 194 CURVE",
"1248 237 OFFCURVE",
"1260 286 OFFCURVE",
"1260 341 CURVE SMOOTH",
"1260 410 OFFCURVE",
"1237 478 OFFCURVE",
"1192 527 CURVE SMOOTH",
"1141 583 OFFCURVE",
"1066 611 OFFCURVE",
"968 611 CURVE SMOOTH",
"859 611 OFFCURVE",
"703 543 OFFCURVE",
"563 402 CURVE",
"562 475 OFFCURVE",
"560 554 OFFCURVE",
"557 637 CURVE SMOOTH",
"556 668 LINE",
"552 762 LINE SMOOTH",
"545 938 OFFCURVE",
"539 1069 OFFCURVE",
"534 1155 CURVE SMOOTH",
"526 1271 LINE",
"525 1280 OFFCURVE",
"523 1295 OFFCURVE",
"522 1314 CURVE SMOOTH",
"521 1326 OFFCURVE",
"512 1332 OFFCURVE",
"495 1332 CURVE SMOOTH",
"485 1332 OFFCURVE",
"472 1329 OFFCURVE",
"456 1324 CURVE SMOOTH"
);
},
{
closed = 1;
nodes = (
"662 365 OFFCURVE",
"807 459 OFFCURVE",
"956 459 CURVE SMOOTH",
"1060 459 OFFCURVE",
"1130 405 OFFCURVE",
"1130 322 CURVE SMOOTH",
"1130 267 OFFCURVE",
"1103 224 OFFCURVE",
"1038 195 CURVE SMOOTH",
"971 164 OFFCURVE",
"855 148 OFFCURVE",
"688 148 CURVE SMOOTH",
"511 148 LINE"
);
}
);
width = 1348;
}
);
note = uniFEC2;
unicode = FEC2;
},
{
glyphname = uni0638;
lastChange = "2017-05-01 10:57:08 +0000";
layers = (
{
layerId = "9BAC860F-5151-470B-96DF-6D043347F519";
paths = (
{
closed = 1;
nodes = (
"412 1309 OFFCURVE",
"398 1287 OFFCURVE",
"398 1239 CURVE SMOOTH",
"398 1221 OFFCURVE",
"400 1197 OFFCURVE",
"404 1167 CURVE SMOOTH",
"410 1128 OFFCURVE",
"417 1045 OFFCURVE",
"424 918 CURVE SMOOTH",
"436 703 OFFCURVE",
"449 413 OFFCURVE",
"449 264 CURVE",
"390 183 OFFCURVE",
"344 148 OFFCURVE",
"287 148 CURVE SMOOTH",
"219 148 OFFCURVE",
"162 152 OFFCURVE",
"117 161 CURVE",
"108 162 OFFCURVE",
"101 164 OFFCURVE",
"96 165 CURVE",
"59 171 OFFCURVE",
"32 174 OFFCURVE",
"16 174 CURVE SMOOTH",
"7 174 OFFCURVE",
"2 170 OFFCURVE",
"2 162 CURVE SMOOTH",
"2 150 OFFCURVE",
"20 126 OFFCURVE",
"41 105 CURVE",
"75 68 OFFCURVE",
"108 41 OFFCURVE",
"139 26 CURVE",
"168 10 OFFCURVE",
"197 5 OFFCURVE",
"240 4 CURVE",
"305 -2 OFFCURVE",
"406 -5 OFFCURVE",
"545 -5 CURVE SMOOTH",
"683 -5 LINE SMOOTH",
"1027 -5 OFFCURVE",
"1260 90 OFFCURVE",
"1260 341 CURVE SMOOTH",
"1260 410 OFFCURVE",
"1237 478 OFFCURVE",
"1192 527 CURVE SMOOTH",
"1141 583 OFFCURVE",
"1066 611 OFFCURVE",
"968 611 CURVE SMOOTH",
"859 611 OFFCURVE",
"703 543 OFFCURVE",
"563 402 CURVE",
"562 475 OFFCURVE",
"560 554 OFFCURVE",
"557 637 CURVE SMOOTH",
"556 668 LINE",
"552 762 LINE SMOOTH",
"545 938 OFFCURVE",
"539 1069 OFFCURVE",
"534 1155 CURVE SMOOTH",
"526 1271 LINE",
"525 1280 OFFCURVE",
"523 1295 OFFCURVE",
"522 1314 CURVE SMOOTH",
"521 1326 OFFCURVE",
"512 1332 OFFCURVE",
"495 1332 CURVE SMOOTH",
"485 1332 OFFCURVE",
"472 1329 OFFCURVE",
"456 1324 CURVE SMOOTH"
);
},
{
closed = 1;
nodes = (
"662 365 OFFCURVE",
"807 459 OFFCURVE",
"956 459 CURVE SMOOTH",
"1060 459 OFFCURVE",
"1130 405 OFFCURVE",
"1130 322 CURVE SMOOTH",
"1130 267 OFFCURVE",
"1103 224 OFFCURVE",
"1038 195 CURVE SMOOTH",
"971 164 OFFCURVE",
"855 148 OFFCURVE",
"688 148 CURVE SMOOTH",
"511 148 LINE"
);
},
{
closed = 1;
nodes = (
"959 1077 OFFCURVE",
"938 1063 OFFCURVE",
"910 1035 CURVE SMOOTH",
"887 1012 OFFCURVE",
"869 986 OFFCURVE",
"869 975 CURVE SMOOTH",
"869 970 OFFCURVE",
"875 962 OFFCURVE",
"886 953 CURVE SMOOTH",
"907 937 OFFCURVE",
"927 918 OFFCURVE",
"946 895 CURVE SMOOTH",
"954 885 OFFCURVE",
"961 880 OFFCURVE",
"967 880 CURVE SMOOTH",
"974 880 OFFCURVE",
"980 883 OFFCURVE",
"986 890 CURVE",
"989 893 OFFCURVE",
"1000 904 OFFCURVE",
"1020 922 CURVE",
"1023 925 OFFCURVE",
"1029 931 OFFCURVE",
"1037 939 CURVE SMOOTH",
"1053 955 OFFCURVE",
"1070 973 OFFCURVE",
"1070 982 CURVE SMOOTH",
"1070 994 OFFCURVE",
"1053 1021 OFFCURVE",
"1033 1040 CURVE SMOOTH",
"1008 1065 OFFCURVE",
"988 1077 OFFCURVE",
"972 1077 CURVE SMOOTH"
);
}
);
width = 1402;
}
);
note = uni0638;
unicode = 0638;
},
{
glyphname = uniFEC7;
lastChange = "2017-05-01 10:57:08 +0000";
layers = (
{
layerId = "9BAC860F-5151-470B-96DF-6D043347F519";
paths = (
{
closed = 1;
nodes = (
"161 1309 OFFCURVE",
"148 1287 OFFCURVE",
"148 1239 CURVE SMOOTH",
"148 1224 OFFCURVE",
"150 1200 OFFCURVE",
"153 1167 CURVE",
"159 1127 OFFCURVE",
"165 1044 OFFCURVE",
"172 918 CURVE SMOOTH",
"189 598 OFFCURVE",
"197 391 OFFCURVE",
"197 264 CURVE",
"162 217 OFFCURVE",
"145 196 OFFCURVE",
"122 181 CURVE SMOOTH",
"97 164 OFFCURVE",
"63 155 OFFCURVE",
"20 155 CURVE SMOOTH",
"-32 155 OFFCURVE",
"-65 130 OFFCURVE",
"-65 81 CURVE SMOOTH",
"-65 70 LINE SMOOTH",
"-65 25 OFFCURVE",
"-44 0 OFFCURVE",
"-17 0 CURVE SMOOTH",
"429 0 LINE SMOOTH",
"777 0 OFFCURVE",
"1007 94 OFFCURVE",
"1007 341 CURVE SMOOTH",
"1007 410 OFFCURVE",
"983 478 OFFCURVE",
"938 527 CURVE SMOOTH",
"887 583 OFFCURVE",
"812 611 OFFCURVE",
"715 611 CURVE SMOOTH",
"604 611 OFFCURVE",
"449 543 OFFCURVE",
"310 404 CURVE",
"306 577 LINE SMOOTH",
"305 639 OFFCURVE",
"303 700 OFFCURVE",
"300 761 CURVE SMOOTH",
"298 800 OFFCURVE",
"296 859 OFFCURVE",
"293 937 CURVE SMOOTH",
"288 1044 OFFCURVE",
"284 1135 OFFCURVE",
"279 1208 CURVE SMOOTH",
"275 1271 LINE",
"273 1281 OFFCURVE",
"271 1295 OFFCURVE",
"270 1314 CURVE SMOOTH",
"269 1326 OFFCURVE",
"260 1332 OFFCURVE",
"243 1332 CURVE SMOOTH",
"233 1332 OFFCURVE",
"220 1329 OFFCURVE",
"204 1324 CURVE SMOOTH"
);
},
{
closed = 1;
nodes = (
"410 364 OFFCURVE",
"554 459 OFFCURVE",
"702 459 CURVE SMOOTH",
"806 459 OFFCURVE",
"878 405 OFFCURVE",
"878 322 CURVE SMOOTH",
"878 266 OFFCURVE",
"847 225 OFFCURVE",
"785 199 CURVE SMOOTH",
"716 170 OFFCURVE",
"600 155 OFFCURVE",
"435 155 CURVE SMOOTH",
"257 155 LINE"
);
},
{
closed = 1;
nodes = (
"684 1077 OFFCURVE",
"663 1063 OFFCURVE",
"635 1035 CURVE SMOOTH",
"612 1012 OFFCURVE",
"593 986 OFFCURVE",
"593 975 CURVE SMOOTH",
"593 970 OFFCURVE",
"599 962 OFFCURVE",
"610 953 CURVE SMOOTH",
"632 936 OFFCURVE",
"652 917 OFFCURVE",
"670 895 CURVE SMOOTH",
"678 885 OFFCURVE",
"685 880 OFFCURVE",
"692 880 CURVE SMOOTH",
"699 880 OFFCURVE",
"705 883 OFFCURVE",
"711 890 CURVE",
"714 893 OFFCURVE",
"725 904 OFFCURVE",
"745 922 CURVE",
"751 929 OFFCURVE",
"762 940 OFFCURVE",
"777 955 CURVE SMOOTH",
"788 966 OFFCURVE",
"794 975 OFFCURVE",
"794 982 CURVE SMOOTH",
"794 988 OFFCURVE",
"790 997 OFFCURVE",
"783 1009 CURVE",
"768 1032 OFFCURVE",
"728 1077 OFFCURVE",
"697 1077 CURVE SMOOTH"
);
}
);
width = 1147;
}
);
note = uniFEC7;
unicode = FEC7;
},
{
glyphname = uniFEC8;
lastChange = "2017-05-01 10:57:08 +0000";
layers = (
{
layerId = "9BAC860F-5151-470B-96DF-6D043347F519";
paths = (
{
closed = 1;
nodes = (
"686 1077 OFFCURVE",
"665 1063 OFFCURVE",
"636 1035 CURVE SMOOTH",
"613 1014 OFFCURVE",
"595 986 OFFCURVE",
"595 975 CURVE SMOOTH",
"595 970 OFFCURVE",
"601 962 OFFCURVE",
"612 953 CURVE SMOOTH",
"636 934 OFFCURVE",
"656 915 OFFCURVE",
"672 895 CURVE",
"679 885 OFFCURVE",
"686 880 OFFCURVE",
"693 880 CURVE SMOOTH",
"701 880 OFFCURVE",
"707 883 OFFCURVE",
"712 890 CURVE",
"715 893 OFFCURVE",
"726 904 OFFCURVE",
"746 922 CURVE SMOOTH",
"762 937 OFFCURVE",
"774 950 OFFCURVE",
"783 959 CURVE SMOOTH",
"792 968 OFFCURVE",
"796 976 OFFCURVE",
"796 982 CURVE SMOOTH",
"796 987 OFFCURVE",
"792 996 OFFCURVE",
"785 1009 CURVE",
"765 1040 OFFCURVE",
"727 1077 OFFCURVE",
"699 1077 CURVE SMOOTH"
);
},
{
closed = 1;
nodes = (
"163 1309 OFFCURVE",
"149 1287 OFFCURVE",
"149 1239 CURVE SMOOTH",
"149 1221 OFFCURVE",
"151 1197 OFFCURVE",
"155 1167 CURVE",
"164 1066 LINE",
"167 1027 LINE",
"174 920 LINE",
"183 748 LINE SMOOTH",
"187 663 OFFCURVE",
"190 604 OFFCURVE",
"191 570 CURVE SMOOTH",
"192 527 OFFCURVE",
"193 471 OFFCURVE",
"196 402 CURVE SMOOTH",
"198 349 OFFCURVE",
"199 304 OFFCURVE",
"199 267 CURVE",
"166 220 OFFCURVE",
"148 198 OFFCURVE",
"124 182 CURVE SMOOTH",
"98 164 OFFCURVE",
"63 155 OFFCURVE",
"20 155 CURVE SMOOTH",
"-32 155 OFFCURVE",
"-65 130 OFFCURVE",
"-65 81 CURVE SMOOTH",
"-65 70 LINE SMOOTH",
"-65 25 OFFCURVE",
"-44 0 OFFCURVE",
"-17 0 CURVE SMOOTH",
"429 0 LINE SMOOTH",
"622 0 OFFCURVE",
"766 28 OFFCURVE",
"861 85 CURVE",
"906 28 OFFCURVE",
"973 0 OFFCURVE",
"1062 0 CURVE SMOOTH",
"1117 0 OFFCURVE",
"1147 19 OFFCURVE",
"1147 72 CURVE SMOOTH",
"1147 81 LINE SMOOTH",
"1147 134 OFFCURVE",
"1135 155 OFFCURVE",
"1099 155 CURVE SMOOTH",
"1042 155 OFFCURVE",
"999 165 OFFCURVE",
"968 186 CURVE",
"994 233 OFFCURVE",
"1007 284 OFFCURVE",
"1007 341 CURVE SMOOTH",
"1007 410 OFFCURVE",
"983 478 OFFCURVE",
"938 527 CURVE SMOOTH",
"887 583 OFFCURVE",
"812 611 OFFCURVE",
"715 611 CURVE SMOOTH",
"604 611 OFFCURVE",
"452 545 OFFCURVE",
"311 406 CURVE",
"310 522 OFFCURVE",
"308 610 OFFCURVE",
"306 671 CURVE SMOOTH",
"301 828 OFFCURVE",
"293 989 OFFCURVE",
"284 1156 CURVE SMOOTH",
"276 1271 LINE",
"275 1280 OFFCURVE",
"273 1295 OFFCURVE",
"272 1314 CURVE SMOOTH",
"271 1326 OFFCURVE",
"262 1332 OFFCURVE",
"245 1332 CURVE SMOOTH",
"235 1332 OFFCURVE",
"222 1329 OFFCURVE",
"206 1324 CURVE SMOOTH"
);
},
{
closed = 1;
nodes = (
"410 364 OFFCURVE",
"554 459 OFFCURVE",
"702 459 CURVE SMOOTH",
"806 459 OFFCURVE",
"878 405 OFFCURVE",
"878 322 CURVE SMOOTH",
"878 266 OFFCURVE",
"847 225 OFFCURVE",
"785 199 CURVE SMOOTH",
"716 170 OFFCURVE",
"600 155 OFFCURVE",
"435 155 CURVE SMOOTH",
"257 155 LINE"
);
}
);
width = 1078;
}
);
note = uniFEC8;
unicode = FEC8;
},
{
glyphname = uniFEC6;
lastChange = "2017-05-01 10:57:08 +0000";
layers = (
{
layerId = "9BAC860F-5151-470B-96DF-6D043347F519";
paths = (
{
closed = 1;
nodes = (
"926 1077 OFFCURVE",
"905 1063 OFFCURVE",
"876 1035 CURVE SMOOTH",
"853 1014 OFFCURVE",
"836 987 OFFCURVE",
"836 975 CURVE SMOOTH",
"836 970 OFFCURVE",
"842 962 OFFCURVE",
"853 953 CURVE SMOOTH",
"875 936 OFFCURVE",
"895 916 OFFCURVE",
"912 895 CURVE SMOOTH",
"920 885 OFFCURVE",
"927 880 OFFCURVE",
"933 880 CURVE SMOOTH",
"942 880 OFFCURVE",
"948 883 OFFCURVE",
"953 890 CURVE",
"956 893 OFFCURVE",
"967 904 OFFCURVE",
"987 922 CURVE",
"990 925 OFFCURVE",
"996 931 OFFCURVE",
"1004 939 CURVE SMOOTH",
"1020 955 OFFCURVE",
"1037 973 OFFCURVE",
"1037 982 CURVE SMOOTH",
"1037 988 OFFCURVE",
"1033 997 OFFCURVE",
"1026 1008 CURVE SMOOTH",
"1011 1031 OFFCURVE",
"971 1077 OFFCURVE",
"939 1077 CURVE SMOOTH"
);
},
{
closed = 1;
nodes = (
"412 1309 OFFCURVE",
"398 1287 OFFCURVE",
"398 1239 CURVE SMOOTH",
"398 1221 OFFCURVE",
"400 1197 OFFCURVE",
"404 1167 CURVE SMOOTH",
"410 1128 OFFCURVE",
"417 1045 OFFCURVE",
"424 918 CURVE SMOOTH",
"436 703 OFFCURVE",
"449 413 OFFCURVE",
"449 264 CURVE",
"390 183 OFFCURVE",
"344 148 OFFCURVE",
"287 148 CURVE SMOOTH",
"219 148 OFFCURVE",
"162 152 OFFCURVE",
"117 161 CURVE",
"108 162 OFFCURVE",
"101 164 OFFCURVE",
"96 165 CURVE",
"59 171 OFFCURVE",
"32 174 OFFCURVE",
"16 174 CURVE SMOOTH",
"7 174 OFFCURVE",
"2 170 OFFCURVE",
"2 162 CURVE SMOOTH",
"2 150 OFFCURVE",
"20 126 OFFCURVE",
"41 105 CURVE",
"75 68 OFFCURVE",
"108 41 OFFCURVE",
"139 26 CURVE",
"168 10 OFFCURVE",
"197 5 OFFCURVE",
"240 4 CURVE",
"305 -2 OFFCURVE",
"406 -5 OFFCURVE",
"545 -5 CURVE SMOOTH",
"683 -5 LINE SMOOTH",
"884 -5 OFFCURVE",
"1031 26 OFFCURVE",
"1125 88 CURVE",
"1171 29 OFFCURVE",
"1239 0 OFFCURVE",
"1330 0 CURVE SMOOTH",
"1386 0 OFFCURVE",
"1415 19 OFFCURVE",
"1415 72 CURVE SMOOTH",
"1415 81 LINE SMOOTH",
"1415 134 OFFCURVE",
"1403 155 OFFCURVE",
"1367 155 CURVE SMOOTH",
"1304 155 OFFCURVE",
"1256 168 OFFCURVE",
"1225 194 CURVE",
"1248 237 OFFCURVE",
"1260 286 OFFCURVE",
"1260 341 CURVE SMOOTH",
"1260 410 OFFCURVE",
"1237 478 OFFCURVE",
"1192 527 CURVE SMOOTH",
"1141 583 OFFCURVE",
"1066 611 OFFCURVE",
"968 611 CURVE SMOOTH",
"859 611 OFFCURVE",
"703 543 OFFCURVE",
"563 402 CURVE",
"562 475 OFFCURVE",
"560 554 OFFCURVE",
"557 637 CURVE SMOOTH",
"556 668 LINE",
"552 762 LINE SMOOTH",
"545 938 OFFCURVE",
"539 1069 OFFCURVE",
"534 1155 CURVE SMOOTH",
"526 1271 LINE",
"525 1280 OFFCURVE",
"523 1295 OFFCURVE",
"522 1314 CURVE SMOOTH",
"521 1326 OFFCURVE",
"512 1332 OFFCURVE",
"495 1332 CURVE SMOOTH",
"485 1332 OFFCURVE",
"472 1329 OFFCURVE",
"456 1324 CURVE SMOOTH"
);
},
{
closed = 1;
nodes = (
"662 365 OFFCURVE",
"807 459 OFFCURVE",
"956 459 CURVE SMOOTH",
"1060 459 OFFCURVE",
"1130 405 OFFCURVE",
"1130 322 CURVE SMOOTH",
"1130 267 OFFCURVE",
"1103 224 OFFCURVE",
"1038 195 CURVE SMOOTH",
"971 164 OFFCURVE",
"855 148 OFFCURVE",
"688 148 CURVE SMOOTH",
"511 148 LINE"
);
}
);
width = 1348;
}
);
note = uniFEC6;
unicode = FEC6;
},
{
glyphname = uni0639;
lastChange = "2017-05-01 10:57:08 +0000";
layers = (
{
layerId = "9BAC860F-5151-470B-96DF-6D043347F519";
paths = (
{
closed = 1;
nodes = (
"526 -782 OFFCURVE",
"376 -728 OFFCURVE",
"273 -635 CURVE SMOOTH",
"177 -548 OFFCURVE",
"127 -427 OFFCURVE",
"127 -299 CURVE SMOOTH",
"127 -44 OFFCURVE",
"307 152 OFFCURVE",
"660 275 CURVE SMOOTH",
"682 282 OFFCURVE",
"698 289 OFFCURVE",
"707 297 CURVE SMOOTH",
"726 313 OFFCURVE",
"766 406 OFFCURVE",
"766 421 CURVE SMOOTH",
"766 433 OFFCURVE",
"760 439 OFFCURVE",
"747 439 CURVE SMOOTH",
"735 439 OFFCURVE",
"713 433 OFFCURVE",
"680 421 CURVE SMOOTH",
"637 405 OFFCURVE",
"600 390 OFFCURVE",
"567 375 CURVE SMOOTH",
"479 335 OFFCURVE",
"392 290 OFFCURVE",
"347 255 CURVE",
"212 304 OFFCURVE",
"144 377 OFFCURVE",
"144 474 CURVE SMOOTH",
"144 510 OFFCURVE",
"158 555 OFFCURVE",
"187 588 CURVE SMOOTH",
"224 630 OFFCURVE",
"279 651 OFFCURVE",
"350 651 CURVE SMOOTH",
"417 651 OFFCURVE",
"465 646 OFFCURVE",
"495 635 CURVE SMOOTH",
"526 624 OFFCURVE",
"546 618 OFFCURVE",
"555 618 CURVE SMOOTH",
"568 618 OFFCURVE",
"574 625 OFFCURVE",
"574 640 CURVE SMOOTH",
"574 667 OFFCURVE",
"553 727 OFFCURVE",
"512 755 CURVE",
"472 780 OFFCURVE",
"418 792 OFFCURVE",
"349 792 CURVE SMOOTH",
"242 792 OFFCURVE",
"160 749 OFFCURVE",
"101 680 CURVE SMOOTH",
"46 616 OFFCURVE",
"18 533 OFFCURVE",
"18 458 CURVE SMOOTH",
"18 319 OFFCURVE",
"83 215 OFFCURVE",
"214 146 CURVE",
"67 -2 OFFCURVE",
"0 -170 OFFCURVE",
"0 -366 CURVE SMOOTH",
"0 -507 OFFCURVE",
"52 -644 OFFCURVE",
"153 -745 CURVE SMOOTH",
"262 -856 OFFCURVE",
"433 -922 OFFCURVE",
"658 -922 CURVE SMOOTH",
"810 -922 OFFCURVE",
"913 -889 OFFCURVE",
"982 -801 CURVE",
"1005 -767 LINE SMOOTH",
"1014 -754 OFFCURVE",
"1018 -745 OFFCURVE",
"1018 -738 CURVE SMOOTH",
"1018 -733 OFFCURVE",
"1015 -730 OFFCURVE",
"1010 -730 CURVE SMOOTH",
"1003 -730 OFFCURVE",
"992 -733 OFFCURVE",
"978 -738 CURVE",
"964 -744 OFFCURVE",
"946 -750 OFFCURVE",
"924 -756 CURVE SMOOTH",
"865 -773 OFFCURVE",
"798 -782 OFFCURVE",
"721 -782 CURVE SMOOTH"
);
}
);
width = 906;
}
);
note = uni0639;
unicode = 0639;
},
{
glyphname = uniFECB;
lastChange = "2017-05-01 10:57:08 +0000";
layers = (
{
layerId = "9BAC860F-5151-470B-96DF-6D043347F519";
paths = (
{
closed = 1;
nodes = (
"517 607 OFFCURVE",
"580 598 OFFCURVE",
"635 579 CURVE",
"647 576 OFFCURVE",
"656 574 OFFCURVE",
"662 574 CURVE SMOOTH",
"674 574 OFFCURVE",
"680 581 OFFCURVE",
"680 594 CURVE SMOOTH",
"680 623 OFFCURVE",
"660 682 OFFCURVE",
"619 710 CURVE SMOOTH",
"580 735 OFFCURVE",
"525 747 OFFCURVE",
"456 747 CURVE SMOOTH",
"349 747 OFFCURVE",
"266 704 OFFCURVE",
"207 635 CURVE SMOOTH",
"154 572 OFFCURVE",
"125 489 OFFCURVE",
"125 413 CURVE SMOOTH",
"125 312 OFFCURVE",
"161 229 OFFCURVE",
"234 166 CURVE",
"158 159 OFFCURVE",
"87 155 OFFCURVE",
"20 155 CURVE SMOOTH",
"-32 155 OFFCURVE",
"-65 130 OFFCURVE",
"-65 81 CURVE SMOOTH",
"-65 70 LINE SMOOTH",
"-65 25 OFFCURVE",
"-44 0 OFFCURVE",
"-17 0 CURVE SMOOTH",
"67 0 OFFCURVE",
"142 6 OFFCURVE",
"208 17 CURVE SMOOTH",
"321 37 OFFCURVE",
"404 57 OFFCURVE",
"557 100 CURVE SMOOTH",
"616 115 OFFCURVE",
"680 127 OFFCURVE",
"750 135 CURVE",
"770 138 OFFCURVE",
"777 141 OFFCURVE",
"785 149 CURVE SMOOTH",
"794 158 OFFCURVE",
"808 192 OFFCURVE",
"811 199 CURVE SMOOTH",
"830 242 OFFCURVE",
"839 268 OFFCURVE",
"839 275 CURVE SMOOTH",
"839 288 OFFCURVE",
"833 294 OFFCURVE",
"820 294 CURVE SMOOTH",
"793 294 OFFCURVE",
"731 283 OFFCURVE",
"636 262 CURVE SMOOTH",
"563 246 OFFCURVE",
"486 223 OFFCURVE",
"453 210 CURVE",
"312 255 OFFCURVE",
"252 335 OFFCURVE",
"252 430 CURVE SMOOTH",
"252 465 OFFCURVE",
"269 508 OFFCURVE",
"300 543 CURVE SMOOTH",
"335 582 OFFCURVE",
"388 607 OFFCURVE",
"457 607 CURVE SMOOTH"
);
}
);
width = 979;
}
);
note = uniFECB;
unicode = FECB;
},
{
glyphname = uniFECC;
lastChange = "2017-05-01 10:57:08 +0000";
layers = (
{
layerId = "9BAC860F-5151-470B-96DF-6D043347F519";
paths = (
{
closed = 1;
nodes = (
"179 440 OFFCURVE",
"203 407 OFFCURVE",
"242 348 CURVE SMOOTH",
"287 277 OFFCURVE",
"311 243 OFFCURVE",
"363 195 CURVE",
"260 167 OFFCURVE",
"207 155 OFFCURVE",
"20 155 CURVE SMOOTH",
"-32 155 OFFCURVE",
"-65 130 OFFCURVE",
"-65 81 CURVE SMOOTH",
"-65 70 LINE SMOOTH",
"-65 25 OFFCURVE",
"-44 0 OFFCURVE",
"-17 0 CURVE SMOOTH",
"224 0 OFFCURVE",
"357 29 OFFCURVE",
"486 104 CURVE",
"549 67 OFFCURVE",
"604 42 OFFCURVE",
"669 26 CURVE SMOOTH",
"737 9 OFFCURVE",
"820 0 OFFCURVE",
"917 0 CURVE SMOOTH",
"972 0 OFFCURVE",
"1001 19 OFFCURVE",
"1001 72 CURVE SMOOTH",
"1001 81 LINE SMOOTH",
"1001 134 OFFCURVE",
"989 155 OFFCURVE",
"953 155 CURVE SMOOTH",
"785 155 OFFCURVE",
"697 164 OFFCURVE",
"616 199 CURVE",
"727 290 OFFCURVE",
"780 408 OFFCURVE",
"780 509 CURVE SMOOTH",
"780 612 OFFCURVE",
"714 686 OFFCURVE",
"533 686 CURVE SMOOTH",
"504 686 OFFCURVE",
"472 683 OFFCURVE",
"439 678 CURVE",
"360 663 OFFCURVE",
"299 649 OFFCURVE",
"256 635 CURVE SMOOTH",
"216 622 OFFCURVE",
"191 615 OFFCURVE",
"180 612 CURVE SMOOTH",
"162 607 OFFCURVE",
"149 599 OFFCURVE",
"141 588 CURVE",
"140 585 OFFCURVE",
"137 580 OFFCURVE",
"132 573 CURVE SMOOTH",
"130 570 OFFCURVE",
"125 561 OFFCURVE",
"118 546 CURVE SMOOTH",
"104 515 LINE",
"99 506 OFFCURVE",
"97 499 OFFCURVE",
"97 494 CURVE SMOOTH",
"97 489 OFFCURVE",
"101 486 OFFCURVE",
"108 485 CURVE",
"116 483 OFFCURVE",
"124 479 OFFCURVE",
"132 472 CURVE"
);
},
{
closed = 1;
nodes = (
"637 433 OFFCURVE",
"631 411 OFFCURVE",
"619 387 CURVE SMOOTH",
"595 339 OFFCURVE",
"550 289 OFFCURVE",
"494 258 CURVE",
"433 295 OFFCURVE",
"383 351 OFFCURVE",
"319 451 CURVE SMOOTH",
"306 471 OFFCURVE",
"291 490 OFFCURVE",
"276 507 CURVE",
"343 532 OFFCURVE",
"431 548 OFFCURVE",
"483 548 CURVE SMOOTH",
"542 548 OFFCURVE",
"584 537 OFFCURVE",
"610 516 CURVE SMOOTH",
"628 501 OFFCURVE",
"637 480 OFFCURVE",
"637 452 CURVE SMOOTH"
);
}
);
width = 933;
}
);
note = uniFECC;
unicode = FECC;
},
